<svg version="1.1" xmlns="http://www.w3.org/2000/svg" viewBox="0 0 488.33333333333303 603.6666666666667" width="488.33333333333303" height="603.6666666666667" class="excalidraw-svg"><!-- svg-source:excalidraw --><metadata></metadata><defs><style class="style-fonts">
      </style></defs><rect x="0" y="0" width="488.33333333333303" height="603.6666666666667" fill="#ffffff"></rect><g stroke-linecap="round"><g transform="translate(477.99999999999983 10) rotate(0 -233.83333333333337 291.83333333333337)"><path d="M0 0 C-25.56 55.11, -81.78 323.33, -153.33 330.67 C-224.89 338, -376.94 1.83, -429.33 44 C-481.72 86.17, -461.28 493.72, -467.67 583.67 M0 0 C-25.56 55.11, -81.78 323.33, -153.33 330.67 C-224.89 338, -376.94 1.83, -429.33 44 C-481.72 86.17, -461.28 493.72, -467.67 583.67" stroke="#777" stroke-width="2" fill="none"></path></g></g><mask></mask><g stroke-linecap="round"><g transform="translate(478.33333333333303 11.413919413918393) rotate(0 -1.4210854715202004e-14 290.71428571428606)"><path d="M0 0 C0 96.9, 0 484.52, 0 581.43 M0 0 C0 96.9, 0 484.52, 0 581.43" stroke="#777" stroke-width="2" fill="none"></path></g></g><mask></mask><g stroke-linecap="round"><g transform="translate(10 591.9999999999997) rotate(0 233.33333333333337 0)"><path d="M0 0 C77.78 0, 388.89 0, 466.67 0 M0 0 C77.78 0, 388.89 0, 466.67 0" stroke="#777" stroke-width="2" fill="none"></path></g></g><mask></mask></svg>