<svg version="1.1" xmlns="http://www.w3.org/2000/svg" viewBox="0 0 489.54082230811287 603.6666666666667" width="489.54082230811287" height="603.6666666666667" class="excalidraw-svg"><!-- svg-source:excalidraw --><metadata></metadata><defs><style class="style-fonts">
      </style></defs><rect x="0" y="0" width="489.54082230811287" height="603.6666666666667" fill="#ffffff"></rect><g stroke-linecap="round"><g transform="translate(477.99999999999983 10) rotate(0 -233.83333333333337 291.83333333333337)"><path d="M0 0 C-25.56 55.11, -81.78 323.33, -153.33 330.67 C-224.89 338, -376.94 1.83, -429.33 44 C-481.72 86.17, -461.28 493.72, -467.67 583.67 M0 0 C-25.56 55.11, -81.78 323.33, -153.33 330.67 C-224.89 338, -376.94 1.83, -429.33 44 C-481.72 86.17, -461.28 493.72, -467.67 583.67" stroke="#777" stroke-width="1" fill="none"></path></g></g><mask></mask><g stroke-linecap="round"><g transform="translate(478.33333333333303 11.413919413918393) rotate(0 -1.4210854715202004e-14 290.71428571428606)"><path d="M0 0 C0 96.9, 0 484.52, 0 581.43 M0 0 C0 96.9, 0 484.52, 0 581.43" stroke="#777" stroke-width="1" fill="none"></path></g></g><mask></mask><g stroke-linecap="round"><g transform="translate(10 591.9999999999997) rotate(0 233.33333333333337 0)"><path d="M0 0 C77.78 0, 388.89 0, 466.67 0 M0 0 C77.78 0, 388.89 0, 466.67 0" stroke="#777" stroke-width="1" fill="none"></path></g></g><mask></mask><g stroke-linecap="round" transform="translate(10.333333499999867 340.96086434938996) rotate(0 234.6037444040565 125.79429432569505)"><path d="M0 0 C0 0, 0 0, 0 0 M0 0 C0 0, 0 0, 0 0 M-0.26 6.4 C1.71 4.13, 3.68 1.86, 4.99 0.36 M-0.26 6.4 C1.13 4.8, 2.51 3.21, 4.99 0.36 M0.13 12.04 C4.25 7.31, 8.36 2.58, 10.63 -0.03 M0.13 12.04 C3.62 8.03, 7.11 4.01, 10.63 -0.03 M-0.13 18.44 C6.05 11.33, 12.23 4.22, 15.62 0.33 M-0.13 18.44 C3.31 14.48, 6.75 10.52, 15.62 0.33 M0.27 24.08 C7.34 15.95, 14.41 7.82, 21.26 -0.07 M0.27 24.08 C6.15 17.32, 12.02 10.56, 21.26 -0.07 M0 30.48 C9.14 19.97, 18.28 9.45, 26.25 0.29 M0 30.48 C8.9 20.24, 17.8 10.01, 26.25 0.29 M-0.26 36.88 C6.43 29.18, 13.12 21.49, 31.89 -0.1 M-0.26 36.88 C9.01 26.22, 18.27 15.56, 31.89 -0.1 M0.14 42.52 C9.27 32.02, 18.4 21.51, 36.88 0.26 M0.14 42.52 C11.03 29.99, 21.92 17.46, 36.88 0.26 M-0.12 48.92 C10.42 36.79, 20.96 24.66, 42.52 -0.14 M-0.12 48.92 C9.1 38.31, 18.32 27.7, 42.52 -0.14 M0.27 54.56 C15.41 37.14, 30.55 19.73, 47.51 0.22 M0.27 54.56 C18.65 33.42, 37.03 12.27, 47.51 0.22 M0.01 60.96 C11.56 47.67, 23.12 34.37, 53.15 -0.17 M0.01 60.96 C13.4 45.56, 26.79 30.15, 53.15 -0.17 M-0.25 67.36 C12.21 53.03, 24.66 38.69, 58.14 0.19 M-0.25 67.36 C19.81 44.28, 39.87 21.2, 58.14 0.19 M0.14 73 C13.11 58.08, 26.08 43.16, 63.78 -0.21 M0.14 73 C19.92 50.24, 39.71 27.49, 63.78 -0.21 M-0.12 79.4 C27.31 47.85, 54.73 16.3, 68.77 0.15 M-0.12 79.4 C21.56 54.46, 43.24 29.52, 68.77 0.15 M0.28 85.04 C16.09 66.85, 31.9 48.66, 74.41 -0.24 M0.28 85.04 C17.83 64.85, 35.38 44.66, 74.41 -0.24 M0.01 91.44 C29.2 57.86, 58.39 24.29, 79.4 0.12 M0.01 91.44 C22.66 65.39, 45.3 39.34, 79.4 0.12 M-0.25 97.84 C31.72 61.07, 63.68 24.3, 85.04 -0.28 M-0.25 97.84 C16.94 78.06, 34.14 58.28, 85.04 -0.28 M0.15 103.48 C21.44 78.99, 42.73 54.49, 90.03 0.08 M0.15 103.48 C24.08 75.95, 48.01 48.42, 90.03 0.08 M-0.11 109.88 C32.36 72.53, 64.82 35.17, 95.67 -0.31 M-0.11 109.88 C29.14 76.23, 58.39 42.58, 95.67 -0.31 M0.28 115.52 C34.65 75.98, 69.02 36.45, 100.66 0.05 M0.28 115.52 C30.07 81.25, 59.86 46.98, 100.66 0.05 M0.02 121.92 C29.62 87.86, 59.22 53.81, 106.3 -0.34 M0.02 121.92 C40.02 75.9, 80.02 29.89, 106.3 -0.34 M-0.24 128.32 C26.83 97.17, 53.9 66.03, 111.29 0.02 M-0.24 128.32 C26.99 96.99, 54.22 65.67, 111.29 0.02 M0.15 133.96 C33.58 95.5, 67.01 57.04, 116.27 0.38 M0.15 133.96 C43.21 84.43, 86.26 34.9, 116.27 0.38 M-0.11 140.36 C38.74 95.67, 77.58 50.98, 121.92 -0.02 M-0.11 140.36 C24.74 111.77, 49.59 83.19, 121.92 -0.02 M0.29 146 C48.84 90.15, 97.39 34.3, 126.91 0.34 M0.29 146 C47.53 91.66, 94.77 37.31, 126.91 0.34 M0.02 152.4 C49.26 95.76, 98.49 39.13, 132.55 -0.05 M0.02 152.4 C39.62 106.85, 79.21 61.3, 132.55 -0.05 M-0.24 158.8 C41.56 110.71, 83.36 62.63, 137.54 0.31 M-0.24 158.8 C54.3 96.06, 108.83 33.33, 137.54 0.31 M0.16 164.44 C32.53 127.19, 64.91 89.95, 143.18 -0.09 M0.16 164.44 C40.37 118.18, 80.58 71.92, 143.18 -0.09 M-0.1 170.84 C45.54 118.33, 91.18 65.82, 148.17 0.27 M-0.1 170.84 C56.19 106.08, 112.48 41.32, 148.17 0.27 M0.29 176.48 C50.8 118.37, 101.32 60.26, 153.81 -0.12 M0.29 176.48 C51.03 118.11, 101.77 59.74, 153.81 -0.12 M0.03 182.88 C60.17 113.69, 120.31 44.51, 158.8 0.24 M0.03 182.88 C62.49 111.03, 124.95 39.17, 158.8 0.24 M-0.23 189.27 C56.97 123.47, 114.18 57.66, 164.44 -0.16 M-0.23 189.27 C41.72 141.02, 83.67 92.76, 164.44 -0.16 M0.16 194.92 C37.42 152.06, 74.68 109.2, 169.43 0.2 M0.16 194.92 C39.77 149.36, 79.37 103.8, 169.43 0.2 M-0.1 201.32 C64.93 126.51, 129.95 51.71, 175.07 -0.19 M-0.1 201.32 C50.66 142.92, 101.43 84.52, 175.07 -0.19 M0.3 206.96 C46.59 153.71, 92.88 100.45, 180.06 0.17 M0.3 206.96 C41 160.14, 81.7 113.32, 180.06 0.17 M0.03 213.36 C58 146.67, 115.97 79.99, 185.7 -0.23 M0.03 213.36 C55.7 149.32, 111.36 85.29, 185.7 -0.23 M-0.23 219.75 C45.33 167.35, 90.88 114.94, 190.69 0.13 M-0.23 219.75 C42.52 170.58, 85.27 121.4, 190.69 0.13 M0.17 225.4 C59.78 156.82, 119.4 88.24, 196.33 -0.26 M0.17 225.4 C74.12 140.33, 148.06 55.26, 196.33 -0.26 M-0.09 231.8 C46.81 177.84, 93.72 123.88, 201.32 0.1 M-0.09 231.8 C41.75 183.66, 83.59 135.53, 201.32 0.1 M0.3 237.44 C62.65 165.71, 125.01 93.98, 206.96 -0.3 M0.3 237.44 C50.25 179.98, 100.2 122.52, 206.96 -0.3 M0.04 243.84 C49.14 187.35, 98.24 130.87, 211.95 0.06 M0.04 243.84 C60.93 173.79, 121.82 103.74, 211.95 0.06 M-0.22 250.23 C61.41 179.34, 123.04 108.44, 217.59 -0.33 M-0.22 250.23 C52.59 189.48, 105.4 128.73, 217.59 -0.33 M3.45 252.1 C79.77 164.31, 156.08 76.52, 222.58 0.03 M3.45 252.1 C69.25 176.41, 135.05 100.72, 222.58 0.03 M8.44 252.46 C62.67 190.07, 116.91 127.68, 228.22 -0.36 M8.44 252.46 C86.65 162.49, 164.86 72.52, 228.22 -0.36 M14.08 252.07 C61.79 197.19, 109.5 142.31, 233.21 0 M14.08 252.07 C60.58 198.58, 107.08 145.09, 233.21 0 M19.07 252.43 C66.01 198.43, 112.95 144.43, 238.19 0.36 M19.07 252.43 C103.79 154.97, 188.51 57.51, 238.19 0.36 M24.71 252.03 C111.71 151.96, 198.71 51.88, 243.84 -0.04 M24.71 252.03 C94.16 172.15, 163.6 92.26, 243.84 -0.04 M29.7 252.39 C79.71 194.87, 129.72 137.34, 248.82 0.32 M29.7 252.39 C110.26 159.72, 190.82 67.05, 248.82 0.32 M35.34 252 C115.33 159.98, 195.32 67.97, 254.47 -0.07 M35.34 252 C87.13 192.42, 138.92 132.84, 254.47 -0.07 M40.33 252.36 C117.8 163.24, 195.28 74.11, 259.45 0.29 M40.33 252.36 C119.19 161.64, 198.04 70.93, 259.45 0.29 M45.97 251.97 C116.64 170.67, 187.31 89.38, 265.1 -0.11 M45.97 251.97 C116.21 171.16, 186.45 90.36, 265.1 -0.11 M50.96 252.33 C111.64 182.52, 172.32 112.72, 270.08 0.25 M50.96 252.33 C106.28 188.69, 161.6 125.05, 270.08 0.25 M56.6 251.93 C142.5 153.11, 228.4 54.3, 275.73 -0.14 M56.6 251.93 C110.88 189.5, 165.15 127.06, 275.73 -0.14 M61.59 252.29 C128.83 174.94, 196.06 97.6, 280.71 0.22 M61.59 252.29 C141.04 160.89, 220.5 69.49, 280.71 0.22 M67.23 251.9 C115.02 196.93, 162.8 141.96, 286.36 -0.18 M67.23 251.9 C116.33 195.42, 165.42 138.94, 286.36 -0.18 M72.22 252.26 C154.12 158.05, 236.01 63.83, 291.34 0.18 M72.22 252.26 C123.86 192.85, 175.5 133.44, 291.34 0.18 M77.86 251.86 C158.29 159.35, 238.71 66.83, 296.99 -0.21 M77.86 251.86 C162.03 155.04, 246.19 58.22, 296.99 -0.21 M82.85 252.22 C133.23 194.27, 183.61 136.31, 301.97 0.15 M82.85 252.22 C136.57 190.42, 190.3 128.62, 301.97 0.15 M87.84 252.58 C159.72 169.88, 231.61 87.19, 307.62 -0.25 M87.84 252.58 C173.62 153.89, 259.41 55.21, 307.62 -0.25 M93.48 252.19 C148.16 189.28, 202.84 126.38, 312.6 0.11 M93.48 252.19 C179.53 153.2, 265.58 54.2, 312.6 0.11 M98.47 252.55 C166.25 174.58, 234.03 96.6, 318.25 -0.28 M98.47 252.55 C149.78 193.52, 201.09 134.49, 318.25 -0.28 M104.11 252.15 C154.21 194.52, 204.32 136.88, 323.23 0.08 M104.11 252.15 C171.6 174.51, 239.1 96.87, 323.23 0.08 M109.1 252.51 C162.49 191.1, 215.87 129.68, 328.88 -0.31 M109.1 252.51 C160.15 193.79, 211.2 135.06, 328.88 -0.31 M114.74 252.12 C199.14 155.03, 283.54 57.93, 333.86 0.05 M114.74 252.12 C169.29 189.37, 223.84 126.61, 333.86 0.05 M119.73 252.48 C204.24 155.26, 288.74 58.05, 339.51 -0.35 M119.73 252.48 C171.09 193.39, 222.45 134.31, 339.51 -0.35 M125.37 252.08 C204.01 161.61, 282.66 71.15, 344.49 0.01 M125.37 252.08 C191.43 176.09, 257.5 100.09, 344.49 0.01 M130.36 252.44 C198.05 174.57, 265.74 96.71, 349.48 0.37 M130.36 252.44 C176.98 198.81, 223.6 145.18, 349.48 0.37 M136 252.05 C182.35 198.74, 228.69 145.42, 355.12 -0.02 M136 252.05 C219.22 156.32, 302.43 60.59, 355.12 -0.02 M140.99 252.41 C209.73 173.33, 278.48 94.24, 360.11 0.34 M140.99 252.41 C200.74 183.67, 260.49 114.94, 360.11 0.34 M146.63 252.01 C196.27 194.91, 245.9 137.81, 365.75 -0.06 M146.63 252.01 C196.15 195.05, 245.67 138.08, 365.75 -0.06 M151.62 252.38 C199.48 197.31, 247.35 142.25, 370.74 0.3 M151.62 252.38 C205.24 190.69, 258.86 129, 370.74 0.3 M157.26 251.98 C225.05 173.99, 292.85 96, 376.38 -0.09 M157.26 251.98 C203.4 198.9, 249.54 145.83, 376.38 -0.09 M162.25 252.34 C242.1 160.49, 321.94 68.63, 381.37 0.27 M162.25 252.34 C225.42 179.67, 288.59 107, 381.37 0.27 M167.89 251.95 C252.78 154.3, 337.66 56.65, 387.01 -0.13 M167.89 251.95 C240.62 168.27, 313.36 84.6, 387.01 -0.13 M172.88 252.31 C219.96 198.15, 267.03 143.99, 392 0.23 M172.88 252.31 C236.64 178.96, 300.4 105.61, 392 0.23 M178.52 251.91 C224.47 199.06, 270.41 146.2, 397.64 -0.16 M178.52 251.91 C226.01 197.28, 273.5 142.65, 397.64 -0.16 M183.51 252.27 C261.27 162.81, 339.04 73.36, 402.63 0.2 M183.51 252.27 C242.33 184.6, 301.15 116.94, 402.63 0.2 M189.15 251.88 C265.26 164.32, 341.37 76.77, 408.27 -0.2 M189.15 251.88 C259.2 171.29, 329.25 90.71, 408.27 -0.2 M194.14 252.24 C258.01 178.76, 321.89 105.28, 413.26 0.16 M194.14 252.24 C274 160.36, 353.87 68.49, 413.26 0.16 M199.78 251.84 C285.95 152.71, 372.12 53.59, 418.9 -0.23 M199.78 251.84 C270.7 170.26, 341.62 88.67, 418.9 -0.23 M204.77 252.2 C260.33 188.29, 315.89 124.38, 423.89 0.13 M204.77 252.2 C259.77 188.93, 314.77 125.65, 423.89 0.13 M209.75 252.56 C289.37 160.98, 368.98 69.4, 429.53 -0.26 M209.75 252.56 C284.4 166.69, 359.04 80.82, 429.53 -0.26 M215.4 252.17 C301.24 153.41, 387.09 54.66, 434.52 0.1 M215.4 252.17 C287.29 169.46, 359.18 86.76, 434.52 0.1 M220.38 252.53 C284.33 178.97, 348.28 105.41, 440.16 -0.3 M220.38 252.53 C287.8 174.98, 355.21 97.43, 440.16 -0.3 M226.03 252.13 C309.02 156.66, 392.01 61.19, 445.15 0.06 M226.03 252.13 C297 170.49, 367.97 88.84, 445.15 0.06 M231.01 252.49 C283.31 192.33, 335.61 132.17, 450.79 -0.33 M231.01 252.49 C317.21 153.34, 403.4 54.18, 450.79 -0.33 M236.66 252.1 C282.45 199.42, 328.25 146.74, 455.78 0.03 M236.66 252.1 C301.24 177.81, 365.82 103.52, 455.78 0.03 M241.65 252.46 C303.99 180.74, 366.33 109.03, 461.42 -0.37 M241.65 252.46 C327.66 153.51, 413.67 54.57, 461.42 -0.37 M247.29 252.06 C334.68 151.53, 422.08 50.99, 466.41 -0.01 M247.29 252.06 C296.59 195.35, 345.88 138.64, 466.41 -0.01 M252.28 252.42 C324.23 169.65, 396.18 86.88, 470.09 1.86 M252.28 252.42 C323.66 170.31, 395.04 88.2, 470.09 1.86 M257.92 252.03 C339.83 157.8, 421.74 63.58, 469.83 8.26 M257.92 252.03 C306.07 196.64, 354.22 141.25, 469.83 8.26 M262.91 252.39 C325.36 180.55, 387.81 108.71, 469.56 14.66 M262.91 252.39 C315.17 192.27, 367.43 132.14, 469.56 14.66 M268.55 252 C335.45 175.03, 402.36 98.06, 469.96 20.3 M268.55 252 C337.46 172.72, 406.37 93.45, 469.96 20.3 M273.54 252.36 C341.26 174.44, 408.99 96.53, 469.7 26.7 M273.54 252.36 C321.92 196.7, 370.3 141.05, 469.7 26.7 M279.18 251.96 C339.85 182.17, 400.51 112.38, 470.09 32.34 M279.18 251.96 C343.81 177.61, 408.44 103.26, 470.09 32.34 M284.17 252.32 C326.4 203.74, 368.63 155.16, 469.83 38.74 M284.17 252.32 C324.41 206.02, 364.66 159.72, 469.83 38.74 M289.81 251.93 C352.21 180.14, 414.62 108.35, 469.57 45.14 M289.81 251.93 C346.13 187.14, 402.45 122.35, 469.57 45.14 M294.8 252.29 C354.1 184.06, 413.41 115.84, 469.96 50.78 M294.8 252.29 C347.23 191.97, 399.66 131.66, 469.96 50.78 M300.44 251.89 C359.01 184.51, 417.59 117.13, 469.7 57.18 M300.44 251.89 C349.78 195.13, 399.12 138.37, 469.7 57.18 M305.43 252.25 C353.23 197.26, 401.03 142.28, 470.1 62.82 M305.43 252.25 C347.97 203.31, 390.51 154.37, 470.1 62.82 M311.07 251.86 C368.55 185.73, 426.04 119.6, 469.83 69.22 M311.07 251.86 C347 210.52, 382.94 169.18, 469.83 69.22 M316.06 252.22 C364.59 196.39, 413.12 140.56, 469.57 75.62 M316.06 252.22 C359.99 201.68, 403.91 151.15, 469.57 75.62 M321.04 252.58 C375.36 190.09, 429.68 127.61, 469.97 81.26 M321.04 252.58 C380.47 184.21, 439.9 115.84, 469.97 81.26 M326.69 252.18 C365.52 207.51, 404.36 162.83, 469.71 87.66 M326.69 252.18 C355.73 218.78, 384.77 185.37, 469.71 87.66 M331.67 252.54 C365.64 213.47, 399.6 174.4, 470.1 93.3 M331.67 252.54 C362.01 217.65, 392.34 182.76, 470.1 93.3 M337.32 252.15 C368.3 216.51, 399.28 180.86, 469.84 99.7 M337.32 252.15 C371.45 212.89, 405.58 173.62, 469.84 99.7 M342.3 252.51 C369.94 220.71, 397.58 188.92, 469.58 106.1 M342.3 252.51 C370.82 219.7, 399.34 186.9, 469.58 106.1 M347.95 252.11 C384.81 209.71, 421.67 167.3, 469.97 111.74 M347.95 252.11 C387.76 206.32, 427.56 160.52, 469.97 111.74 M352.93 252.47 C378.08 223.55, 403.22 194.63, 469.71 118.14 M352.93 252.47 C385.58 214.92, 418.23 177.36, 469.71 118.14 M358.58 252.08 C402.9 201.09, 447.23 150.1, 470.11 123.78 M358.58 252.08 C393.58 211.81, 428.59 171.54, 470.11 123.78 M363.56 252.44 C395.1 216.16, 426.64 179.88, 469.84 130.18 M363.56 252.44 C403.89 206.05, 444.22 159.66, 469.84 130.18 M369.21 252.05 C395.58 221.7, 421.96 191.36, 469.58 136.57 M369.21 252.05 C404.67 211.25, 440.13 170.45, 469.58 136.57 M374.19 252.41 C397.21 225.93, 420.23 199.45, 469.98 142.22 M374.19 252.41 C397.71 225.35, 421.24 198.29, 469.98 142.22 M379.84 252.01 C403.47 224.83, 427.1 197.65, 469.72 148.62 M379.84 252.01 C398.31 230.76, 416.78 209.51, 469.72 148.62 M384.82 252.37 C414.4 218.35, 443.97 184.33, 470.11 154.26 M384.82 252.37 C412.8 220.19, 440.78 188, 470.11 154.26 M390.47 251.98 C420.99 216.87, 451.51 181.76, 469.85 160.66 M390.47 251.98 C411.08 228.27, 431.69 204.55, 469.85 160.66 M395.45 252.34 C413.15 231.98, 430.85 211.62, 469.59 167.05 M395.45 252.34 C410.65 234.85, 425.85 217.37, 469.59 167.05 M401.1 251.94 C417.36 233.24, 433.62 214.53, 469.98 172.7 M401.1 251.94 C424.03 225.56, 446.96 199.18, 469.98 172.7 M406.08 252.3 C422.67 233.22, 439.26 214.14, 469.72 179.1 M406.08 252.3 C430.44 224.28, 454.8 196.26, 469.72 179.1 M411.73 251.91 C426.21 235.25, 440.69 218.58, 470.12 184.74 M411.73 251.91 C427.53 233.73, 443.33 215.55, 470.12 184.74 M416.71 252.27 C431.53 235.22, 446.36 218.17, 469.85 191.14 M416.71 252.27 C432.43 234.19, 448.15 216.11, 469.85 191.14 M422.36 251.87 C435.24 237.05, 448.12 222.23, 469.59 197.53 M422.36 251.87 C438.72 233.05, 455.08 214.23, 469.59 197.53 M427.34 252.23 C439.36 238.41, 451.37 224.59, 469.99 203.18 M427.34 252.23 C440.41 237.2, 453.48 222.16, 469.99 203.18 M432.99 251.84 C447.11 235.59, 461.23 219.35, 469.73 209.57 M432.99 251.84 C442.6 240.78, 452.22 229.72, 469.73 209.57 M437.97 252.2 C450.16 238.17, 462.36 224.15, 470.12 215.22 M437.97 252.2 C447.8 240.89, 457.63 229.59, 470.12 215.22 M442.96 252.56 C450.46 243.93, 457.96 235.3, 469.86 221.62 M442.96 252.56 C452.28 241.84, 461.6 231.12, 469.86 221.62 M448.6 252.16 C452.87 247.25, 457.14 242.34, 469.6 228.01 M448.6 252.16 C455.16 244.62, 461.71 237.09, 469.6 228.01 M453.59 252.52 C458.09 247.35, 462.59 242.18, 469.99 233.66 M453.59 252.52 C459.47 245.76, 465.34 239.01, 469.99 233.66 M459.23 252.13 C462.47 248.41, 465.7 244.69, 469.73 240.05 M459.23 252.13 C462.1 248.84, 464.96 245.54, 469.73 240.05 M464.22 252.49 C466.05 250.38, 467.88 248.28, 470.13 245.7 M464.22 252.49 C465.89 250.57, 467.57 248.64, 470.13 245.7 M-0.04 251.55 C-0.04 251.55, -0.04 251.55, -0.04 251.55 M-0.04 251.55 C-0.04 251.55, -0.04 251.55, -0.04 251.55 M6.35 251.81 C4.25 249.98, 2.15 248.15, 0.32 246.56 M6.35 251.81 C4.33 250.05, 2.3 248.29, 0.32 246.56 M12 251.42 C7.36 247.39, 2.73 243.36, -0.08 240.92 M12 251.42 C8.56 248.43, 5.12 245.44, -0.08 240.92 M18.4 251.68 C11.64 245.81, 4.89 239.94, 0.28 235.93 M18.4 251.68 C11.92 246.05, 5.45 240.42, 0.28 235.93 M24.04 251.28 C17.48 245.58, 10.91 239.87, -0.11 230.29 M24.04 251.28 C17.5 245.6, 10.96 239.91, -0.11 230.29 M30.44 251.55 C18.72 241.36, 7 231.17, 0.25 225.3 M30.44 251.55 C23.82 245.79, 17.2 240.04, 0.25 225.3 M36.83 251.81 C26.68 242.98, 16.53 234.16, -0.15 219.66 M36.83 251.81 C26.49 242.81, 16.14 233.82, -0.15 219.66 M42.48 251.41 C33.09 243.25, 23.69 235.09, 0.21 214.67 M42.48 251.41 C33.21 243.36, 23.94 235.3, 0.21 214.67 M48.88 251.67 C31.45 236.53, 14.02 221.38, -0.18 209.03 M48.88 251.67 C34.18 238.9, 19.49 226.13, -0.18 209.03 M54.52 251.28 C36.91 235.98, 19.31 220.67, 0.18 204.04 M54.52 251.28 C39.07 237.85, 23.61 224.41, 0.18 204.04 M60.92 251.54 C36.53 230.34, 12.14 209.14, -0.22 198.4 M60.92 251.54 C45.9 238.49, 30.89 225.44, -0.22 198.4 M67.31 251.8 C42.83 230.52, 18.34 209.23, 0.14 193.41 M67.31 251.8 C42.52 230.25, 17.72 208.69, 0.14 193.41 M72.96 251.41 C57.39 237.87, 41.82 224.34, -0.25 187.77 M72.96 251.41 C46.47 228.39, 19.99 205.37, -0.25 187.77 M79.35 251.67 C60.59 235.36, 41.83 219.05, 0.11 182.78 M79.35 251.67 C59.02 233.99, 38.69 216.32, 0.11 182.78 M85 251.28 C57.26 227.16, 29.51 203.04, -0.28 177.14 M85 251.28 C66.24 234.97, 47.48 218.66, -0.28 177.14 M91.4 251.54 C68.06 231.25, 44.72 210.96, 0.08 172.15 M91.4 251.54 C58.74 223.15, 26.09 194.77, 0.08 172.15 M97.79 251.8 C59.77 218.75, 21.75 185.7, -0.32 166.51 M97.79 251.8 C66.36 224.48, 34.94 197.16, -0.32 166.51 M103.44 251.4 C66.47 219.27, 29.51 187.14, 0.04 161.52 M103.44 251.4 C71.26 223.43, 39.08 195.46, 0.04 161.52 M109.83 251.67 C68.85 216.04, 27.87 180.41, -0.35 155.88 M109.83 251.67 C77.77 223.79, 45.71 195.92, -0.35 155.88 M115.48 251.27 C80.7 221.04, 45.93 190.81, 0.01 150.89 M115.48 251.27 C71.05 212.65, 26.62 174.03, 0.01 150.89 M121.88 251.53 C76.55 212.13, 31.22 172.72, 0.37 145.91 M121.88 251.53 C86.86 221.09, 51.84 190.65, 0.37 145.91 M128.27 251.79 C94.02 222.02, 59.78 192.25, -0.03 140.26 M128.27 251.79 C93.17 221.28, 58.07 190.76, -0.03 140.26 M133.92 251.4 C106.24 227.34, 78.55 203.27, 0.33 135.28 M133.92 251.4 C80.96 205.37, 28.01 159.34, 0.33 135.28 M140.31 251.66 C104.21 220.28, 68.12 188.9, -0.06 129.63 M140.31 251.66 C98.03 214.91, 55.75 178.15, -0.06 129.63 M145.96 251.27 C114.98 224.34, 84 197.41, 0.3 124.65 M145.96 251.27 C112.72 222.38, 79.49 193.49, 0.3 124.65 M152.35 251.53 C107.23 212.3, 62.11 173.08, -0.1 119 M152.35 251.53 C118.94 222.48, 85.53 193.43, -0.1 119 M158.75 251.79 C119.21 217.41, 79.67 183.04, 0.26 114.02 M158.75 251.79 C107.38 207.13, 56 162.47, 0.26 114.02 M164.4 251.39 C126.64 218.58, 88.89 185.76, -0.13 108.37 M164.4 251.39 C130.29 221.75, 96.19 192.11, -0.13 108.37 M170.79 251.66 C119.67 207.22, 68.55 162.78, 0.23 103.39 M170.79 251.66 C110.55 199.29, 50.31 146.92, 0.23 103.39 M176.44 251.26 C118.95 201.29, 61.47 151.32, -0.17 97.74 M176.44 251.26 C128.16 209.3, 79.89 167.34, -0.17 97.74 M182.83 251.52 C134.04 209.11, 85.25 166.7, 0.19 92.76 M182.83 251.52 C125.82 201.96, 68.81 152.4, 0.19 92.76 M189.23 251.78 C137.35 206.68, 85.47 161.58, -0.2 87.11 M189.23 251.78 C141.24 210.06, 93.24 168.34, -0.2 87.11 M194.87 251.39 C121.36 187.49, 47.85 123.58, 0.16 82.13 M194.87 251.39 C131.37 196.19, 67.87 140.98, 0.16 82.13 M201.27 251.65 C123.43 183.98, 45.58 116.31, -0.23 76.48 M201.27 251.65 C158.66 214.61, 116.05 177.57, -0.23 76.48 M207.67 251.91 C129.11 183.62, 50.55 115.33, 0.13 71.5 M207.67 251.91 C156.14 207.12, 104.61 162.32, 0.13 71.5 M213.31 251.52 C128.67 177.94, 44.02 104.35, -0.27 65.85 M213.31 251.52 C162.08 206.98, 110.85 162.45, -0.27 65.85 M219.71 251.78 C145.14 186.96, 70.58 122.14, 0.09 60.87 M219.71 251.78 C162.63 202.16, 105.55 152.54, 0.09 60.87 M225.35 251.38 C166.84 200.52, 108.32 149.65, -0.3 55.22 M225.35 251.38 C166.93 200.59, 108.5 149.8, -0.3 55.22 M231.75 251.65 C173.37 200.9, 115 150.15, 0.06 50.24 M231.75 251.65 C169.1 197.18, 106.44 142.71, 0.06 50.24 M238.15 251.91 C154.06 178.81, 69.96 105.7, -0.34 44.59 M238.15 251.91 C186.36 206.89, 134.57 161.87, -0.34 44.59 M243.79 251.51 C187.96 202.98, 132.13 154.45, 0.02 39.61 M243.79 251.51 C166.42 184.26, 89.05 117, 0.02 39.61 M250.19 251.77 C181.2 191.8, 112.2 131.82, -0.37 33.96 M250.19 251.77 C177.24 188.36, 104.29 124.94, -0.37 33.96 M255.83 251.38 C177.58 183.36, 99.33 115.33, -0.01 28.98 M255.83 251.38 C162.07 169.88, 68.32 88.37, -0.01 28.98 M262.23 251.64 C197.12 195.04, 132.01 138.44, 0.35 23.99 M262.23 251.64 C187.43 186.61, 112.62 121.59, 0.35 23.99 M268.63 251.9 C204.31 195.99, 139.99 140.07, -0.05 18.35 M268.63 251.9 C184.95 179.16, 101.26 106.41, -0.05 18.35 M274.27 251.51 C187.89 176.42, 101.51 101.33, 0.31 13.36 M274.27 251.51 C210.3 195.9, 146.33 140.29, 0.31 13.36 M280.67 251.77 C194.05 176.47, 107.42 101.17, -0.08 7.72 M280.67 251.77 C175.58 160.42, 70.5 69.07, -0.08 7.72 M286.31 251.37 C189 166.78, 91.69 82.19, 0.28 2.73 M286.31 251.37 C173.13 152.98, 59.94 54.59, 0.28 2.73 M292.71 251.64 C201.71 172.53, 110.71 93.42, 2.9 -0.29 M292.71 251.64 C204.31 174.79, 115.91 97.94, 2.9 -0.29 M299.11 251.9 C238.25 198.99, 177.39 146.09, 9.3 -0.03 M299.11 251.9 C223.36 186.05, 147.61 120.2, 9.3 -0.03 M304.75 251.5 C195.38 156.42, 86 61.34, 15.7 0.23 M304.75 251.5 C194.38 155.56, 84.02 59.62, 15.7 0.23 M311.15 251.76 C243.56 193.01, 175.96 134.25, 21.34 -0.16 M311.15 251.76 C210.37 164.16, 109.59 76.55, 21.34 -0.16 M316.79 251.37 C216.72 164.38, 116.65 77.39, 27.74 0.1 M316.79 251.37 C255.81 198.36, 194.82 145.34, 27.74 0.1 M323.19 251.63 C224.56 165.9, 125.94 80.16, 33.38 -0.3 M323.19 251.63 C265.18 201.2, 207.17 150.78, 33.38 -0.3 M329.59 251.89 C218.37 155.21, 107.15 58.53, 39.78 -0.03 M329.59 251.89 C234.84 169.53, 140.1 87.17, 39.78 -0.03 M335.23 251.5 C253.27 180.25, 171.3 109, 46.18 0.23 M335.23 251.5 C221.88 152.96, 108.53 54.43, 46.18 0.23 M341.63 251.76 C231.69 156.19, 121.76 60.63, 51.82 -0.17 M341.63 251.76 C227.97 152.95, 114.3 54.15, 51.82 -0.17 M347.27 251.36 C278.73 191.79, 210.19 132.21, 58.22 0.09 M347.27 251.36 C253.25 169.63, 159.23 87.9, 58.22 0.09 M353.67 251.63 C254.26 165.21, 154.85 78.8, 63.86 -0.3 M353.67 251.63 C238.47 151.49, 123.28 51.35, 63.86 -0.3 M360.07 251.89 C245 151.86, 129.94 51.84, 70.26 -0.04 M360.07 251.89 C293.62 194.12, 227.17 136.36, 70.26 -0.04 M365.71 251.49 C305.94 199.53, 246.17 147.57, 76.66 0.22 M365.71 251.49 C290.1 185.76, 214.49 120.03, 76.66 0.22 M372.11 251.75 C261.62 155.71, 151.13 59.66, 82.3 -0.17 M372.11 251.75 C267.18 160.54, 162.25 69.33, 82.3 -0.17 M377.75 251.36 C312.86 194.95, 247.96 138.54, 88.7 0.09 M377.75 251.36 C310.86 193.21, 243.97 135.06, 88.7 0.09 M384.15 251.62 C317.63 193.8, 251.11 135.97, 94.34 -0.31 M384.15 251.62 C323.41 198.82, 262.67 146.02, 94.34 -0.31 M390.55 251.88 C282.77 158.19, 174.99 64.5, 100.74 -0.04 M390.55 251.88 C308.81 180.83, 227.08 109.78, 100.74 -0.04 M396.19 251.49 C337.35 200.34, 278.51 149.19, 107.14 0.22 M396.19 251.49 C313.53 179.64, 230.88 107.79, 107.14 0.22 M402.59 251.75 C302.14 164.43, 201.7 77.12, 112.78 -0.18 M402.59 251.75 C310.84 171.99, 219.09 92.24, 112.78 -0.18 M408.23 251.36 C296.4 154.14, 184.56 56.92, 119.18 0.08 M408.23 251.36 C311.86 167.58, 215.48 83.8, 119.18 0.08 M414.63 251.62 C307.97 158.9, 201.3 66.18, 124.82 -0.31 M414.63 251.62 C308.44 159.31, 202.25 67, 124.82 -0.31 M421.03 251.88 C338.45 180.09, 255.87 108.31, 131.22 -0.05 M421.03 251.88 C327.62 170.68, 234.21 89.48, 131.22 -0.05 M426.67 251.48 C317.51 156.6, 208.36 61.71, 137.62 0.21 M426.67 251.48 C313.68 153.26, 200.69 55.04, 137.62 0.21 M433.07 251.74 C367.86 195.06, 302.65 138.38, 143.26 -0.18 M433.07 251.74 C360.28 188.47, 287.49 125.2, 143.26 -0.18 M438.71 251.35 C369.75 191.4, 300.79 131.46, 149.66 0.08 M438.71 251.35 C358.46 181.59, 278.22 111.84, 149.66 0.08 M445.11 251.61 C341.87 161.87, 238.63 72.12, 155.3 -0.31 M445.11 251.61 C344.68 164.31, 244.24 77, 155.3 -0.31 M451.51 251.87 C354.13 167.23, 256.76 82.58, 161.7 -0.05 M451.51 251.87 C381.3 190.85, 311.1 129.82, 161.7 -0.05 M457.15 251.48 C384.97 188.74, 312.8 125.99, 168.1 0.21 M457.15 251.48 C381.06 185.34, 304.98 119.2, 168.1 0.21 M463.55 251.74 C354.33 156.8, 245.12 61.86, 173.74 -0.19 M463.55 251.74 C397.31 194.16, 331.07 136.58, 173.74 -0.19 M469.19 251.35 C382.96 176.39, 296.74 101.43, 180.14 0.07 M469.19 251.35 C387.09 179.97, 304.98 108.6, 180.14 0.07 M469.55 246.36 C358.87 150.15, 248.2 53.94, 185.78 -0.32 M469.55 246.36 C382.01 170.26, 294.46 94.16, 185.78 -0.32 M469.16 240.72 C381.4 164.43, 293.63 88.14, 192.18 -0.06 M469.16 240.72 C380.52 163.67, 291.89 86.62, 192.18 -0.06 M469.52 235.73 C381.13 158.89, 292.73 82.05, 198.58 0.2 M469.52 235.73 C393.08 169.28, 316.64 102.84, 198.58 0.2 M469.12 230.09 C378.52 151.33, 287.93 72.57, 204.22 -0.19 M469.12 230.09 C386.95 158.66, 304.78 87.23, 204.22 -0.19 M469.48 225.1 C402.67 167.02, 335.86 108.94, 210.62 0.07 M469.48 225.1 C397.63 162.64, 325.78 100.18, 210.62 0.07 M469.09 219.46 C410.35 168.4, 351.62 117.34, 216.26 -0.32 M469.09 219.46 C412.99 170.69, 356.9 121.93, 216.26 -0.32 M469.45 214.47 C375.65 132.93, 281.85 51.39, 222.66 -0.06 M469.45 214.47 C382.78 139.13, 296.12 63.79, 222.66 -0.06 M469.05 208.83 C404.69 152.87, 340.32 96.92, 229.05 0.2 M469.05 208.83 C408.96 156.59, 348.87 104.36, 229.05 0.2 M469.41 203.84 C420.46 161.29, 371.51 118.73, 234.7 -0.2 M469.41 203.84 C401.97 145.21, 334.53 86.58, 234.7 -0.2 M469.02 198.2 C388.8 128.46, 308.58 58.73, 241.1 0.07 M469.02 198.2 C419.05 154.76, 369.09 111.33, 241.1 0.07 M469.38 193.21 C384.38 119.32, 299.39 45.44, 246.74 -0.33 M469.38 193.21 C380.63 116.06, 291.88 38.91, 246.74 -0.33 M468.98 187.57 C424.14 148.59, 379.3 109.61, 253.14 -0.07 M468.98 187.57 C386.96 116.27, 304.94 44.97, 253.14 -0.07 M469.34 182.58 C414.84 135.2, 360.34 87.82, 259.53 0.19 M469.34 182.58 C401.01 123.17, 332.67 63.77, 259.53 0.19 M468.95 176.93 C391.19 109.34, 313.43 41.74, 265.18 -0.2 M468.95 176.93 C425.66 139.3, 382.37 101.67, 265.18 -0.2 M469.31 171.95 C405.12 116.15, 340.94 60.36, 271.58 0.06 M469.31 171.95 C422.37 131.15, 375.44 90.35, 271.58 0.06 M469.67 166.96 C423.19 126.56, 376.72 86.16, 277.22 -0.33 M469.67 166.96 C426.48 129.41, 383.29 91.87, 277.22 -0.33 M469.27 161.32 C398.7 99.97, 328.13 38.63, 283.62 -0.07 M469.27 161.32 C426.47 124.11, 383.67 86.9, 283.62 -0.07 M469.63 156.33 C401.89 97.44, 334.14 38.55, 290.01 0.19 M469.63 156.33 C406.42 101.38, 343.2 46.43, 290.01 0.19 M469.24 150.69 C408.14 97.57, 347.04 44.46, 295.66 -0.21 M469.24 150.69 C411.91 100.85, 354.57 51.01, 295.66 -0.21 M469.6 145.7 C436.04 116.53, 402.48 87.35, 302.05 0.06 M469.6 145.7 C409.44 93.4, 349.28 41.1, 302.05 0.06 M469.21 140.06 C422.71 99.64, 376.21 59.21, 307.7 -0.34 M469.21 140.06 C422.41 99.37, 375.6 58.69, 307.7 -0.34 M469.57 135.07 C416.01 88.52, 362.45 41.96, 314.1 -0.08 M469.57 135.07 C432.55 102.89, 395.53 70.71, 314.1 -0.08 M469.17 129.43 C416.05 83.25, 362.92 37.07, 320.49 0.18 M469.17 129.43 C411.14 78.99, 353.12 28.54, 320.49 0.18 M469.53 124.44 C431.52 91.4, 393.51 58.36, 326.14 -0.21 M469.53 124.44 C439.51 98.35, 409.5 72.25, 326.14 -0.21 M469.14 118.8 C434.77 88.93, 400.41 59.06, 332.53 0.05 M469.14 118.8 C436.18 90.15, 403.22 61.5, 332.53 0.05 M469.5 113.81 C438.06 86.48, 406.62 59.16, 338.18 -0.34 M469.5 113.81 C427.3 77.13, 385.11 40.46, 338.18 -0.34 M469.1 108.17 C421.3 66.61, 373.5 25.06, 344.57 -0.08 M469.1 108.17 C421.75 67.01, 374.4 25.85, 344.57 -0.08 M469.46 103.18 C426.02 65.42, 382.58 27.66, 350.97 0.18 M469.46 103.18 C439.77 77.37, 410.08 51.56, 350.97 0.18 M469.07 97.54 C436.53 69.25, 403.99 40.96, 356.62 -0.22 M469.07 97.54 C438.38 70.86, 407.69 44.19, 356.62 -0.22 M469.43 92.55 C430.29 58.53, 391.16 24.51, 363.01 0.05 M469.43 92.55 C437.3 64.62, 405.17 36.69, 363.01 0.05 M469.03 86.91 C446.44 67.27, 423.85 47.63, 368.66 -0.35 M469.03 86.91 C437.61 59.59, 406.19 32.28, 368.66 -0.35 M469.39 81.92 C433 50.28, 396.6 18.64, 375.05 -0.09 M469.39 81.92 C449.75 64.84, 430.11 47.77, 375.05 -0.09 M469 76.28 C436.63 48.14, 404.26 20, 381.45 0.17 M469 76.28 C449.51 59.34, 430.03 42.4, 381.45 0.17 M469.36 71.29 C437.65 43.72, 405.94 16.16, 387.1 -0.22 M469.36 71.29 C442.18 47.66, 415 24.03, 387.1 -0.22 M468.96 65.65 C452.04 50.94, 435.12 36.23, 393.49 0.04 M468.96 65.65 C449.98 49.14, 430.99 32.64, 393.49 0.04 M469.32 60.66 C444.51 39.09, 419.7 17.52, 399.14 -0.35 M469.32 60.66 C451.24 44.94, 433.16 29.22, 399.14 -0.35 M469.68 55.67 C456.15 43.9, 442.61 32.14, 405.53 -0.09 M469.68 55.67 C445.42 34.58, 421.16 13.49, 405.53 -0.09 M469.29 50.03 C452.18 35.15, 435.06 20.27, 411.93 0.17 M469.29 50.03 C457.41 39.7, 445.53 29.38, 411.93 0.17 M469.65 45.04 C455.34 32.61, 441.04 20.17, 417.57 -0.23 M469.65 45.04 C453.57 31.07, 437.49 17.09, 417.57 -0.23 M469.26 39.4 C457.91 29.54, 446.56 19.67, 423.97 0.04 M469.26 39.4 C459.1 30.57, 448.95 21.75, 423.97 0.04 M469.62 34.41 C458.35 24.62, 447.09 14.83, 429.62 -0.36 M469.62 34.41 C458.51 24.76, 447.4 15.11, 429.62 -0.36 M469.22 28.77 C460.51 21.2, 451.8 13.62, 436.01 -0.1 M469.22 28.77 C456.52 17.73, 443.82 6.69, 436.01 -0.1 M469.58 23.78 C463.61 18.59, 457.63 13.39, 442.41 0.16 M469.58 23.78 C462.86 17.94, 456.14 12.09, 442.41 0.16 M469.19 18.14 C464.79 14.32, 460.4 10.5, 448.05 -0.23 M469.19 18.14 C461.09 11.1, 452.98 4.06, 448.05 -0.23 M469.55 13.15 C463.51 7.91, 457.48 2.66, 454.45 0.03 M469.55 13.15 C464.89 9.1, 460.22 5.05, 454.45 0.03 M469.15 7.51 C465.68 4.49, 462.21 1.48, 460.1 -0.36 M469.15 7.51 C465.92 4.7, 462.69 1.89, 460.1 -0.36 M469.51 2.52 C468.75 1.86, 467.98 1.19, 466.49 -0.1 M469.51 2.52 C468.66 1.79, 467.82 1.05, 466.49 -0.1" stroke="#d0bfff" stroke-width="0.5" fill="none"></path><path d="M0 0 C155.09 0, 310.19 0, 469.21 0 M0 0 C178.65 0, 357.3 0, 469.21 0 M469.21 0 C469.21 62, 469.21 123.99, 469.21 251.59 M469.21 0 C469.21 79.04, 469.21 158.08, 469.21 251.59 M469.21 251.59 C316.51 251.59, 163.81 251.59, 0 251.59 M469.21 251.59 C365.08 251.59, 260.95 251.59, 0 251.59 M0 251.59 C0 172.57, 0 93.54, 0 0 M0 251.59 C0 192.67, 0 133.76, 0 0" stroke="#d0bfff" stroke-width="1" fill="none"></path></g><g stroke-linecap="round" transform="translate(15.935924180041866 269.61692796460335) rotate(0 110.34823227338872 35.338553600637454)"><path d="M0 0 C0 0, 0 0, 0 0 M0 0 C0 0, 0 0, 0 0 M-0.26 6.4 C1.77 4.06, 3.8 1.73, 4.99 0.36 M-0.26 6.4 C1.65 4.2, 3.56 2, 4.99 0.36 M0.13 12.04 C4.19 7.37, 8.26 2.7, 10.63 -0.03 M0.13 12.04 C2.91 8.85, 5.69 5.65, 10.63 -0.03 M-0.13 18.44 C5.03 12.5, 10.2 6.56, 15.62 0.33 M-0.13 18.44 C5.43 12.04, 11 5.64, 15.62 0.33 M0.27 24.08 C4.84 18.82, 9.41 13.57, 21.26 -0.07 M0.27 24.08 C6.79 16.58, 13.31 9.08, 21.26 -0.07 M0 30.48 C8.79 20.38, 17.57 10.27, 26.25 0.29 M0 30.48 C7.24 22.15, 14.48 13.83, 26.25 0.29 M-0.26 36.88 C10.06 25, 20.39 13.13, 31.89 -0.1 M-0.26 36.88 C7.84 27.56, 15.94 18.24, 31.89 -0.1 M0.14 42.52 C10.3 30.83, 20.46 19.14, 36.88 0.26 M0.14 42.52 C11.63 29.3, 23.12 16.08, 36.88 0.26 M-0.12 48.92 C10.64 36.54, 21.41 24.15, 42.52 -0.14 M-0.12 48.92 C8.78 38.67, 17.69 28.42, 42.52 -0.14 M0.27 54.56 C16.56 35.82, 32.85 17.08, 47.51 0.22 M0.27 54.56 C17.92 34.25, 35.58 13.95, 47.51 0.22 M0.01 60.96 C20.69 37.17, 41.36 13.39, 53.15 -0.17 M0.01 60.96 C17.55 40.79, 35.08 20.61, 53.15 -0.17 M-0.25 67.36 C14.51 50.38, 29.27 33.4, 58.14 0.19 M-0.25 67.36 C17.03 47.47, 34.32 27.59, 58.14 0.19 M2.11 70.74 C22.47 47.31, 42.84 23.89, 63.78 -0.21 M2.11 70.74 C26.28 42.93, 50.45 15.13, 63.78 -0.21 M7.1 71.1 C21.62 54.39, 36.14 37.68, 68.77 0.15 M7.1 71.1 C22.24 53.68, 37.38 36.26, 68.77 0.15 M12.09 71.46 C30.58 50.18, 49.08 28.9, 74.41 -0.24 M12.09 71.46 C36.97 42.83, 61.85 14.2, 74.41 -0.24 M17.73 71.06 C33.14 53.33, 48.55 35.6, 79.4 0.12 M17.73 71.06 C37.21 48.65, 56.69 26.24, 79.4 0.12 M22.72 71.42 C43.4 47.63, 64.08 23.84, 85.04 -0.28 M22.72 71.42 C46.71 43.82, 70.71 16.21, 85.04 -0.28 M28.36 71.03 C51.48 44.43, 74.6 17.83, 90.03 0.08 M28.36 71.03 C48.66 47.68, 68.95 24.33, 90.03 0.08 M33.35 71.39 C52.05 49.87, 70.75 28.35, 95.67 -0.31 M33.35 71.39 C46.44 56.32, 59.54 41.26, 95.67 -0.31 M38.99 70.99 C52.01 56.01, 65.04 41.02, 100.66 0.05 M38.99 70.99 C53.5 54.3, 68.01 37.61, 100.66 0.05 M43.98 71.35 C61.94 50.68, 79.91 30.02, 106.3 -0.34 M43.98 71.35 C66.64 45.28, 89.31 19.2, 106.3 -0.34 M49.62 70.96 C66.98 50.99, 84.33 31.02, 111.29 0.02 M49.62 70.96 C68.89 48.79, 88.16 26.63, 111.29 0.02 M54.61 71.32 C67.24 56.78, 79.87 42.25, 116.27 0.38 M54.61 71.32 C76.99 45.57, 99.37 19.82, 116.27 0.38 M60.25 70.92 C74.44 54.6, 88.63 38.27, 121.92 -0.02 M60.25 70.92 C82.88 44.89, 105.51 18.85, 121.92 -0.02 M65.24 71.28 C88.69 44.3, 112.14 17.32, 126.91 0.34 M65.24 71.28 C87.02 46.22, 108.81 21.16, 126.91 0.34 M70.88 70.89 C84.67 55.03, 98.45 39.17, 132.55 -0.05 M70.88 70.89 C91.43 47.24, 111.99 23.59, 132.55 -0.05 M75.87 71.25 C98.49 45.22, 121.12 19.19, 137.54 0.31 M75.87 71.25 C94.87 49.39, 113.87 27.53, 137.54 0.31 M81.51 70.85 C103.09 46.03, 124.68 21.2, 143.18 -0.09 M81.51 70.85 C98.41 51.42, 115.3 31.98, 143.18 -0.09 M86.5 71.21 C107.39 47.18, 128.29 23.14, 148.17 0.27 M86.5 71.21 C100.63 54.96, 114.76 38.7, 148.17 0.27 M92.14 70.82 C105.68 55.25, 119.21 39.67, 153.81 -0.12 M92.14 70.82 C115.55 43.88, 138.97 16.95, 153.81 -0.12 M97.13 71.18 C115.14 50.46, 133.15 29.74, 158.8 0.24 M97.13 71.18 C118.47 46.63, 139.81 22.08, 158.8 0.24 M102.77 70.79 C125.23 44.95, 147.68 19.12, 164.44 -0.16 M102.77 70.79 C125.53 44.6, 148.3 18.41, 164.44 -0.16 M107.76 71.15 C122.84 53.79, 137.93 36.43, 169.43 0.2 M107.76 71.15 C127.29 48.68, 146.82 26.21, 169.43 0.2 M113.4 70.75 C128.06 53.89, 142.72 37.02, 175.07 -0.19 M113.4 70.75 C131.24 50.22, 149.09 29.69, 175.07 -0.19 M118.39 71.11 C132.96 54.35, 147.53 37.58, 180.06 0.17 M118.39 71.11 C132.39 55, 146.4 38.89, 180.06 0.17 M124.03 70.72 C137.35 55.39, 150.67 40.07, 185.7 -0.23 M124.03 70.72 C143.48 48.34, 162.93 25.97, 185.7 -0.23 M129.02 71.08 C149.29 47.76, 169.56 24.44, 190.69 0.13 M129.02 71.08 C153.15 43.31, 177.29 15.55, 190.69 0.13 M134 71.44 C158.72 43.01, 183.43 14.58, 196.33 -0.26 M134 71.44 C155.84 46.32, 177.67 21.2, 196.33 -0.26 M139.65 71.04 C152.31 56.47, 164.98 41.9, 201.32 0.1 M139.65 71.04 C161.34 46.09, 183.03 21.14, 201.32 0.1 M144.63 71.4 C169.49 42.81, 194.35 14.21, 206.96 -0.3 M144.63 71.4 C158.69 55.23, 172.75 39.06, 206.96 -0.3 M150.28 71.01 C173.21 44.63, 196.13 18.25, 211.95 0.06 M150.28 71.01 C167.45 51.25, 184.63 31.49, 211.95 0.06 M155.26 71.37 C177.97 45.25, 200.67 19.13, 217.59 -0.33 M155.26 71.37 C173.99 49.83, 192.71 28.29, 217.59 -0.33 M160.91 70.97 C182.35 46.31, 203.79 21.64, 221.26 1.54 M160.91 70.97 C183.25 45.26, 205.6 19.56, 221.26 1.54 M165.89 71.33 C185.52 48.76, 205.14 26.18, 221 7.94 M165.89 71.33 C180.36 54.69, 194.83 38.05, 221 7.94 M171.54 70.94 C186.53 53.68, 201.53 36.43, 220.74 14.34 M171.54 70.94 C184.01 56.59, 196.49 42.24, 220.74 14.34 M176.52 71.3 C192.56 52.86, 208.59 34.41, 221.14 19.98 M176.52 71.3 C191.14 54.49, 205.75 37.68, 221.14 19.98 M182.17 70.9 C197.33 53.47, 212.49 36.03, 220.87 26.38 M182.17 70.9 C197 53.85, 211.82 36.79, 220.87 26.38 M187.15 71.26 C196.74 60.23, 206.33 49.2, 221.27 32.02 M187.15 71.26 C195.32 61.87, 203.48 52.48, 221.27 32.02 M192.8 70.87 C198.68 64.1, 204.57 57.33, 221.01 38.42 M192.8 70.87 C199.62 63.02, 206.44 55.17, 221.01 38.42 M197.78 71.23 C205.82 61.98, 213.86 52.73, 220.75 44.81 M197.78 71.23 C203.97 64.11, 210.16 56.99, 220.75 44.81 M203.43 70.84 C209.99 63.29, 216.55 55.74, 221.14 50.46 M203.43 70.84 C209.46 63.89, 215.5 56.95, 221.14 50.46 M208.41 71.2 C212.37 66.65, 216.32 62.1, 220.88 56.86 M208.41 71.2 C211.14 68.06, 213.86 64.93, 220.88 56.86 M214.06 70.8 C216.32 68.19, 218.59 65.59, 221.27 62.5 M214.06 70.8 C215.64 68.98, 217.21 67.17, 221.27 62.5 M219.04 71.16 C219.55 70.58, 220.05 70.01, 221.01 68.9 M219.04 71.16 C219.47 70.68, 219.89 70.19, 221.01 68.9 M-0.28 70.44 C-0.28 70.44, -0.28 70.44, -0.28 70.44 M-0.28 70.44 C-0.28 70.44, -0.28 70.44, -0.28 70.44 M6.12 70.7 C3.96 68.82, 1.8 66.94, 0.08 65.45 M6.12 70.7 C4.23 69.05, 2.33 67.41, 0.08 65.45 M12.52 70.96 C9.93 68.71, 7.34 66.45, -0.31 59.81 M12.52 70.96 C9.83 68.62, 7.14 66.28, -0.31 59.81 M18.16 70.56 C11.96 65.18, 5.77 59.79, 0.05 54.82 M18.16 70.56 C12.73 65.84, 7.29 61.12, 0.05 54.82 M24.56 70.83 C16.36 63.7, 8.17 56.58, -0.35 49.18 M24.56 70.83 C16.05 63.43, 7.55 56.04, -0.35 49.18 M30.2 70.43 C22.77 63.97, 15.34 57.51, 0.01 44.19 M30.2 70.43 C21.55 62.91, 12.89 55.38, 0.01 44.19 M36.6 70.69 C29.24 64.29, 21.88 57.89, 0.37 39.2 M36.6 70.69 C26.09 61.56, 15.58 52.42, 0.37 39.2 M43 70.95 C33.1 62.35, 23.21 53.75, -0.02 33.56 M43 70.95 C29.48 59.21, 15.97 47.46, -0.02 33.56 M48.64 70.56 C30.75 55.01, 12.86 39.45, 0.34 28.57 M48.64 70.56 C32.44 56.47, 16.24 42.39, 0.34 28.57 M55.04 70.82 C34.34 52.83, 13.64 34.83, -0.06 22.93 M55.04 70.82 C35.69 54, 16.34 37.18, -0.06 22.93 M60.68 70.43 C36.61 49.5, 12.54 28.58, 0.3 17.94 M60.68 70.43 C37.42 50.2, 14.15 29.98, 0.3 17.94 M67.08 70.69 C47.8 53.92, 28.51 37.16, -0.09 12.3 M67.08 70.69 C47.28 53.48, 27.48 36.26, -0.09 12.3 M73.48 70.95 C53.15 53.28, 32.82 35.6, 0.27 7.31 M73.48 70.95 C45.97 47.04, 18.47 23.13, 0.27 7.31 M79.12 70.55 C56.15 50.59, 33.18 30.62, -0.12 1.67 M79.12 70.55 C49.81 45.07, 20.49 19.59, -0.12 1.67 M85.52 70.82 C67.48 55.14, 49.45 39.46, 3.25 -0.69 M85.52 70.82 C63.24 51.45, 40.97 32.09, 3.25 -0.69 M91.16 70.42 C72.28 54.01, 53.4 37.6, 9.65 -0.43 M91.16 70.42 C64.28 47.06, 37.4 23.69, 9.65 -0.43 M97.56 70.68 C76.63 52.49, 55.71 34.3, 16.05 -0.17 M97.56 70.68 C76.15 52.07, 54.74 33.46, 16.05 -0.17 M103.96 70.94 C80.77 50.79, 57.58 30.63, 21.69 -0.57 M103.96 70.94 C82.92 52.66, 61.89 34.38, 21.69 -0.57 M109.6 70.55 C89.57 53.14, 69.55 35.73, 28.09 -0.31 M109.6 70.55 C79.29 44.21, 48.99 17.86, 28.09 -0.31 M116 70.81 C88.69 47.07, 61.38 23.33, 33.73 -0.7 M116 70.81 C86.63 45.28, 57.26 19.75, 33.73 -0.7 M121.64 70.42 C100.17 51.76, 78.71 33.1, 40.13 -0.44 M121.64 70.42 C101.54 52.94, 81.43 35.46, 40.13 -0.44 M128.04 70.68 C95.83 42.68, 63.62 14.68, 46.53 -0.18 M128.04 70.68 C97.77 44.36, 67.49 18.05, 46.53 -0.18 M134.44 70.94 C117.25 56, 100.06 41.06, 52.17 -0.57 M134.44 70.94 C104.51 44.92, 74.58 18.9, 52.17 -0.57 M140.08 70.54 C123.25 55.91, 106.41 41.28, 58.57 -0.31 M140.08 70.54 C110.37 44.72, 80.67 18.9, 58.57 -0.31 M146.48 70.81 C129.74 56.26, 113 41.71, 64.21 -0.7 M146.48 70.81 C127.71 54.5, 108.95 38.19, 64.21 -0.7 M152.12 70.41 C133.94 54.61, 115.76 38.8, 70.61 -0.44 M152.12 70.41 C125.22 47.03, 98.33 23.65, 70.61 -0.44 M158.52 70.67 C126.74 43.05, 94.97 15.43, 77.01 -0.18 M158.52 70.67 C128.18 44.3, 97.84 17.92, 77.01 -0.18 M164.92 70.93 C146.52 54.94, 128.13 38.95, 82.65 -0.58 M164.92 70.93 C132.84 43.05, 100.76 15.17, 82.65 -0.58 M170.56 70.54 C143.42 46.95, 116.29 23.37, 89.05 -0.31 M170.56 70.54 C141.43 45.22, 112.31 19.9, 89.05 -0.31 M176.96 70.8 C151.54 48.71, 126.13 26.62, 94.69 -0.71 M176.96 70.8 C144.52 42.6, 112.08 14.41, 94.69 -0.71 M182.6 70.41 C164.73 54.87, 146.86 39.34, 101.09 -0.45 M182.6 70.41 C152.24 44.02, 121.89 17.63, 101.09 -0.45 M189 70.67 C164.41 49.3, 139.83 27.93, 107.49 -0.19 M189 70.67 C162.81 47.9, 136.62 25.13, 107.49 -0.19 M195.39 70.93 C174.21 52.51, 153.03 34.1, 113.13 -0.58 M195.39 70.93 C176.08 54.14, 156.76 37.35, 113.13 -0.58 M201.04 70.53 C172.82 46.01, 144.61 21.48, 119.53 -0.32 M201.04 70.53 C178.44 50.89, 155.84 31.25, 119.53 -0.32 M207.44 70.8 C184.56 50.91, 161.69 31.03, 125.17 -0.71 M207.44 70.8 C175.37 42.92, 143.3 15.05, 125.17 -0.71 M213.08 70.4 C187.9 48.52, 162.73 26.63, 131.57 -0.45 M213.08 70.4 C188.91 49.39, 164.74 28.38, 131.57 -0.45 M219.48 70.66 C192.32 47.06, 165.16 23.45, 137.97 -0.19 M219.48 70.66 C194.14 48.64, 168.8 26.61, 137.97 -0.19 M220.59 66.33 C191.49 41.03, 162.38 15.73, 143.61 -0.59 M220.59 66.33 C194.28 43.46, 167.98 20.6, 143.61 -0.59 M220.95 61.35 C199.88 43.03, 178.8 24.71, 150.01 -0.32 M220.95 61.35 C199.69 42.86, 178.43 24.38, 150.01 -0.32 M220.56 55.7 C203.44 40.82, 186.31 25.94, 155.65 -0.72 M220.56 55.7 C200.86 38.58, 181.16 21.46, 155.65 -0.72 M220.92 50.72 C205.27 37.12, 189.63 23.52, 162.05 -0.46 M220.92 50.72 C204.08 36.08, 187.25 21.45, 162.05 -0.46 M220.52 45.07 C199.79 27.05, 179.07 9.04, 168.45 -0.2 M220.52 45.07 C210.08 35.99, 199.63 26.91, 168.45 -0.2 M220.88 40.08 C204.17 25.56, 187.46 11.03, 174.09 -0.59 M220.88 40.08 C210.23 30.83, 199.59 21.57, 174.09 -0.59 M220.49 34.44 C207.1 22.8, 193.71 11.17, 180.49 -0.33 M220.49 34.44 C205.29 21.23, 190.08 8.01, 180.49 -0.33 M220.85 29.45 C210.05 20.07, 199.25 10.68, 186.13 -0.72 M220.85 29.45 C210.07 20.09, 199.29 10.72, 186.13 -0.72 M221.21 24.47 C211.19 15.76, 201.16 7.04, 192.53 -0.46 M221.21 24.47 C212.12 16.57, 203.04 8.67, 192.53 -0.46 M220.81 18.82 C214.48 13.32, 208.15 7.82, 198.93 -0.2 M220.81 18.82 C213.18 12.19, 205.55 5.55, 198.93 -0.2 M221.17 13.84 C217.19 10.37, 213.21 6.91, 204.57 -0.6 M221.17 13.84 C217.62 10.75, 214.06 7.66, 204.57 -0.6 M220.78 8.19 C218.08 5.85, 215.38 3.5, 210.97 -0.33 M220.78 8.19 C217 4.91, 213.23 1.63, 210.97 -0.33 M221.14 3.21 C219.66 1.93, 218.19 0.64, 216.61 -0.73 M221.14 3.21 C220.22 2.41, 219.3 1.61, 216.61 -0.73" stroke="#d0bfff" stroke-width="0.5" fill="none"></path><path d="M0 0 C67.08 0, 134.15 0, 220.7 0 M0 0 C69.92 0, 139.83 0, 220.7 0 M220.7 0 C220.7 16.42, 220.7 32.83, 220.7 70.68 M220.7 0 C220.7 21.21, 220.7 42.42, 220.7 70.68 M220.7 70.68 C169.77 70.68, 118.84 70.68, 0 70.68 M220.7 70.68 C150.56 70.68, 80.43 70.68, 0 70.68 M0 70.68 C0 45, 0 19.32, 0 0 M0 70.68 C0 52.69, 0 34.7, 0 0" stroke="#d0bfff" stroke-width="1" fill="none"></path></g><g stroke-linecap="round" transform="translate(18.09118546591168 197.04838225080385) rotate(0 83.87445412364961 35.338553600637454)"><path d="M0 0 C0 0, 0 0, 0 0 M0 0 C0 0, 0 0, 0 0 M-0.26 6.4 C1.55 4.32, 3.36 2.23, 4.99 0.36 M-0.26 6.4 C0.98 4.97, 2.22 3.54, 4.99 0.36 M0.13 12.04 C2.43 9.39, 4.74 6.75, 10.63 -0.03 M0.13 12.04 C3.94 7.67, 7.74 3.29, 10.63 -0.03 M-0.13 18.44 C3.36 14.42, 6.86 10.4, 15.62 0.33 M-0.13 18.44 C4.89 12.67, 9.9 6.9, 15.62 0.33 M0.27 24.08 C6.26 17.18, 12.26 10.28, 21.26 -0.07 M0.27 24.08 C6.87 16.48, 13.48 8.88, 21.26 -0.07 M0 30.48 C6.77 22.7, 13.54 14.91, 26.25 0.29 M0 30.48 C7.21 22.19, 14.42 13.9, 26.25 0.29 M-0.26 36.88 C12.36 22.36, 24.98 7.84, 31.89 -0.1 M-0.26 36.88 C7.53 27.92, 15.31 18.97, 31.89 -0.1 M0.14 42.52 C9.17 32.13, 18.2 21.74, 36.88 0.26 M0.14 42.52 C14.4 26.12, 28.65 9.72, 36.88 0.26 M-0.12 48.92 C15.59 30.84, 31.31 12.76, 42.52 -0.14 M-0.12 48.92 C9.1 38.31, 18.32 27.7, 42.52 -0.14 M0.27 54.56 C9.75 43.66, 19.23 32.75, 47.51 0.22 M0.27 54.56 C17.74 34.47, 35.21 14.37, 47.51 0.22 M0.01 60.96 C19.38 38.68, 38.75 16.39, 53.15 -0.17 M0.01 60.96 C12.62 46.46, 25.22 31.96, 53.15 -0.17 M-0.25 67.36 C20.71 43.25, 41.67 19.13, 58.14 0.19 M-0.25 67.36 C20.7 43.25, 41.66 19.15, 58.14 0.19 M2.11 70.74 C17.71 52.79, 33.31 34.85, 63.78 -0.21 M2.11 70.74 C16.49 54.2, 30.86 37.66, 63.78 -0.21 M7.1 71.1 C30.49 44.19, 53.88 17.28, 68.77 0.15 M7.1 71.1 C26.99 48.21, 46.88 25.33, 68.77 0.15 M12.09 71.46 C26.32 55.08, 40.56 38.7, 74.41 -0.24 M12.09 71.46 C28.31 52.79, 44.53 34.13, 74.41 -0.24 M17.73 71.06 C38.82 46.79, 59.92 22.52, 79.4 0.12 M17.73 71.06 C33.53 52.89, 49.33 34.71, 79.4 0.12 M22.72 71.42 C35.63 56.56, 48.55 41.71, 85.04 -0.28 M22.72 71.42 C41.61 49.69, 60.5 27.95, 85.04 -0.28 M28.36 71.03 C49.92 46.22, 71.48 21.42, 90.03 0.08 M28.36 71.03 C51.99 43.84, 75.63 16.65, 90.03 0.08 M33.35 71.39 C47.53 55.07, 61.72 38.74, 95.67 -0.31 M33.35 71.39 C50.44 51.72, 67.53 32.06, 95.67 -0.31 M38.99 70.99 C59.1 47.86, 79.2 24.73, 100.66 0.05 M38.99 70.99 C60.91 45.78, 82.83 20.56, 100.66 0.05 M43.98 71.35 C59.54 53.45, 75.11 35.54, 106.3 -0.34 M43.98 71.35 C57.33 55.99, 70.68 40.63, 106.3 -0.34 M49.62 70.96 C63.03 55.53, 76.44 40.1, 111.29 0.02 M49.62 70.96 C65.18 53.05, 80.75 35.15, 111.29 0.02 M54.61 71.32 C76.53 46.09, 98.46 20.87, 116.27 0.38 M54.61 71.32 C72.61 50.6, 90.62 29.89, 116.27 0.38 M60.25 70.92 C84.41 43.13, 108.57 15.34, 121.92 -0.02 M60.25 70.92 C83.81 43.82, 107.36 16.72, 121.92 -0.02 M65.24 71.28 C86.75 46.53, 108.27 21.78, 126.91 0.34 M65.24 71.28 C77.84 56.79, 90.44 42.29, 126.91 0.34 M70.88 70.89 C85.6 53.95, 100.32 37.02, 132.55 -0.05 M70.88 70.89 C88.16 51.01, 105.45 31.12, 132.55 -0.05 M75.87 71.25 C97.79 46.03, 119.71 20.81, 137.54 0.31 M75.87 71.25 C99.08 44.55, 122.29 17.84, 137.54 0.31 M81.51 70.85 C104.33 44.61, 127.14 18.36, 143.18 -0.09 M81.51 70.85 C100.71 48.77, 119.9 26.69, 143.18 -0.09 M86.5 71.21 C100.25 55.39, 114 39.57, 148.17 0.27 M86.5 71.21 C108.78 45.58, 131.06 19.95, 148.17 0.27 M92.14 70.82 C105.66 55.27, 119.17 39.72, 153.81 -0.12 M92.14 70.82 C108.62 51.86, 125.11 32.89, 153.81 -0.12 M97.13 71.18 C116.91 48.42, 136.7 25.65, 158.8 0.24 M97.13 71.18 C111.95 54.12, 126.78 37.07, 158.8 0.24 M102.77 70.79 C117.67 53.64, 132.58 36.49, 164.44 -0.16 M102.77 70.79 C125.5 44.63, 148.24 18.48, 164.44 -0.16 M107.76 71.15 C128.3 47.51, 148.85 23.87, 168.11 1.71 M107.76 71.15 C121.22 55.66, 134.68 40.17, 168.11 1.71 M113.4 70.75 C130.54 51.03, 147.68 31.31, 167.85 8.11 M113.4 70.75 C127.77 54.22, 142.14 37.69, 167.85 8.11 M118.39 71.11 C133.09 54.19, 147.8 37.27, 168.25 13.75 M118.39 71.11 C130.69 56.95, 143 42.79, 168.25 13.75 M124.03 70.72 C138.87 53.64, 153.71 36.57, 167.98 20.15 M124.03 70.72 C134.12 59.11, 144.21 47.5, 167.98 20.15 M129.02 71.08 C141.39 56.85, 153.76 42.62, 167.72 26.55 M129.02 71.08 C143.63 54.27, 158.24 37.46, 167.72 26.55 M134 71.44 C141.9 62.36, 149.79 53.28, 168.12 32.19 M134 71.44 C146.64 56.9, 159.28 42.36, 168.12 32.19 M139.65 71.04 C147.3 62.24, 154.95 53.44, 167.86 38.59 M139.65 71.04 C145.53 64.27, 151.42 57.5, 167.86 38.59 M144.63 71.4 C152.63 62.2, 160.64 52.99, 168.25 44.23 M144.63 71.4 C149.81 65.44, 154.99 59.49, 168.25 44.23 M150.28 71.01 C156.1 64.31, 161.92 57.61, 167.99 50.63 M150.28 71.01 C154.92 65.66, 159.57 60.31, 167.99 50.63 M155.26 71.37 C158.06 68.14, 160.87 64.92, 167.73 57.03 M155.26 71.37 C159.47 66.53, 163.67 61.7, 167.73 57.03 M160.91 70.97 C163.74 67.71, 166.58 64.45, 168.12 62.67 M160.91 70.97 C163.71 67.75, 166.52 64.52, 168.12 62.67 M165.89 71.33 C166.44 70.71, 166.98 70.08, 167.86 69.07 M165.89 71.33 C166.51 70.62, 167.13 69.91, 167.86 69.07 M-0.28 70.44 C-0.28 70.44, -0.28 70.44, -0.28 70.44 M-0.28 70.44 C-0.28 70.44, -0.28 70.44, -0.28 70.44 M6.12 70.7 C4.3 69.12, 2.49 67.54, 0.08 65.45 M6.12 70.7 C3.92 68.78, 1.71 66.87, 0.08 65.45 M12.52 70.96 C7.98 67.02, 3.45 63.07, -0.31 59.81 M12.52 70.96 C8.67 67.61, 4.82 64.27, -0.31 59.81 M18.16 70.56 C12.18 65.37, 6.21 60.17, 0.05 54.82 M18.16 70.56 C12.06 65.26, 5.95 59.95, 0.05 54.82 M24.56 70.83 C18.06 65.18, 11.57 59.54, -0.35 49.18 M24.56 70.83 C18.94 65.94, 13.33 61.06, -0.35 49.18 M30.2 70.43 C23.7 64.78, 17.19 59.12, 0.01 44.19 M30.2 70.43 C21.04 62.47, 11.88 54.5, 0.01 44.19 M36.6 70.69 C22.24 58.21, 7.89 45.73, 0.37 39.2 M36.6 70.69 C25.55 61.08, 14.5 51.48, 0.37 39.2 M43 70.95 C33.03 62.29, 23.07 53.63, -0.02 33.56 M43 70.95 C27.26 57.27, 11.52 43.59, -0.02 33.56 M48.64 70.56 C35.59 59.21, 22.54 47.87, 0.34 28.57 M48.64 70.56 C37.56 60.93, 26.48 51.3, 0.34 28.57 M55.04 70.82 C39.91 57.67, 24.79 44.53, -0.06 22.93 M55.04 70.82 C41.06 58.67, 27.08 46.52, -0.06 22.93 M60.68 70.43 C41.69 53.91, 22.69 37.4, 0.3 17.94 M60.68 70.43 C47.57 59.03, 34.46 47.63, 0.3 17.94 M67.08 70.69 C49.48 55.39, 31.89 40.1, -0.09 12.3 M67.08 70.69 C45.25 51.71, 23.42 32.73, -0.09 12.3 M73.48 70.95 C52.74 52.93, 32.01 34.9, 0.27 7.31 M73.48 70.95 C57.71 57.24, 41.94 43.53, 0.27 7.31 M79.12 70.55 C52.67 47.56, 26.22 24.57, -0.12 1.67 M79.12 70.55 C50.13 45.36, 21.15 20.16, -0.12 1.67 M85.52 70.82 C64.8 52.81, 44.09 34.8, 3.25 -0.69 M85.52 70.82 C60.91 49.43, 36.31 28.04, 3.25 -0.69 M91.16 70.42 C70.64 52.59, 50.13 34.75, 9.65 -0.43 M91.16 70.42 C59.37 42.78, 27.57 15.14, 9.65 -0.43 M97.56 70.68 C79.79 55.23, 62.01 39.78, 16.05 -0.17 M97.56 70.68 C75.43 51.45, 53.31 32.22, 16.05 -0.17 M103.96 70.94 C71.11 42.39, 38.27 13.85, 21.69 -0.57 M103.96 70.94 C84.2 53.77, 64.45 36.6, 21.69 -0.57 M109.6 70.55 C85.04 49.2, 60.48 27.85, 28.09 -0.31 M109.6 70.55 C88.11 51.86, 66.61 33.18, 28.09 -0.31 M116 70.81 C84.59 43.51, 53.19 16.21, 33.73 -0.7 M116 70.81 C84.21 43.18, 52.43 15.55, 33.73 -0.7 M121.64 70.42 C93.68 46.11, 65.71 21.8, 40.13 -0.44 M121.64 70.42 C94.31 46.66, 66.97 22.9, 40.13 -0.44 M128.04 70.68 C109.56 54.62, 91.09 38.56, 46.53 -0.18 M128.04 70.68 C101.37 47.5, 74.7 24.31, 46.53 -0.18 M134.44 70.94 C109.22 49.02, 84.01 27.11, 52.17 -0.57 M134.44 70.94 C111.9 51.35, 89.37 31.77, 52.17 -0.57 M140.08 70.54 C108.86 43.41, 77.64 16.27, 58.57 -0.31 M140.08 70.54 C108.35 42.96, 76.62 15.38, 58.57 -0.31 M146.48 70.81 C123.72 51.02, 100.96 31.24, 64.21 -0.7 M146.48 70.81 C113.98 42.56, 81.48 14.31, 64.21 -0.7 M152.12 70.41 C125.88 47.6, 99.65 24.8, 70.61 -0.44 M152.12 70.41 C125.44 47.22, 98.77 24.03, 70.61 -0.44 M158.52 70.67 C137.27 52.21, 116.03 33.74, 77.01 -0.18 M158.52 70.67 C130.6 46.4, 102.68 22.13, 77.01 -0.18 M164.92 70.93 C137.25 46.89, 109.59 22.84, 82.65 -0.58 M164.92 70.93 C138.25 47.75, 111.58 24.57, 82.65 -0.58 M168.29 68.57 C137.61 41.9, 106.93 15.23, 89.05 -0.31 M168.29 68.57 C145.44 48.71, 122.59 28.84, 89.05 -0.31 M168.65 63.58 C143.44 41.67, 118.23 19.76, 94.69 -0.71 M168.65 63.58 C139.75 38.46, 110.84 13.33, 94.69 -0.71 M168.26 57.94 C147.63 40.01, 127 22.08, 101.09 -0.45 M168.26 57.94 C145.92 38.52, 123.58 19.1, 101.09 -0.45 M168.62 52.95 C151.97 38.48, 135.32 24.01, 107.49 -0.19 M168.62 52.95 C146.22 33.48, 123.82 14.01, 107.49 -0.19 M168.23 47.31 C146.57 28.49, 124.92 9.67, 113.13 -0.58 M168.23 47.31 C151.51 32.79, 134.8 18.26, 113.13 -0.58 M168.59 42.32 C154.39 29.98, 140.19 17.64, 119.53 -0.32 M168.59 42.32 C152.97 28.75, 137.36 15.18, 119.53 -0.32 M168.19 36.68 C153.59 23.99, 138.99 11.3, 125.17 -0.71 M168.19 36.68 C152.84 23.34, 137.49 9.99, 125.17 -0.71 M168.55 31.69 C154.78 19.73, 141.02 7.76, 131.57 -0.45 M168.55 31.69 C155.92 20.71, 143.29 9.73, 131.57 -0.45 M168.16 26.05 C157.21 16.54, 146.27 7.03, 137.97 -0.19 M168.16 26.05 C156.75 16.14, 145.35 6.23, 137.97 -0.19 M168.52 21.06 C160.46 14.06, 152.41 7.06, 143.61 -0.59 M168.52 21.06 C159.55 13.27, 150.59 5.48, 143.61 -0.59 M168.12 15.42 C164.49 12.26, 160.85 9.1, 150.01 -0.32 M168.12 15.42 C161.27 9.46, 154.42 3.51, 150.01 -0.32 M168.48 10.43 C163.78 6.34, 159.07 2.25, 155.65 -0.72 M168.48 10.43 C164.31 6.81, 160.15 3.19, 155.65 -0.72 M168.09 4.79 C166.19 3.14, 164.3 1.5, 162.05 -0.46 M168.09 4.79 C166.28 3.22, 164.47 1.65, 162.05 -0.46" stroke="#d0bfff" stroke-width="0.5" fill="none"></path><path d="M0 0 C33.75 0, 67.51 0, 167.75 0 M0 0 C59.74 0, 119.48 0, 167.75 0 M167.75 0 C167.75 14.57, 167.75 29.14, 167.75 70.68 M167.75 0 C167.75 21.6, 167.75 43.19, 167.75 70.68 M167.75 70.68 C117.23 70.68, 66.72 70.68, 0 70.68 M167.75 70.68 C111.64 70.68, 55.53 70.68, 0 70.68 M0 70.68 C0 52.58, 0 34.48, 0 0 M0 70.68 C0 44.2, 0 17.72, 0 0" stroke="#d0bfff" stroke-width="1" fill="none"></path></g><g stroke-linecap="round" transform="translate(25.663730485378892 124.48733819300446) rotate(0 54.767828335545374 35.338553600637454)"><path d="M0 0 C0 0, 0 0, 0 0 M0 0 C0 0, 0 0, 0 0 M-0.26 6.4 C1.67 4.18, 3.6 1.96, 4.99 0.36 M-0.26 6.4 C1.65 4.19, 3.57 1.99, 4.99 0.36 M0.13 12.04 C2.61 9.19, 5.1 6.33, 10.63 -0.03 M0.13 12.04 C3.84 7.77, 7.56 3.5, 10.63 -0.03 M-0.13 18.44 C5.54 11.92, 11.2 5.4, 15.62 0.33 M-0.13 18.44 C4.95 12.6, 10.03 6.76, 15.62 0.33 M0.27 24.08 C7 16.34, 13.73 8.6, 21.26 -0.07 M0.27 24.08 C6.08 17.39, 11.89 10.71, 21.26 -0.07 M0 30.48 C6.63 22.86, 13.25 15.24, 26.25 0.29 M0 30.48 C10.29 18.65, 20.58 6.81, 26.25 0.29 M-0.26 36.88 C7.71 27.72, 15.67 18.56, 31.89 -0.1 M-0.26 36.88 C9.61 25.53, 19.47 14.18, 31.89 -0.1 M0.14 42.52 C13.46 27.2, 26.78 11.87, 36.88 0.26 M0.14 42.52 C8.15 33.3, 16.16 24.09, 36.88 0.26 M-0.12 48.92 C9.43 37.93, 18.99 26.94, 42.52 -0.14 M-0.12 48.92 C15.81 30.58, 31.75 12.25, 42.52 -0.14 M0.27 54.56 C11.4 41.75, 22.54 28.95, 47.51 0.22 M0.27 54.56 C17.61 34.62, 34.94 14.67, 47.51 0.22 M0.01 60.96 C20.42 37.48, 40.83 14, 53.15 -0.17 M0.01 60.96 C12.23 46.9, 24.45 32.85, 53.15 -0.17 M-0.25 67.36 C14.06 50.89, 28.38 34.42, 58.14 0.19 M-0.25 67.36 C18.85 45.39, 37.95 23.42, 58.14 0.19 M2.11 70.74 C26.18 43.04, 50.25 15.35, 63.78 -0.21 M2.11 70.74 C17.5 53.03, 32.89 35.33, 63.78 -0.21 M7.1 71.1 C31.32 43.24, 55.53 15.38, 68.77 0.15 M7.1 71.1 C26.12 49.22, 45.14 27.34, 68.77 0.15 M12.09 71.46 C26.64 54.72, 41.19 37.98, 74.41 -0.24 M12.09 71.46 C26.34 55.06, 40.59 38.67, 74.41 -0.24 M17.73 71.06 C36.72 49.21, 55.72 27.36, 79.4 0.12 M17.73 71.06 C32.71 53.83, 47.69 36.59, 79.4 0.12 M22.72 71.42 C37.19 54.77, 51.67 38.11, 85.04 -0.28 M22.72 71.42 C46.72 43.81, 70.73 16.19, 85.04 -0.28 M28.36 71.03 C43.71 53.37, 59.06 35.71, 90.03 0.08 M28.36 71.03 C52.07 43.75, 75.78 16.47, 90.03 0.08 M33.35 71.39 C47.91 54.63, 62.48 37.88, 95.67 -0.31 M33.35 71.39 C55.71 45.65, 78.08 19.92, 95.67 -0.31 M38.99 70.99 C57.58 49.6, 76.17 28.22, 100.66 0.05 M38.99 70.99 C58.04 49.08, 77.09 27.16, 100.66 0.05 M43.98 71.35 C57.24 56.1, 70.5 40.84, 106.3 -0.34 M43.98 71.35 C57.16 56.19, 70.34 41.02, 106.3 -0.34 M49.62 70.96 C72.54 44.59, 95.46 18.22, 109.98 1.52 M49.62 70.96 C68.55 49.17, 87.49 27.39, 109.98 1.52 M54.61 71.32 C69.63 54.03, 84.66 36.74, 109.71 7.92 M54.61 71.32 C67.09 56.96, 79.57 42.6, 109.71 7.92 M60.25 70.92 C71.52 57.96, 82.79 45, 110.11 13.57 M60.25 70.92 C71.14 58.39, 82.03 45.87, 110.11 13.57 M65.24 71.28 C76.15 58.72, 87.07 46.17, 109.85 19.96 M65.24 71.28 C79.04 55.41, 92.84 39.53, 109.85 19.96 M70.88 70.89 C79.03 61.51, 87.18 52.14, 109.59 26.36 M70.88 70.89 C84.98 54.66, 99.09 38.44, 109.59 26.36 M75.87 71.25 C85.7 59.93, 95.54 48.62, 109.98 32 M75.87 71.25 C89.08 56.05, 102.3 40.84, 109.98 32 M81.51 70.85 C90.87 60.08, 100.24 49.31, 109.72 38.4 M81.51 70.85 C87.57 63.88, 93.63 56.91, 109.72 38.4 M86.5 71.21 C93.37 63.31, 100.24 55.4, 110.11 44.04 M86.5 71.21 C91.45 65.52, 96.4 59.82, 110.11 44.04 M92.14 70.82 C95.98 66.4, 99.82 61.99, 109.85 50.44 M92.14 70.82 C98.43 63.59, 104.71 56.36, 109.85 50.44 M97.13 71.18 C100.47 67.33, 103.82 63.48, 109.59 56.84 M97.13 71.18 C101.46 66.2, 105.78 61.22, 109.59 56.84 M102.77 70.79 C105.08 68.13, 107.38 65.48, 109.99 62.48 M102.77 70.79 C104.87 68.37, 106.98 65.95, 109.99 62.48 M107.76 71.15 C108.47 70.32, 109.19 69.5, 109.72 68.88 M107.76 71.15 C108.53 70.26, 109.3 69.36, 109.72 68.88 M-0.28 70.44 C-0.28 70.44, -0.28 70.44, -0.28 70.44 M-0.28 70.44 C-0.28 70.44, -0.28 70.44, -0.28 70.44 M6.12 70.7 C4.6 69.38, 3.09 68.06, 0.08 65.45 M6.12 70.7 C3.93 68.8, 1.75 66.89, 0.08 65.45 M12.52 70.96 C8.16 67.17, 3.8 63.38, -0.31 59.81 M12.52 70.96 C7.49 66.59, 2.46 62.22, -0.31 59.81 M18.16 70.56 C12.22 65.4, 6.28 60.23, 0.05 54.82 M18.16 70.56 C12.89 65.98, 7.62 61.4, 0.05 54.82 M24.56 70.83 C16.92 64.18, 9.28 57.54, -0.35 49.18 M24.56 70.83 C15.13 62.63, 5.69 54.43, -0.35 49.18 M30.2 70.43 C20.42 61.93, 10.65 53.43, 0.01 44.19 M30.2 70.43 C23.02 64.19, 15.83 57.94, 0.01 44.19 M36.6 70.69 C22.39 58.34, 8.18 45.99, 0.37 39.2 M36.6 70.69 C29.03 64.11, 21.46 57.53, 0.37 39.2 M43 70.95 C30.32 59.93, 17.64 48.91, -0.02 33.56 M43 70.95 C30.79 60.35, 18.59 49.74, -0.02 33.56 M48.64 70.56 C29.74 54.13, 10.83 37.69, 0.34 28.57 M48.64 70.56 C29.38 53.81, 10.11 37.07, 0.34 28.57 M55.04 70.82 C42.64 60.05, 30.25 49.27, -0.06 22.93 M55.04 70.82 C36.84 55, 18.64 39.18, -0.06 22.93 M60.68 70.43 C40.89 53.23, 21.11 36.03, 0.3 17.94 M60.68 70.43 C37.34 50.14, 14 29.85, 0.3 17.94 M67.08 70.69 C51.82 57.42, 36.55 44.15, -0.09 12.3 M67.08 70.69 C46.78 53.04, 26.48 35.4, -0.09 12.3 M73.48 70.95 C54.96 54.85, 36.45 38.76, 0.27 7.31 M73.48 70.95 C49.16 49.81, 24.84 28.67, 0.27 7.31 M79.12 70.55 C52.01 46.98, 24.89 23.42, -0.12 1.67 M79.12 70.55 C51.76 46.77, 24.4 22.99, -0.12 1.67 M85.52 70.82 C65.23 53.18, 44.94 35.54, 3.25 -0.69 M85.52 70.82 C59.38 48.09, 33.24 25.37, 3.25 -0.69 M91.16 70.42 C63.57 46.43, 35.97 22.45, 9.65 -0.43 M91.16 70.42 C72.62 54.3, 54.08 38.19, 9.65 -0.43 M97.56 70.68 C79.89 55.32, 62.22 39.96, 16.05 -0.17 M97.56 70.68 C69.26 46.09, 40.97 21.49, 16.05 -0.17 M103.96 70.94 C78.18 48.54, 52.41 26.13, 21.69 -0.57 M103.96 70.94 C76.1 46.73, 48.25 22.52, 21.69 -0.57 M109.6 70.55 C85.2 49.34, 60.81 28.13, 28.09 -0.31 M109.6 70.55 C81.39 46.03, 53.19 21.51, 28.09 -0.31 M109.96 65.56 C87.74 46.25, 65.52 26.93, 33.73 -0.7 M109.96 65.56 C87.83 46.33, 65.71 27.09, 33.73 -0.7 M109.56 59.92 C91.63 44.33, 73.69 28.73, 40.13 -0.44 M109.56 59.92 C84.42 38.06, 59.28 16.21, 40.13 -0.44 M109.92 54.93 C95.58 42.46, 81.23 29.99, 46.53 -0.18 M109.92 54.93 C89.88 37.51, 69.84 20.09, 46.53 -0.18 M109.53 49.29 C93.12 35.02, 76.7 20.75, 52.17 -0.57 M109.53 49.29 C88.61 31.1, 67.69 12.92, 52.17 -0.57 M109.89 44.3 C89.41 26.5, 68.93 8.7, 58.57 -0.31 M109.89 44.3 C95.95 32.19, 82.02 20.07, 58.57 -0.31 M109.5 38.66 C100.3 30.67, 91.11 22.67, 64.21 -0.7 M109.5 38.66 C98.39 29, 87.28 19.34, 64.21 -0.7 M109.86 33.67 C101.26 26.2, 92.66 18.72, 70.61 -0.44 M109.86 33.67 C100.68 25.7, 91.5 17.72, 70.61 -0.44 M109.46 28.03 C101.1 20.76, 92.75 13.5, 77.01 -0.18 M109.46 28.03 C102.41 21.9, 95.37 15.78, 77.01 -0.18 M109.82 23.04 C103.73 17.75, 97.65 12.46, 82.65 -0.58 M109.82 23.04 C101.61 15.91, 93.41 8.77, 82.65 -0.58 M109.43 17.4 C102.78 11.62, 96.13 5.84, 89.05 -0.31 M109.43 17.4 C105.04 13.59, 100.65 9.77, 89.05 -0.31 M109.79 12.41 C105.57 8.74, 101.35 5.08, 94.69 -0.71 M109.79 12.41 C103.79 7.2, 97.79 1.98, 94.69 -0.71 M109.39 6.77 C106.79 4.5, 104.18 2.24, 101.09 -0.45 M109.39 6.77 C106.93 4.63, 104.47 2.49, 101.09 -0.45 M109.75 1.78 C108.89 1.03, 108.03 0.29, 107.49 -0.19 M109.75 1.78 C109.16 1.26, 108.56 0.75, 107.49 -0.19" stroke="#d0bfff" stroke-width="0.5" fill="none"></path><path d="M0 0 C32.89 0, 65.78 0, 109.54 0 M0 0 C27.03 0, 54.06 0, 109.54 0 M109.54 0 C109.54 25.15, 109.54 50.3, 109.54 70.68 M109.54 0 C109.54 15.39, 109.54 30.78, 109.54 70.68 M109.54 70.68 C86.29 70.68, 63.05 70.68, 0 70.68 M109.54 70.68 C86.07 70.68, 62.61 70.68, 0 70.68 M0 70.68 C0 43.35, 0 16.03, 0 0 M0 70.68 C0 42.62, 0 14.56, 0 0" stroke="#d0bfff" stroke-width="1" fill="none"></path></g><g stroke-linecap="round" transform="translate(34.327436524526775 86.14050387195039) rotate(0 35.4079799844244 18.4962314208843)"><path d="M0 0 C0 0, 0 0, 0 0 M0 0 C0 0, 0 0, 0 0 M-0.26 6.4 C1.36 4.54, 2.98 2.67, 4.99 0.36 M-0.26 6.4 C0.96 4.99, 2.19 3.58, 4.99 0.36 M0.13 12.04 C2.53 9.28, 4.93 6.52, 10.63 -0.03 M0.13 12.04 C3.37 8.32, 6.6 4.6, 10.63 -0.03 M-0.13 18.44 C3.7 14.04, 7.52 9.64, 15.62 0.33 M-0.13 18.44 C3.53 14.23, 7.19 10.02, 15.62 0.33 M0.27 24.08 C8.35 14.78, 16.44 5.48, 21.26 -0.07 M0.27 24.08 C5.49 18.07, 10.72 12.06, 21.26 -0.07 M0 30.48 C10.1 18.87, 20.19 7.26, 26.25 0.29 M0 30.48 C6.14 23.42, 12.27 16.37, 26.25 0.29 M-0.26 36.88 C11.28 23.6, 22.82 10.33, 31.89 -0.1 M-0.26 36.88 C9.44 25.73, 19.13 14.58, 31.89 -0.1 M4.73 37.24 C14.66 25.81, 24.59 14.39, 36.88 0.26 M4.73 37.24 C11.57 29.37, 18.41 21.5, 36.88 0.26 M9.72 37.6 C16.66 29.62, 23.59 21.64, 42.52 -0.14 M9.72 37.6 C22.17 23.27, 34.63 8.94, 42.52 -0.14 M15.36 37.2 C25.45 25.6, 35.53 14, 47.51 0.22 M15.36 37.2 C24.13 27.12, 32.89 17.04, 47.51 0.22 M20.35 37.56 C27.78 29.01, 35.21 20.47, 53.15 -0.17 M20.35 37.56 C27.76 29.03, 35.17 20.51, 53.15 -0.17 M25.99 37.17 C33.01 29.09, 40.03 21.01, 58.14 0.19 M25.99 37.17 C33.86 28.12, 41.72 19.07, 58.14 0.19 M30.98 37.53 C41.13 25.85, 51.28 14.18, 63.78 -0.21 M30.98 37.53 C37.88 29.58, 44.79 21.64, 63.78 -0.21 M36.62 37.13 C48.33 23.66, 60.05 10.18, 68.77 0.15 M36.62 37.13 C45.89 26.47, 55.16 15.81, 68.77 0.15 M41.61 37.49 C53.04 24.34, 64.48 11.18, 71.13 3.53 M41.61 37.49 C51.41 26.22, 61.21 14.95, 71.13 3.53 M47.25 37.1 C52.47 31.1, 57.68 25.1, 71.52 9.18 M47.25 37.1 C54.31 28.97, 61.38 20.85, 71.52 9.18 M52.24 37.46 C56.23 32.87, 60.22 28.28, 71.26 15.57 M52.24 37.46 C56.36 32.72, 60.48 27.97, 71.26 15.57 M57.22 37.82 C62.11 32.2, 67 26.57, 71 21.97 M57.22 37.82 C60.92 33.57, 64.62 29.31, 71 21.97 M62.87 37.43 C65.83 34.02, 68.79 30.61, 71.4 27.61 M62.87 37.43 C65.59 34.29, 68.32 31.15, 71.4 27.61 M67.85 37.79 C68.81 36.69, 69.77 35.59, 71.14 34.01 M67.85 37.79 C69.05 36.41, 70.25 35.03, 71.14 34.01 M-0.2 36.82 C-0.2 36.82, -0.2 36.82, -0.2 36.82 M-0.2 36.82 C-0.2 36.82, -0.2 36.82, -0.2 36.82 M6.19 37.08 C4.66 35.75, 3.13 34.42, 0.16 31.83 M6.19 37.08 C4.68 35.76, 3.16 34.44, 0.16 31.83 M11.84 36.68 C7.46 32.88, 3.09 29.08, -0.24 26.19 M11.84 36.68 C7.74 33.12, 3.64 29.55, -0.24 26.19 M18.24 36.94 C11.14 30.78, 4.04 24.61, 0.12 21.2 M18.24 36.94 C12.29 31.78, 6.35 26.61, 0.12 21.2 M24.63 37.21 C17.39 30.91, 10.14 24.61, -0.27 15.56 M24.63 37.21 C16.99 30.56, 9.35 23.92, -0.27 15.56 M30.28 36.81 C18.84 26.87, 7.41 16.93, 0.09 10.57 M30.28 36.81 C20.5 28.31, 10.72 19.81, 0.09 10.57 M36.67 37.07 C27.87 29.42, 19.07 21.77, -0.31 4.93 M36.67 37.07 C22.17 24.46, 7.67 11.86, -0.31 4.93 M42.32 36.68 C33.48 29, 24.65 21.32, 0.05 -0.06 M42.32 36.68 C29.86 25.85, 17.41 15.02, 0.05 -0.06 M48.71 36.94 C36.73 26.52, 24.74 16.1, 6.45 0.2 M48.71 36.94 C32.17 22.56, 15.64 8.18, 6.45 0.2 M55.11 37.2 C37.96 22.29, 20.8 7.37, 12.09 -0.19 M55.11 37.2 C45.43 28.79, 35.76 20.37, 12.09 -0.19 M60.76 36.81 C46.79 24.67, 32.83 12.53, 18.49 0.07 M60.76 36.81 C46.91 24.77, 33.05 12.73, 18.49 0.07 M67.15 37.07 C50.53 22.61, 33.9 8.16, 24.14 -0.33 M67.15 37.07 C57.38 28.57, 47.6 20.07, 24.14 -0.33 M71.29 35.36 C58.97 24.65, 46.66 13.95, 30.53 -0.07 M71.29 35.36 C60.98 26.4, 50.67 17.44, 30.53 -0.07 M70.89 29.72 C59.61 19.91, 48.33 10.1, 36.93 0.2 M70.89 29.72 C59.27 19.62, 47.65 9.52, 36.93 0.2 M71.25 24.73 C61.35 16.12, 51.45 7.52, 42.57 -0.2 M71.25 24.73 C64.18 18.58, 57.11 12.43, 42.57 -0.2 M70.86 19.09 C63.9 13.04, 56.95 7, 48.97 0.06 M70.86 19.09 C63.45 12.65, 56.04 6.21, 48.97 0.06 M71.22 14.1 C67.44 10.82, 63.67 7.53, 54.61 -0.33 M71.22 14.1 C67.62 10.97, 64.02 7.84, 54.61 -0.33 M70.82 8.46 C67.42 5.5, 64.01 2.54, 61.01 -0.07 M70.82 8.46 C67.75 5.79, 64.68 3.11, 61.01 -0.07 M71.18 3.47 C69.91 2.36, 68.63 1.25, 67.41 0.19 M71.18 3.47 C70.05 2.49, 68.92 1.51, 67.41 0.19" stroke="#d0bfff" stroke-width="0.5" fill="none"></path><path d="M0 0 C26.47 0, 52.93 0, 70.82 0 M0 0 C16.69 0, 33.38 0, 70.82 0 M70.82 0 C70.82 13.58, 70.82 27.15, 70.82 36.99 M70.82 0 C70.82 14.21, 70.82 28.42, 70.82 36.99 M70.82 36.99 C54.53 36.99, 38.25 36.99, 0 36.99 M70.82 36.99 C53.45 36.99, 36.09 36.99, 0 36.99 M0 36.99 C0 24.89, 0 12.79, 0 0 M0 36.99 C0 22.55, 0 8.11, 0 0" stroke="#d0bfff" stroke-width="1" fill="none"></path></g><g stroke-linecap="round"><g transform="translate(268.51206604244135 131.4402317424607) rotate(270.50984340127826 158.1173276338699 51.305851431067964)" fill-rule="evenodd"><path d="M0 0 C0 0, 0 0, 0 0 M0 0 C0 0, 0 0, 0 0 M-0.26 6.4 C0.9 5.06, 2.07 3.72, 4.33 1.11 M-0.26 6.4 C1.47 4.4, 3.21 2.41, 4.33 1.11 M0.13 12.04 C2.7 9.09, 5.27 6.13, 8.01 2.98 M0.13 12.04 C3.17 8.54, 6.22 5.04, 8.01 2.98 M-0.13 18.44 C2.51 15.41, 5.14 12.37, 12.34 4.1 M-0.13 18.44 C4.59 13.01, 9.31 7.58, 12.34 4.1 M0.27 24.08 C4.34 19.4, 8.41 14.71, 16.67 5.21 M0.27 24.08 C6.77 16.6, 13.27 9.13, 16.67 5.21 M0 30.48 C5.04 24.69, 10.08 18.89, 21 6.33 M0 30.48 C7.13 22.28, 14.26 14.08, 21 6.33 M-0.26 36.88 C6.22 29.42, 12.7 21.97, 24.67 8.2 M-0.26 36.88 C6.21 29.44, 12.67 22, 24.67 8.2 M0.14 42.52 C7.61 33.92, 15.09 25.32, 29 9.31 M0.14 42.52 C7.41 34.15, 14.68 25.79, 29 9.31 M-0.12 48.92 C8.92 38.51, 17.97 28.1, 33.34 10.43 M-0.12 48.92 C11.67 35.35, 23.47 21.77, 33.34 10.43 M0.27 54.56 C8.25 45.38, 16.23 36.21, 37.01 12.3 M0.27 54.56 C8.69 44.88, 17.1 35.2, 37.01 12.3 M0.01 60.96 C13.13 45.87, 26.25 30.78, 41.34 13.41 M0.01 60.96 C11.39 47.87, 22.77 34.77, 41.34 13.41 M-0.25 67.36 C13.12 51.98, 26.49 36.59, 45.67 14.53 M-0.25 67.36 C13.79 51.2, 27.84 35.04, 45.67 14.53 M0.14 73 C18.17 52.26, 36.21 31.51, 49.35 16.4 M0.14 73 C12.38 58.93, 24.61 44.85, 49.35 16.4 M-0.12 79.4 C15.25 61.72, 30.61 44.04, 53.68 17.51 M-0.12 79.4 C12.76 64.58, 25.64 49.77, 53.68 17.51 M-0.38 85.8 C17.81 64.87, 35.99 43.95, 58.01 18.63 M-0.38 85.8 C18.03 64.62, 36.44 43.44, 58.01 18.63 M0.01 91.44 C14.57 74.7, 29.12 57.96, 62.34 19.74 M0.01 91.44 C19.24 69.32, 38.47 47.19, 62.34 19.74 M-0.25 97.84 C24.56 69.3, 49.36 40.77, 66.02 21.61 M-0.25 97.84 C22.3 71.9, 44.84 45.97, 66.02 21.61 M0.8 102.72 C28.32 71.07, 55.84 39.41, 70.35 22.73 M0.8 102.72 C22.64 77.6, 44.48 52.48, 70.35 22.73 M5.79 103.08 C26.8 78.91, 47.82 54.74, 74.68 23.84 M5.79 103.08 C20.26 86.44, 34.72 69.8, 74.68 23.84 M10.78 103.44 C28.44 83.13, 46.1 62.81, 78.35 25.71 M10.78 103.44 C36.35 74.03, 61.92 44.62, 78.35 25.71 M16.42 103.05 C41.72 73.95, 67.02 44.84, 82.68 26.82 M16.42 103.05 C31.88 85.27, 47.33 67.49, 82.68 26.82 M21.41 103.41 C44.22 77.17, 67.04 50.92, 87.01 27.94 M21.41 103.41 C44.12 77.28, 66.83 51.15, 87.01 27.94 M27.05 103.02 C40.48 87.57, 53.9 72.12, 90.69 29.81 M27.05 103.02 C48.71 78.1, 70.37 53.19, 90.69 29.81 M32.04 103.38 C44.64 88.87, 57.25 74.37, 95.02 30.92 M32.04 103.38 C56.21 75.57, 80.38 47.77, 95.02 30.92 M37.68 102.98 C57.84 79.79, 78 56.6, 99.35 32.04 M37.68 102.98 C55.17 82.86, 72.65 62.75, 99.35 32.04 M42.67 103.34 C66.59 75.82, 90.52 48.29, 103.68 33.15 M42.67 103.34 C65.81 76.72, 88.96 50.09, 103.68 33.15 M48.31 102.95 C71.47 76.31, 94.63 49.67, 107.36 35.02 M48.31 102.95 C62.31 86.84, 76.31 70.74, 107.36 35.02 M53.3 103.31 C72.29 81.46, 91.28 59.61, 111.69 36.14 M53.3 103.31 C73.33 80.27, 93.35 57.23, 111.69 36.14 M58.94 102.91 C81.63 76.81, 104.32 50.71, 116.02 37.25 M58.94 102.91 C81.6 76.84, 104.26 50.77, 116.02 37.25 M63.93 103.27 C76.71 88.56, 89.5 73.85, 119.69 39.12 M63.93 103.27 C75.46 90.01, 86.99 76.74, 119.69 39.12 M69.57 102.88 C83.82 86.49, 98.06 70.11, 124.02 40.24 M69.57 102.88 C90.33 79, 111.09 55.11, 124.02 40.24 M74.56 103.24 C94.04 80.83, 113.51 58.42, 128.36 41.35 M74.56 103.24 C86.64 89.34, 98.71 75.45, 128.36 41.35 M80.2 102.84 C92.2 89.05, 104.19 75.25, 132.03 43.22 M80.2 102.84 C92.1 89.16, 103.99 75.47, 132.03 43.22 M85.19 103.2 C95.91 90.87, 106.64 78.53, 136.36 44.34 M85.19 103.2 C104.22 81.31, 123.25 59.42, 136.36 44.34 M90.83 102.81 C104.89 86.63, 118.96 70.46, 140.69 45.45 M90.83 102.81 C100.98 91.13, 111.13 79.46, 140.69 45.45 M95.82 103.17 C109.89 86.98, 123.96 70.8, 145.02 46.57 M95.82 103.17 C112.87 83.55, 129.93 63.93, 145.02 46.57 M101.46 102.77 C116.42 85.57, 131.37 68.37, 148.7 48.44 M101.46 102.77 C119.74 81.75, 138.01 60.73, 148.7 48.44 M106.45 103.13 C121.98 85.27, 137.51 67.4, 153.03 49.55 M106.45 103.13 C123.59 83.41, 140.74 63.69, 153.03 49.55 M112.09 102.74 C128.68 83.66, 145.26 64.58, 157.36 50.66 M112.09 102.74 C124.99 87.9, 137.89 73.06, 157.36 50.66 M117.08 103.1 C131.25 86.8, 145.41 70.5, 161.03 52.53 M117.08 103.1 C133.68 84, 150.28 64.91, 161.03 52.53 M122.72 102.71 C139.39 83.53, 156.06 64.35, 165.37 53.65 M122.72 102.71 C132.32 91.67, 141.91 80.63, 165.37 53.65 M127.71 103.07 C138.25 90.93, 148.8 78.8, 169.7 54.76 M127.71 103.07 C137.73 91.54, 147.74 80.02, 169.7 54.76 M133.35 102.67 C144.46 89.89, 155.57 77.11, 173.37 56.63 M133.35 102.67 C147.61 86.27, 161.86 69.87, 173.37 56.63 M138.34 103.03 C151.98 87.34, 165.62 71.65, 177.7 57.75 M138.34 103.03 C151.56 87.82, 164.79 72.6, 177.7 57.75 M143.33 103.39 C152.7 92.6, 162.08 81.82, 182.03 58.86 M143.33 103.39 C152.99 92.27, 162.66 81.15, 182.03 58.86 M148.97 103 C158.81 91.67, 168.66 80.35, 186.36 59.98 M148.97 103 C163.06 86.78, 177.15 70.57, 186.36 59.98 M153.96 103.36 C162.2 93.87, 170.45 84.38, 190.04 61.85 M153.96 103.36 C164.72 90.97, 175.48 78.59, 190.04 61.85 M159.6 102.96 C169.48 91.6, 179.35 80.24, 194.37 62.96 M159.6 102.96 C173.16 87.36, 186.72 71.76, 194.37 62.96 M164.59 103.32 C175.11 91.22, 185.63 79.11, 198.7 64.08 M164.59 103.32 C175.4 90.89, 186.2 78.45, 198.7 64.08 M170.23 102.93 C180.52 91.09, 190.8 79.26, 202.38 65.95 M170.23 102.93 C180.72 90.86, 191.2 78.8, 202.38 65.95 M175.22 103.29 C184.1 93.07, 192.98 82.85, 206.71 67.06 M175.22 103.29 C185.99 90.9, 196.76 78.51, 206.71 67.06 M180.86 102.89 C190.22 92.12, 199.58 81.36, 211.04 68.18 M180.86 102.89 C188.65 93.93, 196.44 84.97, 211.04 68.18 M185.85 103.25 C194.04 93.83, 202.24 84.4, 215.37 69.29 M185.85 103.25 C192.7 95.36, 199.56 87.47, 215.37 69.29 M191.49 102.86 C197.6 95.83, 203.72 88.79, 219.04 71.16 M191.49 102.86 C201.96 90.81, 212.44 78.76, 219.04 71.16 M196.48 103.22 C205.92 92.35, 215.37 81.49, 223.37 72.28 M196.48 103.22 C203.69 94.92, 210.9 86.62, 223.37 72.28 M202.12 102.82 C208.53 95.45, 214.93 88.09, 227.71 73.39 M202.12 102.82 C207.46 96.69, 212.79 90.55, 227.71 73.39 M207.11 103.18 C214.08 95.16, 221.06 87.14, 231.38 75.26 M207.11 103.18 C215.65 93.36, 224.19 83.53, 231.38 75.26 M212.75 102.79 C217.78 97, 222.82 91.21, 235.71 76.37 M212.75 102.79 C221.52 92.71, 230.28 82.62, 235.71 76.37 M217.74 103.15 C226.63 92.92, 235.52 82.69, 240.04 77.49 M217.74 103.15 C222.37 97.82, 227 92.49, 240.04 77.49 M223.38 102.75 C231.11 93.86, 238.84 84.97, 243.72 79.36 M223.38 102.75 C228.66 96.68, 233.95 90.6, 243.72 79.36 M228.37 103.12 C234.78 95.74, 241.19 88.37, 248.05 80.47 M228.37 103.12 C235.88 94.47, 243.39 85.83, 248.05 80.47 M234.01 102.72 C237.91 98.23, 241.81 93.74, 252.38 81.59 M234.01 102.72 C239.97 95.86, 245.94 89, 252.38 81.59 M239 103.08 C243.2 98.24, 247.41 93.41, 256.71 82.7 M239 103.08 C243.27 98.16, 247.55 93.24, 256.71 82.7 M244.64 102.69 C248.17 98.62, 251.71 94.56, 260.39 84.57 M244.64 102.69 C250.62 95.8, 256.61 88.92, 260.39 84.57 M249.63 103.05 C253.11 99.04, 256.58 95.04, 264.72 85.69 M249.63 103.05 C255.32 96.5, 261.01 89.95, 264.72 85.69 M255.27 102.65 C260.12 97.07, 264.97 91.5, 269.05 86.8 M255.27 102.65 C260.12 97.07, 264.97 91.49, 269.05 86.8 M260.26 103.01 C264.37 98.28, 268.49 93.54, 272.72 88.67 M260.26 103.01 C262.75 100.14, 265.25 97.27, 272.72 88.67 M265.9 102.62 C269.9 98.01, 273.91 93.4, 277.05 89.79 M265.9 102.62 C269.11 98.92, 272.32 95.23, 277.05 89.79 M270.89 102.98 C273.93 99.48, 276.97 95.98, 281.38 90.9 M270.89 102.98 C274.5 98.82, 278.12 94.66, 281.38 90.9 M275.87 103.34 C278.06 100.82, 280.25 98.31, 285.06 92.77 M275.87 103.34 C279.16 99.56, 282.44 95.79, 285.06 92.77 M281.52 102.94 C284.59 99.41, 287.66 95.87, 289.39 93.89 M281.52 102.94 C283.6 100.54, 285.69 98.14, 289.39 93.89 M286.5 103.3 C288.01 101.56, 289.53 99.83, 293.72 95 M286.5 103.3 C288.32 101.21, 290.13 99.13, 293.72 95 M292.15 102.91 C293.57 101.27, 295 99.63, 298.05 96.12 M292.15 102.91 C293.56 101.28, 294.97 99.66, 298.05 96.12 M297.13 103.27 C298.61 101.57, 300.09 99.87, 301.73 97.99 M297.13 103.27 C298.9 101.24, 300.66 99.21, 301.73 97.99 M302.78 102.87 C304.02 101.44, 305.27 100, 306.06 99.1 M302.78 102.87 C303.98 101.49, 305.18 100.11, 306.06 99.1 M307.76 103.23 C308.42 102.48, 309.08 101.72, 310.39 100.21 M307.76 103.23 C308.52 102.36, 309.28 101.49, 310.39 100.21 M313.41 102.84 C313.59 102.63, 313.77 102.43, 314.06 102.08 M313.41 102.84 C313.65 102.56, 313.89 102.28, 314.06 102.08 M-0.27 102.44 C-0.27 102.44, -0.27 102.44, -0.27 102.44 M-0.27 102.44 C-0.27 102.44, -0.27 102.44, -0.27 102.44 M6.13 102.7 C4.24 101.05, 2.35 99.41, 0.09 97.45 M6.13 102.7 C3.8 100.67, 1.47 98.65, 0.09 97.45 M11.77 102.3 C9.26 100.12, 6.74 97.93, -0.3 91.81 M11.77 102.3 C7.31 98.42, 2.84 94.54, -0.3 91.81 M18.17 102.56 C14.14 99.06, 10.11 95.55, 0.06 86.82 M18.17 102.56 C11.19 96.49, 4.2 90.42, 0.06 86.82 M24.57 102.83 C16.34 95.67, 8.11 88.52, -0.34 81.18 M24.57 102.83 C18.98 97.97, 13.4 93.12, -0.34 81.18 M30.21 102.43 C22.61 95.83, 15.02 89.23, 0.02 76.19 M30.21 102.43 C19.54 93.15, 8.87 83.88, 0.02 76.19 M36.61 102.69 C27.08 94.41, 17.55 86.13, -0.37 70.55 M36.61 102.69 C28.8 95.91, 21 89.12, -0.37 70.55 M42.25 102.3 C26.27 88.4, 10.28 74.51, -0.01 65.56 M42.25 102.3 C29.64 91.34, 17.03 80.37, -0.01 65.56 M48.65 102.56 C38.49 93.73, 28.33 84.9, -0.41 59.92 M48.65 102.56 C35.17 90.84, 21.7 79.13, -0.41 59.92 M55.05 102.82 C38.04 88.03, 21.03 73.25, -0.05 54.93 M55.05 102.82 C41.24 90.82, 27.44 78.82, -0.05 54.93 M60.69 102.43 C47.15 90.66, 33.61 78.89, 0.31 49.94 M60.69 102.43 C43.69 87.65, 26.69 72.87, 0.31 49.94 M67.09 102.69 C48.44 86.48, 29.79 70.27, -0.08 44.3 M67.09 102.69 C49.47 87.37, 31.85 72.05, -0.08 44.3 M72.73 102.29 C45.02 78.21, 17.32 54.12, 0.28 39.31 M72.73 102.29 C56.8 88.44, 40.86 74.59, 0.28 39.31 M79.13 102.55 C59.52 85.51, 39.91 68.46, -0.12 33.67 M79.13 102.55 C62.66 88.24, 46.19 73.92, -0.12 33.67 M85.53 102.82 C52.83 74.4, 20.14 45.98, 0.24 28.68 M85.53 102.82 C51.43 73.18, 17.34 43.54, 0.24 28.68 M91.17 102.42 C62.97 77.91, 34.77 53.39, -0.15 23.04 M91.17 102.42 C56.18 72, 21.18 41.59, -0.15 23.04 M97.57 102.68 C62.84 72.49, 28.11 42.3, 0.21 18.05 M97.57 102.68 C72.92 81.26, 48.27 59.83, 0.21 18.05 M103.21 102.29 C74.2 77.07, 45.2 51.86, -0.19 12.41 M103.21 102.29 C71.55 74.76, 39.88 47.24, -0.19 12.41 M109.61 102.55 C81.11 77.78, 52.61 53, 0.17 7.42 M109.61 102.55 C73.06 70.78, 36.52 39.01, 0.17 7.42 M116 102.81 C80.02 71.53, 44.04 40.26, -0.22 1.78 M116 102.81 C79.18 70.8, 42.36 38.8, -0.22 1.78 M121.65 102.42 C89.06 74.08, 56.46 45.75, 5.42 1.38 M121.65 102.42 C84.71 70.3, 47.76 38.19, 5.42 1.38 M128.05 102.68 C97.37 76.01, 66.7 49.35, 14.84 4.27 M128.05 102.68 C85.42 65.62, 42.79 28.57, 14.84 4.27 M133.69 102.28 C108.6 80.47, 83.51 58.67, 25.01 7.81 M133.69 102.28 C111.68 83.16, 89.68 64.03, 25.01 7.81 M140.09 102.54 C101.22 68.76, 62.36 34.97, 34.43 10.7 M140.09 102.54 C111.66 77.83, 83.23 53.12, 34.43 10.7 M146.48 102.81 C110.16 71.23, 73.83 39.65, 43.84 13.58 M146.48 102.81 C114.94 75.39, 83.4 47.97, 43.84 13.58 M152.13 102.41 C119.6 74.13, 87.07 45.86, 54.02 17.12 M152.13 102.41 C112.91 68.32, 73.7 34.24, 54.02 17.12 M158.53 102.67 C128.1 76.22, 97.67 49.77, 63.43 20.01 M158.53 102.67 C132.5 80.05, 106.47 57.42, 63.43 20.01 M164.17 102.28 C144.11 84.84, 124.05 67.4, 73.6 23.55 M164.17 102.28 C128.33 71.12, 92.48 39.96, 73.6 23.55 M170.57 102.54 C150.64 85.22, 130.72 67.9, 83.02 26.44 M170.57 102.54 C147.38 82.38, 124.18 62.22, 83.02 26.44 M176.96 102.8 C157.93 86.25, 138.89 69.7, 92.44 29.32 M176.96 102.8 C151.06 80.28, 125.15 57.76, 92.44 29.32 M182.61 102.41 C166.35 88.27, 150.09 74.14, 102.61 32.86 M182.61 102.41 C153.33 76.95, 124.05 51.5, 102.61 32.86 M189 102.67 C169.11 85.37, 149.22 68.08, 112.02 35.75 M189 102.67 C173.39 89.09, 157.78 75.52, 112.02 35.75 M194.65 102.27 C180.03 89.56, 165.41 76.86, 122.2 39.29 M194.65 102.27 C166.83 78.09, 139.01 53.91, 122.2 39.29 M201.05 102.54 C175.71 80.51, 150.37 58.49, 131.61 42.18 M201.05 102.54 C174.81 79.73, 148.58 56.93, 131.61 42.18 M207.44 102.8 C193.76 90.9, 180.08 79.01, 141.03 45.06 M207.44 102.8 C190.99 88.5, 174.54 74.19, 141.03 45.06 M213.09 102.4 C193.5 85.37, 173.91 68.34, 151.2 48.61 M213.09 102.4 C191.67 83.78, 170.25 65.16, 151.2 48.61 M219.48 102.66 C206.12 91.05, 192.76 79.43, 160.62 51.49 M219.48 102.66 C207.24 92.02, 195 81.38, 160.62 51.49 M225.13 102.27 C213.53 92.19, 201.93 82.11, 170.79 55.03 M225.13 102.27 C211.84 90.72, 198.56 79.17, 170.79 55.03 M231.53 102.53 C215.94 88.98, 200.35 75.43, 180.2 57.92 M231.53 102.53 C219.35 91.95, 207.18 81.36, 180.2 57.92 M237.92 102.79 C224.22 90.88, 210.52 78.97, 189.62 60.8 M237.92 102.79 C226.74 93.07, 215.56 83.36, 189.62 60.8 M243.57 102.4 C230.28 90.85, 217 79.3, 199.79 64.35 M243.57 102.4 C233.49 93.64, 223.42 84.89, 199.79 64.35 M249.96 102.66 C238.4 92.61, 226.84 82.56, 209.21 67.23 M249.96 102.66 C238.25 92.48, 226.54 82.29, 209.21 67.23 M255.61 102.26 C243.95 92.13, 232.3 82, 219.38 70.77 M255.61 102.26 C248.26 95.88, 240.91 89.49, 219.38 70.77 M262 102.53 C252.11 93.93, 242.22 85.33, 228.8 73.66 M262 102.53 C254.87 96.33, 247.75 90.13, 228.8 73.66 M268.4 102.79 C259.9 95.39, 251.39 88, 238.21 76.54 M268.4 102.79 C259.53 95.08, 250.66 87.37, 238.21 76.54 M274.05 102.39 C265.36 94.84, 256.67 87.29, 248.39 80.09 M274.05 102.39 C267.95 97.1, 261.86 91.8, 248.39 80.09 M280.44 102.65 C272.85 96.05, 265.26 89.45, 257.8 82.97 M280.44 102.65 C272.22 95.51, 264 88.36, 257.8 82.97 M286.09 102.26 C279.8 96.8, 273.52 91.34, 267.97 86.51 M286.09 102.26 C282.43 99.08, 278.78 95.91, 267.97 86.51 M292.48 102.52 C288.53 99.08, 284.57 95.64, 277.39 89.4 M292.48 102.52 C286.56 97.37, 280.64 92.22, 277.39 89.4 M298.88 102.78 C294.16 98.68, 289.44 94.57, 286.81 92.29 M298.88 102.78 C294.35 98.84, 289.81 94.9, 286.81 92.29 M304.52 102.39 C302.49 100.62, 300.45 98.84, 296.98 95.83 M304.52 102.39 C302.37 100.51, 300.21 98.63, 296.98 95.83 M310.92 102.65 C309.71 101.59, 308.49 100.54, 306.39 98.71 M310.92 102.65 C309.8 101.67, 308.67 100.69, 306.39 98.71" stroke="#d0bfff" stroke-width="0.5" fill="none"></path><path d="M0 0 C102.53 33.22, 205.07 66.43, 316.3 102.47 M0 0 C72.58 23.51, 145.15 47.02, 316.3 102.47 M316.3 102.47 C250.73 102.5, 185.15 102.53, -0.07 102.61 M316.3 102.47 C221.48 102.51, 126.67 102.55, -0.07 102.61 M-0.07 102.61 C-0.04 66.37, -0.02 30.13, 0 0 M-0.07 102.61 C-0.05 69.21, -0.02 35.81, 0 0 M0 0 C0 0, 0 0, 0 0 M0 0 C0 0, 0 0, 0 0" stroke="#d0bfff" stroke-width="1" fill="none"></path></g></g><mask></mask><g stroke-linecap="round"><g transform="translate(299.61011870146507 278.3917568238866) rotate(89.81603573235057 -36.3343052058046 25.533884670804525)" fill-rule="evenodd"><path d="M-72.57 50.87 C-72.57 50.87, -72.57 50.87, -72.57 50.87 M-72.57 50.87 C-72.57 50.87, -72.57 50.87, -72.57 50.87 M-67.58 51.23 C-65.44 48.75, -63.29 46.28, -59.06 41.41 M-67.58 51.23 C-65.28 48.57, -62.97 45.92, -59.06 41.41 M-61.94 50.83 C-56.16 44.18, -50.37 37.53, -45.54 31.96 M-61.94 50.83 C-58.38 46.73, -54.82 42.64, -45.54 31.96 M-56.95 51.19 C-51.24 44.62, -45.53 38.05, -32.02 22.51 M-56.95 51.19 C-49.04 42.09, -41.13 32.99, -32.02 22.51 M-51.31 50.8 C-42.28 40.41, -33.25 30.02, -18.51 13.06 M-51.31 50.8 C-41.76 39.81, -32.21 28.82, -18.51 13.06 M-46.32 51.16 C-33.68 36.61, -21.04 22.07, -4.99 3.61 M-46.32 51.16 C-31.18 33.73, -16.03 16.31, -4.99 3.61 M-40.68 50.76 C-30.41 38.94, -20.13 27.12, 0.65 3.22 M-40.68 50.76 C-28.88 37.18, -17.07 23.6, 0.65 3.22 M-35.69 51.12 C-27.06 41.19, -18.42 31.25, 0.39 9.61 M-35.69 51.12 C-24.46 38.19, -13.22 25.27, 0.39 9.61 M-30.05 50.73 C-20.33 39.54, -10.61 28.36, 0.78 15.26 M-30.05 50.73 C-22.85 42.45, -15.65 34.16, 0.78 15.26 M-25.06 51.09 C-17.17 42.01, -9.27 32.92, 0.52 21.65 M-25.06 51.09 C-15.49 40.07, -5.91 29.05, 0.52 21.65 M-19.42 50.69 C-12.72 42.99, -6.03 35.29, 0.26 28.05 M-19.42 50.69 C-11.63 41.73, -3.84 32.77, 0.26 28.05 M-14.43 51.05 C-9.7 45.6, -4.96 40.15, 0.66 33.7 M-14.43 51.05 C-9.83 45.76, -5.23 40.46, 0.66 33.7 M-9.45 51.41 C-7.38 49.04, -5.31 46.66, 0.39 40.09 M-9.45 51.41 C-6.87 48.45, -4.3 45.5, 0.39 40.09 M-3.8 51.02 C-2.07 49.02, -0.33 47.02, 0.79 45.74 M-3.8 51.02 C-2.05 49, -0.3 46.98, 0.79 45.74 M-72.38 51.26 C-72.38 51.26, -72.38 51.26, -72.38 51.26 M-72.38 51.26 C-72.38 51.26, -72.38 51.26, -72.38 51.26 M-66.74 50.86 C-67.52 50.18, -68.31 49.5, -69 48.89 M-66.74 50.86 C-67.22 50.45, -67.7 50.03, -69 48.89 M-60.34 51.12 C-62.14 49.56, -63.94 48, -65.62 46.53 M-60.34 51.12 C-61.4 50.21, -62.46 49.29, -65.62 46.53 M-54.7 50.73 C-57.6 48.21, -60.49 45.69, -62.25 44.17 M-54.7 50.73 C-57.17 48.59, -59.63 46.44, -62.25 44.17 M-48.3 50.99 C-51.3 48.39, -54.29 45.78, -58.87 41.81 M-48.3 50.99 C-52.44 47.39, -56.59 43.79, -58.87 41.81 M-41.9 51.25 C-47.06 46.77, -52.21 42.29, -55.49 39.44 M-41.9 51.25 C-47.23 46.62, -52.56 41.99, -55.49 39.44 M-36.26 50.86 C-40.02 47.59, -43.78 44.32, -52.11 37.08 M-36.26 50.86 C-41.42 46.38, -46.57 41.9, -52.11 37.08 M-29.86 51.12 C-36.33 45.49, -42.81 39.87, -48.73 34.72 M-29.86 51.12 C-37.36 44.6, -44.86 38.08, -48.73 34.72 M-24.22 50.73 C-32.61 43.43, -41 36.14, -45.35 32.36 M-24.22 50.73 C-29.06 46.51, -33.91 42.3, -45.35 32.36 M-17.82 50.99 C-22.82 46.65, -27.81 42.3, -41.97 29.99 M-17.82 50.99 C-24.14 45.49, -30.46 40, -41.97 29.99 M-11.42 51.25 C-21.78 42.24, -32.14 33.24, -38.59 27.63 M-11.42 51.25 C-21.26 42.7, -31.1 34.15, -38.59 27.63 M-5.78 50.85 C-12.39 45.11, -19 39.36, -35.21 25.27 M-5.78 50.85 C-12.59 44.93, -19.4 39.01, -35.21 25.27 M0.62 51.11 C-6.83 44.64, -14.28 38.16, -31.84 22.9 M0.62 51.11 C-6.18 45.2, -12.99 39.29, -31.84 22.9 M0.22 45.47 C-10.44 36.2, -21.11 26.93, -28.46 20.54 M0.22 45.47 C-7.87 38.44, -15.95 31.41, -28.46 20.54 M0.58 40.48 C-4.64 35.94, -9.86 31.4, -25.08 18.18 M0.58 40.48 C-6.76 34.11, -14.09 27.73, -25.08 18.18 M0.19 34.84 C-7.4 28.25, -14.98 21.65, -21.7 15.82 M0.19 34.84 C-6.74 28.82, -13.67 22.8, -21.7 15.82 M0.55 29.85 C-7.04 23.26, -14.64 16.66, -19.07 12.8 M0.55 29.85 C-5.99 24.17, -12.54 18.48, -19.07 12.8 M0.15 24.21 C-5.68 19.14, -11.51 14.07, -15.7 10.43 M0.15 24.21 C-5.65 19.16, -11.46 14.12, -15.7 10.43 M0.51 19.22 C-3.14 16.05, -6.8 12.87, -12.32 8.07 M0.51 19.22 C-3.62 15.63, -7.76 12.03, -12.32 8.07 M0.12 13.58 C-3.3 10.61, -6.72 7.64, -8.94 5.71 M0.12 13.58 C-3.42 10.5, -6.96 7.43, -8.94 5.71 M0.48 8.59 C-0.88 7.41, -2.24 6.23, -5.56 3.35 M0.48 8.59 C-1.04 7.28, -2.55 5.96, -5.56 3.35 M0.08 2.95 C-0.46 2.48, -1 2.01, -2.18 0.98 M0.08 2.95 C-0.54 2.4, -1.17 1.86, -2.18 0.98" stroke="#d0bfff" stroke-width="0.5" fill="none"></path><path d="M0 0 C-28.08 19.7, -56.16 39.4, -72.68 51 M0 0 C-15.37 10.78, -30.74 21.57, -72.68 51 M-72.68 51 C-45.17 51.02, -17.65 51.05, 0.02 51.07 M-72.68 51 C-54.63 51.01, -36.58 51.03, 0.02 51.07 M0.02 51.07 C0.01 30.83, 0 10.59, 0 0 M0.02 51.07 C0.01 38.82, 0.01 26.57, 0 0 M0 0 C0 0, 0 0, 0 0 M0 0 C0 0, 0 0, 0 0" stroke="#d0bfff" stroke-width="1" fill="none"></path></g></g><mask></mask><g stroke-linecap="round"><g transform="translate(243.63374894433375 212.17393506015844) rotate(89.81603573235057 -33.03514115228012 22.02491065622516)" fill-rule="evenodd"><path d="M-66.38 44.32 C-66.38 44.32, -66.38 44.32, -66.38 44.32 M-66.38 44.32 C-66.38 44.32, -66.38 44.32, -66.38 44.32 M-60.73 43.93 C-58.53 41.4, -56.34 38.87, -53.52 35.63 M-60.73 43.93 C-58.29 41.12, -55.85 38.31, -53.52 35.63 M-55.75 44.29 C-51.78 39.72, -47.8 35.15, -40.66 26.93 M-55.75 44.29 C-50.27 37.99, -44.8 31.7, -40.66 26.93 M-50.1 43.9 C-45.75 38.88, -41.39 33.87, -28.45 18.99 M-50.1 43.9 C-45.76 38.9, -41.42 33.9, -28.45 18.99 M-45.12 44.26 C-34.49 32.03, -23.87 19.81, -15.59 10.29 M-45.12 44.26 C-34.04 31.51, -22.95 18.76, -15.59 10.29 M-39.47 43.86 C-28.64 31.4, -17.81 18.93, -3.39 2.35 M-39.47 43.86 C-31.6 34.8, -23.73 25.74, -3.39 2.35 M-34.49 44.22 C-20.41 28.03, -6.34 11.84, 0.94 3.47 M-34.49 44.22 C-24.76 33.03, -15.03 21.84, 0.94 3.47 M-28.84 43.83 C-18.99 32.49, -9.14 21.16, 0.68 9.86 M-28.84 43.83 C-19.68 33.29, -10.52 22.75, 0.68 9.86 M-23.86 44.19 C-14.05 32.9, -4.24 21.62, 1.07 15.51 M-23.86 44.19 C-15.93 35.06, -7.99 25.94, 1.07 15.51 M-18.21 43.79 C-11.45 36.01, -4.69 28.23, 0.81 21.91 M-18.21 43.79 C-12.05 36.71, -5.9 29.62, 0.81 21.91 M-13.23 44.15 C-7.88 38, -2.54 31.86, 0.55 28.3 M-13.23 44.15 C-7.83 37.94, -2.42 31.72, 0.55 28.3 M-7.58 43.76 C-4.67 40.41, -1.76 37.06, 0.94 33.95 M-7.58 43.76 C-5.59 41.47, -3.6 39.17, 0.94 33.95 M-2.6 44.12 C-1.8 43.2, -1.01 42.29, 0.68 40.34 M-2.6 44.12 C-1.91 43.32, -1.22 42.53, 0.68 40.34 M-66.07 44 C-66.07 44, -66.07 44, -66.07 44 M-66.07 44 C-66.07 44, -66.07 44, -66.07 44 M-59.67 44.26 C-60.4 43.63, -61.13 43, -62.69 41.64 M-59.67 44.26 C-60.63 43.43, -61.58 42.6, -62.69 41.64 M-54.03 43.87 C-55.71 42.41, -57.39 40.95, -59.31 39.27 M-54.03 43.87 C-55.53 42.56, -57.02 41.26, -59.31 39.27 M-47.63 44.13 C-50.03 42.05, -52.42 39.97, -55.94 36.91 M-47.63 44.13 C-49.94 42.12, -52.25 40.12, -55.94 36.91 M-41.99 43.73 C-44.83 41.27, -47.67 38.8, -52.56 34.55 M-41.99 43.73 C-44.25 41.77, -46.51 39.8, -52.56 34.55 M-35.59 43.99 C-39.83 40.31, -44.07 36.62, -49.18 32.18 M-35.59 43.99 C-39.61 40.5, -43.62 37.01, -49.18 32.18 M-29.2 44.25 C-34.04 40.05, -38.88 35.84, -45.04 30.48 M-29.2 44.25 C-32.72 41.19, -36.24 38.13, -45.04 30.48 M-23.55 43.86 C-28.29 39.74, -33.02 35.63, -41.66 28.11 M-23.55 43.86 C-30.72 37.63, -37.88 31.41, -41.66 28.11 M-17.15 44.12 C-21.66 40.21, -26.16 36.29, -38.29 25.75 M-17.15 44.12 C-24.01 38.16, -30.86 32.21, -38.29 25.75 M-11.51 43.73 C-18.7 37.47, -25.9 31.22, -34.91 23.39 M-11.51 43.73 C-16.95 39, -22.38 34.28, -34.91 23.39 M-5.11 43.99 C-13 37.13, -20.89 30.27, -31.53 21.03 M-5.11 43.99 C-12.08 37.94, -19.04 31.88, -31.53 21.03 M0.53 43.59 C-6.44 37.54, -13.4 31.48, -28.15 18.66 M0.53 43.59 C-7.76 36.39, -16.04 29.19, -28.15 18.66 M0.14 37.95 C-9.6 29.49, -19.34 21.02, -24.77 16.3 M0.14 37.95 C-7.64 31.19, -15.41 24.43, -24.77 16.3 M0.5 32.96 C-5.69 27.59, -11.88 22.21, -21.39 13.94 M0.5 32.96 C-5.55 27.71, -11.6 22.45, -21.39 13.94 M0.1 27.32 C-4.26 23.53, -8.61 19.75, -18.01 11.58 M0.1 27.32 C-4.79 23.07, -9.68 18.82, -18.01 11.58 M0.46 22.33 C-3.52 18.88, -7.49 15.42, -14.63 9.21 M0.46 22.33 C-4.57 17.96, -9.61 13.58, -14.63 9.21 M0.82 17.35 C-2.8 14.2, -6.43 11.04, -10.5 7.51 M0.82 17.35 C-2.18 14.74, -5.19 12.13, -10.5 7.51 M0.43 11.7 C-1.41 10.1, -3.25 8.51, -7.12 5.14 M0.43 11.7 C-1.29 10.21, -3.01 8.71, -7.12 5.14 M0.79 6.72 C-0.23 5.83, -1.25 4.95, -3.74 2.78 M0.79 6.72 C-0.82 5.32, -2.42 3.93, -3.74 2.78 M0.39 1.07 C0.16 0.87, -0.07 0.67, -0.36 0.42 M0.39 1.07 C0.12 0.84, -0.14 0.61, -0.36 0.42" stroke="#d0bfff" stroke-width="0.5" fill="none"></path><path d="M0 0 C-24.23 16.13, -48.45 32.25, -66.08 43.99 M0 0 C-18.97 12.63, -37.94 25.26, -66.08 43.99 M-66.08 43.99 C-52.82 44, -39.55 44.01, 0.01 44.05 M-66.08 43.99 C-49.76 44, -33.44 44.02, 0.01 44.05 M0.01 44.05 C0.01 29.52, 0 14.99, 0 0 M0.01 44.05 C0.01 30.57, 0.01 17.08, 0 0 M0 0 C0 0, 0 0, 0 0 M0 0 C0 0, 0 0, 0 0" stroke="#d0bfff" stroke-width="1" fill="none"></path></g></g><mask></mask><g stroke-linecap="round"><g transform="translate(193.27237158878592 139.51511925430356) rotate(89.81603573235057 -33.035141152280126 22.02491065622516)" fill-rule="evenodd"><path d="M-66.38 44.32 C-66.38 44.32, -66.38 44.32, -66.38 44.32 M-66.38 44.32 C-66.38 44.32, -66.38 44.32, -66.38 44.32 M-60.73 43.93 C-58.78 41.68, -56.83 39.43, -53.52 35.63 M-60.73 43.93 C-58.73 41.63, -56.73 39.33, -53.52 35.63 M-55.75 44.29 C-50.67 38.45, -45.6 32.62, -40.66 26.93 M-55.75 44.29 C-50.44 38.19, -45.14 32.08, -40.66 26.93 M-50.1 43.9 C-43.3 36.07, -36.49 28.24, -28.45 18.99 M-50.1 43.9 C-45.51 38.61, -40.91 33.32, -28.45 18.99 M-45.12 44.26 C-38.6 36.76, -32.08 29.26, -15.59 10.29 M-45.12 44.26 C-37.41 35.39, -29.71 26.53, -15.59 10.29 M-39.47 43.86 C-30.99 34.1, -22.5 24.34, -3.39 2.35 M-39.47 43.86 C-26.37 28.79, -13.26 13.71, -3.39 2.35 M-34.49 44.22 C-20.5 28.13, -6.51 12.03, 0.94 3.47 M-34.49 44.22 C-25.45 33.82, -16.41 23.42, 0.94 3.47 M-28.84 43.83 C-20.32 34.02, -11.8 24.22, 0.68 9.86 M-28.84 43.83 C-18.51 31.94, -8.18 20.06, 0.68 9.86 M-23.86 44.19 C-15.13 34.14, -6.4 24.1, 1.07 15.51 M-23.86 44.19 C-15.29 34.33, -6.73 24.48, 1.07 15.51 M-18.21 43.79 C-11.51 36.08, -4.81 28.38, 0.81 21.91 M-18.21 43.79 C-14.01 38.95, -9.8 34.11, 0.81 21.91 M-13.23 44.15 C-9.1 39.4, -4.97 34.65, 0.55 28.3 M-13.23 44.15 C-9.59 39.97, -5.96 35.79, 0.55 28.3 M-7.58 43.76 C-4.81 40.57, -2.04 37.38, 0.94 33.95 M-7.58 43.76 C-5.42 41.27, -3.26 38.78, 0.94 33.95 M-2.6 44.12 C-1.35 42.69, -0.11 41.26, 0.68 40.34 M-2.6 44.12 C-1.67 43.06, -0.75 42, 0.68 40.34 M-66.07 44 C-66.07 44, -66.07 44, -66.07 44 M-66.07 44 C-66.07 44, -66.07 44, -66.07 44 M-59.67 44.26 C-60.41 43.62, -61.15 42.98, -62.69 41.64 M-59.67 44.26 C-60.85 43.24, -62.03 42.21, -62.69 41.64 M-54.03 43.87 C-55.64 42.47, -57.24 41.08, -59.31 39.27 M-54.03 43.87 C-55.34 42.72, -56.66 41.58, -59.31 39.27 M-47.63 44.13 C-49.92 42.14, -52.2 40.16, -55.94 36.91 M-47.63 44.13 C-50.22 41.87, -52.81 39.62, -55.94 36.91 M-41.99 43.73 C-44.29 41.74, -46.58 39.74, -52.56 34.55 M-41.99 43.73 C-45.21 40.93, -48.43 38.13, -52.56 34.55 M-35.59 43.99 C-40.64 39.6, -45.69 35.21, -49.18 32.18 M-35.59 43.99 C-39.63 40.48, -43.67 36.98, -49.18 32.18 M-29.2 44.25 C-33.25 40.73, -37.3 37.21, -45.04 30.48 M-29.2 44.25 C-34.11 39.98, -39.03 35.71, -45.04 30.48 M-23.55 43.86 C-30.02 38.24, -36.49 32.61, -41.66 28.11 M-23.55 43.86 C-29.41 38.76, -35.28 33.67, -41.66 28.11 M-17.15 44.12 C-21.96 39.95, -26.76 35.77, -38.29 25.75 M-17.15 44.12 C-23.1 38.95, -29.05 33.78, -38.29 25.75 M-11.51 43.73 C-20.3 36.09, -29.09 28.45, -34.91 23.39 M-11.51 43.73 C-18.48 37.67, -25.45 31.61, -34.91 23.39 M-5.11 43.99 C-14.69 35.67, -24.26 27.34, -31.53 21.03 M-5.11 43.99 C-12.09 37.93, -19.06 31.86, -31.53 21.03 M0.53 43.59 C-7.89 36.28, -16.31 28.96, -28.15 18.66 M0.53 43.59 C-6.76 37.26, -14.05 30.92, -28.15 18.66 M0.14 37.95 C-7.67 31.17, -15.47 24.38, -24.77 16.3 M0.14 37.95 C-8.12 30.77, -16.38 23.59, -24.77 16.3 M0.5 32.96 C-6.05 27.27, -12.6 21.58, -21.39 13.94 M0.5 32.96 C-7.28 26.21, -15.05 19.45, -21.39 13.94 M0.1 27.32 C-6.32 21.74, -12.73 16.16, -18.01 11.58 M0.1 27.32 C-6.88 21.25, -13.86 15.18, -18.01 11.58 M0.46 22.33 C-4.11 18.36, -8.67 14.39, -14.63 9.21 M0.46 22.33 C-3.94 18.51, -8.34 14.69, -14.63 9.21 M0.82 17.35 C-3.5 13.59, -7.81 9.84, -10.5 7.51 M0.82 17.35 C-3.21 13.85, -7.23 10.35, -10.5 7.51 M0.43 11.7 C-2.11 9.5, -4.64 7.3, -7.12 5.14 M0.43 11.7 C-1.7 9.86, -3.83 8.01, -7.12 5.14 M0.79 6.72 C-0.63 5.49, -2.04 4.26, -3.74 2.78 M0.79 6.72 C-1.02 5.14, -2.84 3.57, -3.74 2.78 M0.39 1.07 C0.13 0.84, -0.14 0.61, -0.36 0.42 M0.39 1.07 C0.19 0.89, -0.02 0.72, -0.36 0.42" stroke="#d0bfff" stroke-width="0.5" fill="none"></path><path d="M0 0 C-22.2 14.78, -44.4 29.56, -66.08 43.99 M0 0 C-23.78 15.83, -47.56 31.66, -66.08 43.99 M-66.08 43.99 C-46.05 44.01, -26.01 44.03, 0.01 44.05 M-66.08 43.99 C-45.4 44.01, -24.71 44.03, 0.01 44.05 M0.01 44.05 C0.01 31.69, 0.01 19.33, 0 0 M0.01 44.05 C0.01 26.86, 0 9.68, 0 0 M0 0 C0 0, 0 0, 0 0 M0 0 C0 0, 0 0, 0 0" stroke="#d0bfff" stroke-width="1" fill="none"></path></g></g><mask></mask><g stroke-linecap="round"><g transform="translate(134.82805463325047 94.61037364053652) rotate(89.81603573235057 -18.2086955106047 9.998971915000283)" fill-rule="evenodd"><path d="M-36.45 19.99 C-36.45 19.99, -36.45 19.99, -36.45 19.99 M-36.45 19.99 C-36.45 19.99, -36.45 19.99, -36.45 19.99 M-30.8 19.6 C-29.21 17.77, -27.62 15.94, -26.21 14.32 M-30.8 19.6 C-29.76 18.4, -28.72 17.2, -26.21 14.32 M-25.82 19.96 C-23.77 17.61, -21.72 15.25, -15.97 8.64 M-25.82 19.96 C-23.72 17.54, -21.62 15.13, -15.97 8.64 M-20.83 20.32 C-17.14 16.08, -13.45 11.83, -5.74 2.96 M-20.83 20.32 C-16.25 15.05, -11.66 9.78, -5.74 2.96 M-15.19 19.92 C-11.45 15.63, -7.72 11.33, 0.56 1.81 M-15.19 19.92 C-10.72 14.79, -6.25 9.65, 0.56 1.81 M-10.2 20.28 C-7.77 17.49, -5.34 14.7, 0.3 8.21 M-10.2 20.28 C-7.01 16.62, -3.83 12.96, 0.3 8.21 M-4.56 19.89 C-3.35 18.5, -2.14 17.11, 0.69 13.85 M-4.56 19.89 C-3.07 18.18, -1.58 16.46, 0.69 13.85 M-36.13 20.22 C-36.13 20.22, -36.13 20.22, -36.13 20.22 M-36.13 20.22 C-36.13 20.22, -36.13 20.22, -36.13 20.22 M-30.49 19.83 C-30.95 19.43, -31.41 19.03, -32.75 17.86 M-30.49 19.83 C-31.16 19.24, -31.84 18.66, -32.75 17.86 M-24.09 20.09 C-25.06 19.25, -26.04 18.4, -28.62 16.16 M-24.09 20.09 C-25.37 18.98, -26.64 17.87, -28.62 16.16 M-18.45 19.7 C-20.44 17.96, -22.44 16.23, -25.24 13.79 M-18.45 19.7 C-20.75 17.7, -23.05 15.7, -25.24 13.79 M-12.05 19.96 C-14.2 18.09, -16.35 16.22, -21.11 12.09 M-12.05 19.96 C-15.09 17.32, -18.12 14.68, -21.11 12.09 M-5.65 20.22 C-10.04 16.41, -14.42 12.6, -17.73 9.72 M-5.65 20.22 C-9.84 16.58, -14.03 12.94, -17.73 9.72 M-0.01 19.83 C-2.9 17.31, -5.79 14.8, -14.35 7.36 M-0.01 19.83 C-3.77 16.56, -7.53 13.29, -14.35 7.36 M0.35 14.84 C-3.8 11.23, -7.94 7.63, -10.21 5.65 M0.35 14.84 C-3.78 11.25, -7.91 7.65, -10.21 5.65 M-0.04 9.2 C-2.59 6.98, -5.14 4.76, -6.84 3.29 M-0.04 9.2 C-1.88 7.6, -3.71 6.01, -6.84 3.29 M0.32 4.21 C-0.55 3.46, -1.41 2.71, -2.7 1.58 M0.32 4.21 C-0.49 3.5, -1.3 2.8, -2.7 1.58" stroke="#d0bfff" stroke-width="0.5" fill="none"></path><path d="M0 0 C-13.33 7.31, -26.66 14.62, -36.43 19.97 M0 0 C-9.41 5.16, -18.83 10.32, -36.43 19.97 M-36.43 19.97 C-29.04 19.98, -21.65 19.98, 0.01 20 M-36.43 19.97 C-29.07 19.98, -21.72 19.98, 0.01 20 M0.01 20 C0 12.32, 0 4.64, 0 0 M0.01 20 C0 12.7, 0 5.4, 0 0 M0 0 C0 0, 0 0, 0 0 M0 0 C0 0, 0 0, 0 0" stroke="#d0bfff" stroke-width="1" fill="none"></path></g></g><mask></mask><g stroke-linecap="round" transform="translate(46.016141581382726 58.143980247298884) rotate(0 15.050853953069378 13.261541869964447)"><path d="M0 0 C0 0, 0 0, 0 0 M0 0 C0 0, 0 0, 0 0 M-0.26 6.4 C1.16 4.76, 2.59 3.12, 4.99 0.36 M-0.26 6.4 C1.04 4.9, 2.34 3.4, 4.99 0.36 M0.13 12.04 C2.46 9.37, 4.78 6.69, 10.63 -0.03 M0.13 12.04 C2.24 9.61, 4.36 7.18, 10.63 -0.03 M-0.13 18.44 C3.97 13.72, 8.07 9.01, 15.62 0.33 M-0.13 18.44 C3.47 14.29, 7.08 10.15, 15.62 0.33 M0.27 24.08 C5.24 18.36, 10.21 12.65, 21.26 -0.07 M0.27 24.08 C8.14 15.03, 16.01 5.98, 21.26 -0.07 M3.29 26.71 C8.18 21.08, 13.07 15.44, 26.25 0.29 M3.29 26.71 C10.11 18.85, 16.94 11, 26.25 0.29 M8.27 27.07 C16.3 17.83, 24.32 8.6, 30.58 1.41 M8.27 27.07 C14.4 20.02, 20.52 12.97, 30.58 1.41 M13.92 26.67 C17.98 21.99, 22.05 17.31, 30.32 7.8 M13.92 26.67 C17.39 22.68, 20.86 18.68, 30.32 7.8 M18.9 27.03 C22.75 22.61, 26.59 18.19, 30.06 14.2 M18.9 27.03 C21.66 23.86, 24.42 20.69, 30.06 14.2 M24.55 26.64 C26.35 24.57, 28.15 22.5, 30.45 19.84 M24.55 26.64 C26.66 24.2, 28.78 21.77, 30.45 19.84 M29.53 27 C29.71 26.8, 29.88 26.59, 30.19 26.24 M29.53 27 C29.77 26.72, 30.01 26.44, 30.19 26.24 M-0.3 26.26 C-0.3 26.26, -0.3 26.26, -0.3 26.26 M-0.3 26.26 C-0.3 26.26, -0.3 26.26, -0.3 26.26 M6.1 26.52 C4.14 24.82, 2.18 23.12, 0.06 21.27 M6.1 26.52 C4.65 25.26, 3.2 24.01, 0.06 21.27 M12.49 26.78 C7.97 22.85, 3.44 18.92, -0.34 15.63 M12.49 26.78 C9.52 24.2, 6.55 21.62, -0.34 15.63 M18.14 26.39 C13.85 22.67, 9.57 18.94, 0.02 10.64 M18.14 26.39 C11 20.19, 3.87 13.99, 0.02 10.64 M24.53 26.65 C16.25 19.45, 7.96 12.24, -0.37 5 M24.53 26.65 C17.79 20.79, 11.05 14.92, -0.37 5 M30.18 26.26 C22.8 19.84, 15.43 13.43, -0.01 0.01 M30.18 26.26 C21.43 18.65, 12.68 11.05, -0.01 0.01 M30.54 21.27 C22.52 14.3, 14.5 7.32, 4.88 -1.04 M30.54 21.27 C21.11 13.08, 11.69 4.88, 4.88 -1.04 M30.14 15.63 C24.27 10.52, 18.39 5.41, 11.27 -0.78 M30.14 15.63 C24.19 10.45, 18.25 5.28, 11.27 -0.78 M30.5 10.64 C26.12 6.83, 21.74 3.02, 17.67 -0.51 M30.5 10.64 C27.33 7.88, 24.15 5.12, 17.67 -0.51 M30.11 5 C27.92 3.09, 25.72 1.18, 23.32 -0.91 M30.11 5 C27.49 2.72, 24.87 0.44, 23.32 -0.91" stroke="#d0bfff" stroke-width="0.5" fill="none"></path><path d="M0 0 C9.42 0, 18.84 0, 30.1 0 M0 0 C8.69 0, 17.37 0, 30.1 0 M30.1 0 C30.1 5.96, 30.1 11.92, 30.1 26.52 M30.1 0 C30.1 6.92, 30.1 13.83, 30.1 26.52 M30.1 26.52 C20.8 26.52, 11.51 26.52, 0 26.52 M30.1 26.52 C21.53 26.52, 12.97 26.52, 0 26.52 M0 26.52 C0 17.21, 0 7.89, 0 0 M0 26.52 C0 20.52, 0 14.53, 0 0" stroke="#d0bfff" stroke-width="1" fill="none"></path></g><g stroke-linecap="round"><g transform="translate(338.76402689242576 282.5457870104389) rotate(268.4272093157782 29.549685216268898 26.64234522343459)" fill-rule="evenodd"><path d="M0 0 C0 0, 0 0, 0 0 M0 0 C0 0, 0 0, 0 0 M-0.26 6.4 C0.62 5.39, 1.49 4.38, 3.02 2.62 M-0.26 6.4 C0.95 5, 2.17 3.6, 3.02 2.62 M-0.52 12.8 C1.78 10.14, 4.09 7.49, 6.04 5.25 M-0.52 12.8 C1.04 10.99, 2.61 9.19, 6.04 5.25 M-0.78 19.19 C1.37 16.71, 3.53 14.23, 9.06 7.87 M-0.78 19.19 C1.37 16.71, 3.52 14.24, 9.06 7.87 M-1.05 25.59 C2.75 21.22, 6.55 16.85, 12.08 10.5 M-1.05 25.59 C3.76 20.06, 8.56 14.54, 12.08 10.5 M-0.65 31.23 C4.58 25.21, 9.82 19.19, 15.09 13.12 M-0.65 31.23 C2.69 27.39, 6.03 23.55, 15.09 13.12 M3.68 32.35 C8.92 26.33, 14.15 20.3, 18.11 15.75 M3.68 32.35 C9.04 26.18, 14.41 20.01, 18.11 15.75 M7.35 34.22 C11.96 28.92, 16.57 23.62, 21.13 18.37 M7.35 34.22 C12.16 28.7, 16.96 23.17, 21.13 18.37 M11.69 35.33 C14.6 31.98, 17.52 28.62, 24.15 20.99 M11.69 35.33 C15.95 30.42, 20.22 25.51, 24.15 20.99 M15.36 37.2 C19.78 32.11, 24.21 27.02, 27.17 23.62 M15.36 37.2 C18.37 33.75, 21.37 30.29, 27.17 23.62 M19.69 38.32 C22.72 34.83, 25.76 31.34, 30.19 26.24 M19.69 38.32 C22.78 34.77, 25.87 31.21, 30.19 26.24 M23.37 40.19 C25.57 37.65, 27.77 35.12, 33.21 28.87 M23.37 40.19 C27.15 35.83, 30.94 31.47, 33.21 28.87 M27.7 41.3 C29.69 39.01, 31.69 36.71, 36.23 31.49 M27.7 41.3 C30.86 37.66, 34.02 34.03, 36.23 31.49 M31.37 43.17 C33.36 40.89, 35.34 38.6, 38.59 34.87 M31.37 43.17 C32.98 41.32, 34.58 39.48, 38.59 34.87 M35.7 44.29 C37.46 42.26, 39.23 40.23, 41.61 37.49 M35.7 44.29 C37.14 42.63, 38.59 40.97, 41.61 37.49 M39.38 46.16 C41.18 44.08, 42.98 42.01, 44.63 40.12 M39.38 46.16 C40.84 44.47, 42.3 42.79, 44.63 40.12 M43.71 47.27 C44.62 46.22, 45.54 45.16, 47.65 42.74 M43.71 47.27 C44.95 45.85, 46.18 44.42, 47.65 42.74 M47.38 49.14 C48.25 48.14, 49.12 47.14, 50.66 45.37 M47.38 49.14 C48.34 48.04, 49.3 46.94, 50.66 45.37 M51.71 50.26 C52.32 49.55, 52.93 48.85, 53.68 47.99 M51.71 50.26 C52.32 49.55, 52.93 48.85, 53.68 47.99 M55.39 52.12 C55.78 51.67, 56.17 51.22, 56.7 50.62 M55.39 52.12 C55.69 51.78, 55.99 51.43, 56.7 50.62 M59.72 53.24 C59.72 53.24, 59.72 53.24, 59.72 53.24 M59.72 53.24 C59.72 53.24, 59.72 53.24, 59.72 53.24 M-0.57 31.14 C-0.57 31.14, -0.57 31.14, -0.57 31.14 M-0.57 31.14 C-0.57 31.14, -0.57 31.14, -0.57 31.14 M9.6 34.68 C5.48 31.1, 1.36 27.51, -0.96 25.5 M9.6 34.68 C7.2 32.59, 4.79 30.5, -0.96 25.5 M20.53 38.88 C15.34 34.37, 10.16 29.86, -0.6 20.51 M20.53 38.88 C14.43 33.57, 8.32 28.27, -0.6 20.51 M30.7 42.42 C19.91 33.04, 9.11 23.65, -0.24 15.52 M30.7 42.42 C23.02 35.74, 15.34 29.07, -0.24 15.52 M41.63 46.62 C25.35 32.47, 9.07 18.32, -0.64 9.88 M41.63 46.62 C29.57 36.14, 17.52 25.66, -0.64 9.88 M51.8 50.16 C33.09 33.9, 14.38 17.64, -0.28 4.89 M51.8 50.16 C31.62 32.62, 11.45 15.09, -0.28 4.89" stroke="#d0bfff" stroke-width="0.5" fill="none"></path><path d="M0 0 C20.56 18.25, 41.12 36.5, 60.02 53.28 M0 0 C22.15 19.66, 44.3 39.33, 60.02 53.28 M60.02 53.28 C44.84 47.69, 29.65 42.09, -0.92 30.83 M60.02 53.28 C44.58 47.6, 29.15 41.91, -0.92 30.83 M-0.92 30.83 C-0.71 23.54, -0.49 16.25, 0 0 M-0.92 30.83 C-0.64 21.36, -0.36 11.88, 0 0 M0 0 C0 0, 0 0, 0 0 M0 0 C0 0, 0 0, 0 0" stroke="#d0bfff" stroke-width="1" fill="none"></path></g></g><mask></mask></svg>