<svg version="1.1" xmlns="http://www.w3.org/2000/svg" viewBox="0 0 1297.1953966301503 377.7614236398836" width="1297.1953966301503" height="377.7614236398836" class="excalidraw-svg"><!-- svg-source:excalidraw --><metadata></metadata><defs><style class="style-fonts">
      </style></defs><rect x="0" y="0" width="1297.1953966301503" height="377.7614236398836" fill="#ffffff"></rect><g stroke-linecap="round" transform="translate(483.0797681052796 98.40199669979947) rotate(0 92 92)"><path d="M0 0 C0 0, 0 0, 0 0 M0 0 C0 0, 0 0, 0 0 M0.13 12.04 C3.82 7.79, 7.52 3.55, 10.63 -0.03 M0.13 12.04 C3.49 8.18, 6.84 4.32, 10.63 -0.03 M0.27 24.08 C8.01 15.17, 15.76 6.26, 21.26 -0.07 M0.27 24.08 C7.31 15.98, 14.35 7.88, 21.26 -0.07 M-0.26 36.88 C6.44 29.17, 13.14 21.46, 31.89 -0.1 M-0.26 36.88 C8.85 26.4, 17.96 15.92, 31.89 -0.1 M-0.12 48.92 C16.42 29.89, 32.97 10.85, 42.52 -0.14 M-0.12 48.92 C13.12 33.68, 26.36 18.45, 42.52 -0.14 M0.01 60.96 C19.74 38.26, 39.47 15.57, 53.15 -0.17 M0.01 60.96 C12.82 46.22, 25.63 31.48, 53.15 -0.17 M0.14 73 C23.92 45.64, 47.7 18.29, 63.78 -0.21 M0.14 73 C17.25 53.32, 34.35 33.65, 63.78 -0.21 M0.28 85.04 C27.59 53.62, 54.91 22.19, 74.41 -0.24 M0.28 85.04 C18.92 63.59, 37.57 42.14, 74.41 -0.24 M-0.25 97.84 C24.77 69.06, 49.79 40.27, 85.04 -0.28 M-0.25 97.84 C17.21 77.76, 34.66 57.68, 85.04 -0.28 M-0.11 109.88 C24.44 81.63, 49 53.38, 95.67 -0.31 M-0.11 109.88 C37.72 66.35, 75.56 22.83, 95.67 -0.31 M0.02 121.92 C36.41 80.06, 72.79 38.2, 106.3 -0.34 M0.02 121.92 C24.94 93.25, 49.86 64.58, 106.3 -0.34 M0.15 133.96 C25.62 104.67, 51.08 75.37, 116.27 0.38 M0.15 133.96 C43.57 84.02, 86.98 34.07, 116.27 0.38 M0.29 146 C43.87 95.86, 87.45 45.72, 126.91 0.34 M0.29 146 C50.5 88.24, 100.71 30.48, 126.91 0.34 M-0.24 158.8 C50.71 100.18, 101.67 41.57, 137.54 0.31 M-0.24 158.8 C42.79 109.3, 85.81 59.81, 137.54 0.31 M-0.1 170.84 C51.86 111.05, 103.83 51.27, 148.17 0.27 M-0.1 170.84 C37.1 128.04, 74.31 85.24, 148.17 0.27 M0.03 182.88 C55.38 119.2, 110.74 55.52, 158.8 0.24 M0.03 182.88 C56.59 117.81, 113.16 52.74, 158.8 0.24 M9.35 184.35 C47.92 139.98, 86.49 95.61, 169.43 0.2 M9.35 184.35 C54.11 132.86, 98.87 81.36, 169.43 0.2 M19.98 184.32 C71.94 124.55, 123.89 64.77, 180.06 0.17 M19.98 184.32 C63.8 133.9, 107.62 83.49, 180.06 0.17 M30.61 184.28 C80.26 127.16, 129.92 70.04, 184.12 7.68 M30.61 184.28 C74.59 133.69, 118.57 83.09, 184.12 7.68 M41.24 184.25 C97.66 119.34, 154.09 54.43, 184.26 19.72 M41.24 184.25 C77.64 142.37, 114.05 100.49, 184.26 19.72 M51.87 184.21 C96.13 133.3, 140.39 82.38, 184.39 31.76 M51.87 184.21 C104.51 123.65, 157.16 63.09, 184.39 31.76 M62.5 184.18 C109.05 130.63, 155.59 77.08, 183.87 44.56 M62.5 184.18 C100.16 140.85, 137.83 97.52, 183.87 44.56 M73.13 184.14 C99.36 153.96, 125.6 123.78, 184 56.6 M73.13 184.14 C101.9 151.04, 130.68 117.94, 184 56.6 M83.76 184.11 C108.33 155.85, 132.89 127.59, 184.13 68.64 M83.76 184.11 C111.32 152.4, 138.88 120.69, 184.13 68.64 M94.39 184.08 C114.49 160.95, 134.59 137.83, 184.27 80.68 M94.39 184.08 C116.21 158.97, 138.03 133.87, 184.27 80.68 M105.02 184.04 C125.62 160.34, 146.22 136.64, 184.4 92.72 M105.02 184.04 C121.12 165.52, 137.22 147, 184.4 92.72 M115.65 184.01 C137.17 159.25, 158.69 134.5, 183.88 105.52 M115.65 184.01 C131.91 165.29, 148.18 146.58, 183.88 105.52 M126.28 183.97 C139.98 168.22, 153.67 152.46, 184.01 117.56 M126.28 183.97 C147.77 159.25, 169.26 134.53, 184.01 117.56 M136.91 183.94 C153.93 164.36, 170.95 144.77, 184.14 129.6 M136.91 183.94 C149.17 169.83, 161.43 155.73, 184.14 129.6 M147.54 183.9 C159.13 170.57, 170.72 157.24, 184.28 141.64 M147.54 183.9 C157.9 171.98, 168.27 160.06, 184.28 141.64 M158.17 183.87 C164.34 176.77, 170.51 169.67, 184.41 153.68 M158.17 183.87 C164.5 176.58, 170.84 169.29, 184.41 153.68 M168.8 183.83 C174.23 177.59, 179.66 171.34, 183.89 166.48 M168.8 183.83 C172.62 179.44, 176.44 175.04, 183.89 166.48 M178.77 184.55 C180.06 183.08, 181.34 181.6, 184.02 178.52 M178.77 184.55 C180.04 183.1, 181.3 181.64, 184.02 178.52 M0.22 184.19 C0.22 184.19, 0.22 184.19, 0.22 184.19 M0.22 184.19 C0.22 184.19, 0.22 184.19, 0.22 184.19 M12.26 184.05 C8.38 180.68, 4.5 177.31, 0.18 173.56 M12.26 184.05 C9.39 181.57, 6.53 179.08, 0.18 173.56 M24.3 183.92 C18.24 178.66, 12.19 173.4, 0.15 162.93 M24.3 183.92 C15.27 176.07, 6.24 168.23, 0.15 162.93 M36.34 183.79 C28.13 176.65, 19.93 169.52, 0.11 152.3 M36.34 183.79 C24.37 173.38, 12.4 162.98, 0.11 152.3 M49.13 184.31 C35.94 172.85, 22.75 161.38, 0.08 141.67 M49.13 184.31 C35.67 172.61, 22.21 160.9, 0.08 141.67 M61.17 184.18 C39.82 165.62, 18.48 147.06, 0.04 131.04 M61.17 184.18 C40.17 165.92, 19.16 147.66, 0.04 131.04 M73.22 184.04 C44.13 158.76, 15.05 133.49, 0.01 120.41 M73.22 184.04 C48.37 162.44, 23.52 140.84, 0.01 120.41 M85.26 183.91 C59.1 161.17, 32.94 138.43, -0.03 109.78 M85.26 183.91 C66.4 167.52, 47.54 151.12, -0.03 109.78 M97.3 183.78 C64 154.83, 30.7 125.88, -0.06 99.15 M97.3 183.78 C58.43 149.99, 19.56 116.2, -0.06 99.15 M110.09 184.3 C72.15 151.32, 34.21 118.34, -0.1 88.52 M110.09 184.3 C84.82 162.33, 59.54 140.36, -0.1 88.52 M122.13 184.17 C80.84 148.28, 39.56 112.38, -0.13 77.89 M122.13 184.17 C84.71 151.63, 47.28 119.1, -0.13 77.89 M134.17 184.03 C89.1 144.85, 44.02 105.67, -0.16 67.26 M134.17 184.03 C86.27 142.39, 38.37 100.75, -0.16 67.26 M146.21 183.9 C95.45 139.77, 44.68 95.63, -0.2 56.63 M146.21 183.9 C97.27 141.36, 48.33 98.81, -0.2 56.63 M158.26 183.77 C97.72 131.14, 37.18 78.52, -0.23 46 M158.26 183.77 C108.68 140.67, 59.1 97.57, -0.23 46 M171.05 184.29 C126.53 145.59, 82.01 106.89, -0.27 35.37 M171.05 184.29 C106 127.74, 40.95 71.19, -0.27 35.37 M183.09 184.16 C143.96 150.14, 104.83 116.13, -0.3 24.74 M183.09 184.16 C122.56 131.54, 62.02 78.92, -0.3 24.74 M183.81 174.18 C129.33 126.82, 74.84 79.46, -0.34 14.11 M183.81 174.18 C117.45 116.5, 51.09 58.81, -0.34 14.11 M184.53 164.21 C112.87 101.91, 41.2 39.62, -0.37 3.48 M184.53 164.21 C117.56 105.99, 50.58 47.77, -0.37 3.48 M184.5 153.58 C148.88 122.62, 113.27 91.66, 7.9 0.06 M184.5 153.58 C146.34 120.41, 108.18 87.24, 7.9 0.06 M184.46 142.95 C136.65 101.39, 88.85 59.83, 19.94 -0.07 M184.46 142.95 C137.58 102.19, 90.69 61.43, 19.94 -0.07 M184.43 132.32 C145.97 98.88, 107.5 65.45, 31.98 -0.2 M184.43 132.32 C137.41 91.44, 90.39 50.57, 31.98 -0.2 M184.39 121.69 C137.16 80.63, 89.92 39.56, 44.02 -0.34 M184.39 121.69 C142.85 85.57, 101.3 49.46, 44.02 -0.34 M184.36 111.06 C152.35 83.24, 120.35 55.41, 56.81 0.19 M184.36 111.06 C156.17 86.55, 127.97 62.04, 56.81 0.19 M184.33 100.43 C141.88 63.53, 99.43 26.63, 68.86 0.05 M184.33 100.43 C147.99 68.84, 111.65 37.26, 68.86 0.05 M184.29 89.8 C150.28 60.24, 116.27 30.67, 80.9 -0.08 M184.29 89.8 C147.14 57.51, 109.99 25.21, 80.9 -0.08 M184.26 79.17 C161.05 58.99, 137.83 38.81, 92.94 -0.21 M184.26 79.17 C149.33 48.81, 114.41 18.45, 92.94 -0.21 M184.22 68.54 C156.83 44.73, 129.45 20.92, 104.98 -0.35 M184.22 68.54 C156.45 44.39, 128.67 20.25, 104.98 -0.35 M184.19 57.91 C164.61 40.89, 145.03 23.87, 117.77 0.18 M184.19 57.91 C166.75 42.75, 149.32 27.6, 117.77 0.18 M184.15 47.28 C168.47 33.65, 152.79 20.01, 129.81 0.04 M184.15 47.28 C170.9 35.76, 157.66 24.24, 129.81 0.04 M184.12 36.65 C174.99 28.71, 165.86 20.78, 141.85 -0.09 M184.12 36.65 C173.98 27.83, 163.83 19.02, 141.85 -0.09 M184.08 26.02 C175.83 18.84, 167.57 11.66, 153.9 -0.22 M184.08 26.02 C174.72 17.88, 165.35 9.73, 153.9 -0.22 M184.05 15.39 C177.3 9.52, 170.56 3.66, 165.94 -0.36 M184.05 15.39 C178.22 10.32, 172.39 5.25, 165.94 -0.36 M184.02 4.76 C182.2 3.18, 180.38 1.6, 178.73 0.17 M184.02 4.76 C182.73 3.64, 181.45 2.53, 178.73 0.17" stroke="#777" stroke-width="1" fill="none"></path><path d="M0 0 C48.23 0, 96.45 0, 184 0 M0 0 C72.21 0, 144.41 0, 184 0 M184 0 C184 52.39, 184 104.79, 184 184 M184 0 C184 45.97, 184 91.94, 184 184 M184 184 C128.25 184, 72.5 184, 0 184 M184 184 C116.62 184, 49.23 184, 0 184 M0 184 C0 146.99, 0 109.98, 0 0 M0 184 C0 126.33, 0 68.66, 0 0" stroke="#777" stroke-width="2" fill="none"></path></g><g stroke-linecap="round" transform="translate(735.1252201052796 10) rotate(0 125 178.8807118199418)"><path d="M126.22 -0.25 C126.22 -0.25, 126.22 -0.25, 126.22 -0.25 M126.22 -0.25 C126.22 -0.25, 126.22 -0.25, 126.22 -0.25 M81.09 63.86 C99.26 42.95, 117.44 22.05, 130.95 6.5 M81.09 63.86 C91.16 52.27, 101.24 40.68, 130.95 6.5 M35.95 127.98 C61.17 98.96, 86.4 69.94, 135.67 13.26 M35.95 127.98 C60.1 100.19, 84.25 72.41, 135.67 13.26 M1.31 180.02 C51.65 122.11, 101.99 64.2, 140.4 20.02 M1.31 180.02 C51.27 122.55, 101.23 65.08, 140.4 20.02 M6.04 186.78 C51.81 134.13, 97.58 81.48, 145.12 26.78 M6.04 186.78 C43.38 143.82, 80.72 100.86, 145.12 26.78 M10.76 193.53 C60.94 135.81, 111.12 78.09, 149.19 34.29 M10.76 193.53 C57.4 139.89, 104.03 86.25, 149.19 34.29 M15.49 200.29 C49.69 160.95, 83.88 121.61, 153.92 41.05 M15.49 200.29 C53.73 156.3, 91.97 112.31, 153.92 41.05 M20.22 207.05 C68.75 151.22, 117.28 95.39, 158.64 47.81 M20.22 207.05 C53.08 169.24, 85.95 131.44, 158.64 47.81 M24.94 213.81 C56.82 177.13, 88.71 140.45, 163.37 54.56 M24.94 213.81 C66.99 165.44, 109.03 117.07, 163.37 54.56 M29.67 220.57 C62.73 182.53, 95.79 144.5, 168.09 61.32 M29.67 220.57 C82.96 159.26, 136.26 97.95, 168.09 61.32 M34.39 227.32 C80.15 174.68, 125.91 122.04, 172.82 68.08 M34.39 227.32 C77.45 177.79, 120.51 128.25, 172.82 68.08 M39.12 234.08 C76.2 191.42, 113.28 148.77, 177.55 74.84 M39.12 234.08 C84.2 182.22, 129.28 130.36, 177.55 74.84 M43.84 240.84 C75.33 204.62, 106.82 168.4, 182.27 81.6 M43.84 240.84 C96.47 180.3, 149.1 119.75, 182.27 81.6 M48.57 247.6 C77.15 214.71, 105.74 181.83, 187 88.35 M48.57 247.6 C80.04 211.39, 111.51 175.19, 187 88.35 M53.29 254.35 C84.98 217.9, 116.67 181.45, 191.72 95.11 M53.29 254.35 C96.9 204.19, 140.5 154.04, 191.72 95.11 M58.02 261.11 C106.69 205.12, 155.37 149.12, 196.45 101.87 M58.02 261.11 C96.76 216.55, 135.49 171.99, 196.45 101.87 M62.75 267.87 C100.24 224.74, 137.74 181.6, 201.17 108.63 M62.75 267.87 C96.13 229.46, 129.52 191.06, 201.17 108.63 M67.47 274.63 C112.92 222.35, 158.37 170.06, 205.9 115.38 M67.47 274.63 C108.27 227.69, 149.08 180.75, 205.9 115.38 M72.2 281.39 C116.14 230.83, 160.09 180.28, 210.62 122.14 M72.2 281.39 C100.77 248.52, 129.34 215.66, 210.62 122.14 M76.92 288.14 C117.03 242, 157.14 195.86, 215.35 128.9 M76.92 288.14 C119.24 239.46, 161.56 190.78, 215.35 128.9 M81.65 294.9 C131.61 237.43, 181.57 179.95, 220.08 135.66 M81.65 294.9 C134.26 234.38, 186.87 173.85, 220.08 135.66 M86.37 301.66 C130.29 251.14, 174.2 200.63, 224.8 142.42 M86.37 301.66 C137.33 243.04, 188.29 184.42, 224.8 142.42 M91.1 308.42 C121.78 273.13, 152.46 237.83, 229.53 149.17 M91.1 308.42 C126.21 268.03, 161.31 227.65, 229.53 149.17 M95.82 315.18 C126.3 280.12, 156.77 245.06, 234.25 155.93 M95.82 315.18 C145.55 257.97, 195.28 200.77, 234.25 155.93 M100.55 321.93 C148.73 266.51, 196.91 211.09, 238.98 162.69 M100.55 321.93 C133.8 283.68, 167.06 245.42, 238.98 162.69 M105.28 328.69 C151.8 275.17, 198.32 221.66, 243.7 169.45 M105.28 328.69 C157.64 268.46, 210 208.22, 243.7 169.45 M110 335.45 C140.01 300.93, 170.02 266.41, 248.43 176.21 M110 335.45 C148.07 291.65, 186.15 247.85, 248.43 176.21 M114.73 342.21 C152.69 298.53, 190.66 254.86, 229.54 210.13 M114.73 342.21 C154.47 296.48, 194.22 250.76, 229.54 210.13 M119.45 348.97 C142.14 322.86, 164.84 296.76, 187.68 270.48 M119.45 348.97 C134.12 332.09, 148.79 315.21, 187.68 270.48 M124.18 355.72 C132.79 345.82, 141.4 335.91, 145.83 330.82 M124.18 355.72 C128.64 350.59, 133.1 345.46, 145.83 330.82 M126.15 357.89 C126.15 357.89, 126.15 357.89, 126.15 357.89 M126.15 357.89 C126.15 357.89, 126.15 357.89, 126.15 357.89 M130.64 351.19 C124.38 345.75, 118.12 340.31, 106.49 330.2 M130.64 351.19 C122.85 344.42, 115.06 337.65, 106.49 330.2 M135.13 344.5 C122.54 333.55, 109.94 322.6, 87.59 303.17 M135.13 344.5 C123.35 334.26, 111.57 324.02, 87.59 303.17 M139.63 337.81 C113.44 315.04, 87.26 292.28, 67.93 275.48 M139.63 337.81 C119.39 320.21, 99.14 302.62, 67.93 275.48 M144.12 331.11 C122.09 311.97, 100.07 292.82, 49.03 248.45 M144.12 331.11 C119.03 309.3, 93.93 287.49, 49.03 248.45 M148.62 324.42 C113.58 293.97, 78.55 263.51, 29.37 220.76 M148.62 324.42 C113.56 293.94, 78.5 263.47, 29.37 220.76 M153.86 318.38 C104.31 275.31, 54.76 232.23, 10.47 193.73 M153.86 318.38 C120.62 289.48, 87.37 260.58, 10.47 193.73 M158.36 311.69 C103.48 263.98, 48.59 216.27, 2.13 175.88 M158.36 311.69 C97.74 259, 37.13 206.31, 2.13 175.88 M162.85 304.99 C123.46 270.76, 84.08 236.52, 6.63 169.19 M162.85 304.99 C128.79 275.38, 94.73 245.77, 6.63 169.19 M167.34 298.3 C109.21 247.76, 51.07 197.22, 11.12 162.5 M167.34 298.3 C133.52 268.89, 99.69 239.49, 11.12 162.5 M171.84 291.61 C136.89 261.23, 101.94 230.85, 16.37 156.46 M171.84 291.61 C139.09 263.14, 106.34 234.67, 16.37 156.46 M176.33 284.91 C126.75 241.81, 77.17 198.72, 20.86 149.77 M176.33 284.91 C136.86 250.6, 97.39 216.29, 20.86 149.77 M180.83 278.22 C124.05 228.87, 67.28 179.52, 25.36 143.07 M180.83 278.22 C131.1 235, 81.38 191.77, 25.36 143.07 M185.32 271.53 C141.44 233.38, 97.57 195.24, 29.85 136.38 M185.32 271.53 C123.76 218.01, 62.19 164.49, 29.85 136.38 M190.57 265.49 C158.86 237.92, 127.14 210.35, 34.34 129.68 M190.57 265.49 C131.59 214.22, 72.62 162.95, 34.34 129.68 M195.06 258.79 C151.39 220.83, 107.72 182.87, 39.59 123.65 M195.06 258.79 C138.96 210.03, 82.86 161.26, 39.59 123.65 M199.56 252.1 C153.51 212.08, 107.47 172.05, 44.09 116.95 M199.56 252.1 C147.07 206.48, 94.59 160.85, 44.09 116.95 M204.05 245.41 C163.33 210.01, 122.62 174.62, 48.58 110.26 M204.05 245.41 C159.24 206.46, 114.44 167.51, 48.58 110.26 M208.54 238.71 C172.69 207.55, 136.84 176.38, 53.07 103.57 M208.54 238.71 C165.67 201.44, 122.79 164.17, 53.07 103.57 M213.04 232.02 C166.36 191.44, 119.69 150.87, 57.57 96.87 M213.04 232.02 C160.22 186.1, 107.39 140.19, 57.57 96.87 M217.53 225.33 C183.25 195.53, 148.98 165.73, 62.06 90.18 M217.53 225.33 C156.94 172.66, 96.36 119.99, 62.06 90.18 M222.02 218.63 C160.28 164.96, 98.54 111.29, 67.31 84.14 M222.02 218.63 C175.76 178.41, 129.49 138.2, 67.31 84.14 M227.27 212.59 C179.39 170.97, 131.51 129.34, 71.8 77.45 M227.27 212.59 C165.27 158.69, 103.26 104.79, 71.8 77.45 M231.77 205.9 C186.72 166.74, 141.68 127.59, 76.3 70.75 M231.77 205.9 C174.01 155.7, 116.26 105.49, 76.3 70.75 M236.26 199.21 C179.74 150.08, 123.23 100.95, 80.79 64.06 M236.26 199.21 C182.7 152.65, 129.14 106.08, 80.79 64.06 M240.75 192.51 C204.74 161.21, 168.73 129.9, 85.28 57.37 M240.75 192.51 C181 140.57, 121.24 88.62, 85.28 57.37 M245.25 185.82 C201.07 147.41, 156.89 109.01, 90.53 51.33 M245.25 185.82 C184.91 133.37, 124.57 80.91, 90.53 51.33 M249.74 179.13 C216.89 150.57, 184.04 122.01, 95.03 44.63 M249.74 179.13 C189.89 127.1, 130.04 75.07, 95.03 44.63 M234.61 155.37 C207.5 131.81, 180.39 108.24, 99.52 37.94 M234.61 155.37 C204.84 129.49, 175.06 103.61, 99.52 37.94 M215.71 128.34 C176.9 94.6, 138.09 60.87, 104.01 31.25 M215.71 128.34 C187.78 104.07, 159.86 79.79, 104.01 31.25 M197.56 101.97 C174.08 81.55, 150.6 61.14, 108.51 24.55 M197.56 101.97 C175.95 83.18, 154.34 64.39, 108.51 24.55 M178.66 74.94 C160.22 58.9, 141.78 42.87, 113 17.86 M178.66 74.94 C161.15 59.71, 143.63 44.48, 113 17.86 M160.51 48.56 C149.64 39.1, 138.76 29.65, 118.25 11.82 M160.51 48.56 C144.21 34.39, 127.91 20.22, 118.25 11.82 M142.37 22.19 C134.82 15.63, 127.28 9.07, 122.74 5.13 M142.37 22.19 C135.46 16.18, 128.56 10.18, 122.74 5.13" stroke="#777" stroke-width="1" fill="none"></path><path d="M126 0 C158.56 47.01, 191.13 94.02, 250 179 M126 0 C162.96 53.35, 199.92 106.71, 250 179 M250 179 C215.03 229.42, 180.05 279.84, 126 357.76 M250 179 C219.03 223.65, 188.05 268.31, 126 357.76 M126 357.76 C91.62 308.98, 57.23 260.2, 0 179 M126 357.76 C76.79 287.95, 27.59 218.14, 0 179 M0 179 C39.56 122.8, 79.12 66.61, 126 0 M0 179 C48.53 110.06, 97.05 41.12, 126 0" stroke="#777" stroke-width="2" fill="none"></path></g><g stroke-linecap="round" transform="translate(10 108.99280844774543) rotate(0 202.51715821978127 86.70459373323968)"><path d="M0 0 C0 0, 0 0, 0 0 M0 0 C0 0, 0 0, 0 0 M0.13 12.04 C3.19 8.52, 6.26 5, 10.63 -0.03 M0.13 12.04 C2.53 9.29, 4.92 6.53, 10.63 -0.03 M0.27 24.08 C5.01 18.62, 9.76 13.17, 21.26 -0.07 M0.27 24.08 C6.05 17.43, 11.83 10.78, 21.26 -0.07 M-0.26 36.88 C11.88 22.92, 24.02 8.95, 31.89 -0.1 M-0.26 36.88 C8.54 26.76, 17.34 16.64, 31.89 -0.1 M-0.12 48.92 C11.16 35.94, 22.45 22.95, 42.52 -0.14 M-0.12 48.92 C11.11 35.99, 22.34 23.07, 42.52 -0.14 M0.01 60.96 C14.03 44.83, 28.05 28.7, 53.15 -0.17 M0.01 60.96 C13.27 45.7, 26.53 30.45, 53.15 -0.17 M0.14 73 C13.87 57.2, 27.61 41.41, 63.78 -0.21 M0.14 73 C18.87 51.45, 37.6 29.91, 63.78 -0.21 M0.28 85.04 C17.46 65.28, 34.64 45.51, 74.41 -0.24 M0.28 85.04 C15.94 67.02, 31.61 49, 74.41 -0.24 M-0.25 97.84 C25.32 68.43, 50.89 39.02, 85.04 -0.28 M-0.25 97.84 C21.88 72.39, 44 46.94, 85.04 -0.28 M-0.11 109.88 C27.74 77.84, 55.59 45.79, 95.67 -0.31 M-0.11 109.88 C22.51 83.85, 45.13 57.83, 95.67 -0.31 M0.02 121.92 C38.82 77.28, 77.63 32.64, 106.3 -0.34 M0.02 121.92 C39.55 76.44, 79.08 30.97, 106.3 -0.34 M0.15 133.96 C44.1 83.4, 88.05 32.85, 116.27 0.38 M0.15 133.96 C26.08 104.13, 52.02 74.3, 116.27 0.38 M0.29 146 C36.8 103.99, 73.31 61.99, 126.91 0.34 M0.29 146 C46.76 92.54, 93.24 39.07, 126.91 0.34 M-0.24 158.8 C49.42 101.67, 99.07 44.55, 137.54 0.31 M-0.24 158.8 C40.24 112.24, 80.71 65.68, 137.54 0.31 M-0.1 170.84 C55.4 106.98, 110.91 43.13, 148.17 0.27 M-0.1 170.84 C44.63 119.38, 89.36 67.92, 148.17 0.27 M7.9 173.82 C42.68 133.81, 77.46 93.8, 158.8 0.24 M7.9 173.82 C66.82 106.04, 125.74 38.27, 158.8 0.24 M18.53 173.79 C72.23 112.01, 125.93 50.24, 169.43 0.2 M18.53 173.79 C72.06 112.21, 125.59 50.63, 169.43 0.2 M29.16 173.75 C76.03 119.84, 122.89 65.93, 180.06 0.17 M29.16 173.75 C71.14 125.47, 113.11 77.18, 180.06 0.17 M39.79 173.72 C99.23 105.34, 158.68 36.95, 190.69 0.13 M39.79 173.72 C74.03 134.33, 108.28 94.93, 190.69 0.13 M50.42 173.68 C88.26 130.15, 126.1 86.63, 201.32 0.1 M50.42 173.68 C102.27 114.04, 154.12 54.4, 201.32 0.1 M61.05 173.65 C102.95 125.45, 144.84 77.26, 211.95 0.06 M61.05 173.65 C112.49 114.48, 163.92 55.31, 211.95 0.06 M71.68 173.61 C106.27 133.83, 140.85 94.05, 222.58 0.03 M71.68 173.61 C131.33 105, 190.97 36.39, 222.58 0.03 M82.31 173.58 C116.15 134.65, 149.99 95.73, 233.21 0 M82.31 173.58 C118.68 131.74, 155.05 89.91, 233.21 0 M92.94 173.54 C146.08 112.41, 199.22 51.28, 243.84 -0.04 M92.94 173.54 C132.72 127.79, 172.5 82.03, 243.84 -0.04 M103.57 173.51 C145.69 125.06, 187.8 76.62, 254.47 -0.07 M103.57 173.51 C162.99 105.16, 222.4 36.82, 254.47 -0.07 M114.2 173.48 C152.55 129.36, 190.89 85.25, 265.1 -0.11 M114.2 173.48 C144.52 138.6, 174.84 103.72, 265.1 -0.11 M124.83 173.44 C172.46 118.65, 220.1 63.85, 275.73 -0.14 M124.83 173.44 C183.27 106.21, 241.71 38.99, 275.73 -0.14 M135.46 173.41 C180.37 121.75, 225.28 70.09, 286.36 -0.18 M135.46 173.41 C177.92 124.57, 220.37 75.73, 286.36 -0.18 M146.09 173.37 C181.64 132.48, 217.19 91.58, 296.99 -0.21 M146.09 173.37 C196.15 115.79, 246.21 58.2, 296.99 -0.21 M156.72 173.34 C213.05 108.54, 269.37 43.75, 307.62 -0.25 M156.72 173.34 C187.05 138.45, 217.37 103.57, 307.62 -0.25 M167.35 173.3 C222.97 109.32, 278.59 45.34, 318.25 -0.28 M167.35 173.3 C206.45 128.32, 245.55 83.35, 318.25 -0.28 M177.98 173.27 C223.24 121.2, 268.5 69.14, 328.88 -0.31 M177.98 173.27 C219.88 125.07, 261.78 76.87, 328.88 -0.31 M188.61 173.23 C229.74 125.93, 270.86 78.62, 339.51 -0.35 M188.61 173.23 C237.39 117.12, 286.17 61.01, 339.51 -0.35 M199.24 173.2 C232.98 134.39, 266.71 95.59, 349.48 0.37 M199.24 173.2 C237 129.77, 274.75 86.34, 349.48 0.37 M209.22 173.92 C259.53 116.05, 309.83 58.17, 360.11 0.34 M209.22 173.92 C269.56 104.51, 329.89 35.1, 360.11 0.34 M219.85 173.89 C253.36 135.33, 286.87 96.78, 370.74 0.3 M219.85 173.89 C262.62 124.68, 305.39 75.48, 370.74 0.3 M230.48 173.85 C285.6 110.44, 340.72 47.03, 381.37 0.27 M230.48 173.85 C273.72 124.1, 316.97 74.36, 381.37 0.27 M241.11 173.82 C285.74 122.47, 330.37 71.13, 392 0.23 M241.11 173.82 C295.09 111.72, 349.06 49.63, 392 0.23 M251.74 173.78 C283.5 137.24, 315.26 100.7, 402.63 0.2 M251.74 173.78 C297.44 121.2, 343.15 68.63, 402.63 0.2 M262.37 173.75 C316.28 111.73, 370.19 49.72, 405.39 9.22 M262.37 173.75 C302.35 127.76, 342.32 81.77, 405.39 9.22 M273 173.71 C317.97 121.98, 362.94 70.25, 405.52 21.26 M273 173.71 C311.45 129.48, 349.9 85.25, 405.52 21.26 M283.63 173.68 C323.07 128.31, 362.5 82.94, 405 34.06 M283.63 173.68 C317.14 135.12, 350.66 96.56, 405 34.06 M294.26 173.64 C322.01 141.72, 349.76 109.8, 405.13 46.1 M294.26 173.64 C317.72 146.66, 341.17 119.68, 405.13 46.1 M304.89 173.61 C337.75 135.81, 370.61 98.01, 405.27 58.14 M304.89 173.61 C344.71 127.79, 384.54 81.98, 405.27 58.14 M315.52 173.57 C339.78 145.66, 364.05 117.75, 405.4 70.18 M315.52 173.57 C347.18 137.15, 378.84 100.73, 405.4 70.18 M326.15 173.54 C349.95 146.16, 373.76 118.77, 405.53 82.22 M326.15 173.54 C350.95 145.01, 375.75 116.48, 405.53 82.22 M336.78 173.51 C360.87 145.79, 384.96 118.07, 405.01 95.02 M336.78 173.51 C358.56 148.45, 380.34 123.39, 405.01 95.02 M347.41 173.47 C363.93 154.46, 380.46 135.45, 405.14 107.06 M347.41 173.47 C365.65 152.48, 383.9 131.49, 405.14 107.06 M358.04 173.44 C371.39 158.08, 384.74 142.72, 405.27 119.1 M358.04 173.44 C369.44 160.32, 380.84 147.21, 405.27 119.1 M368.67 173.4 C378.16 162.48, 387.66 151.56, 405.41 131.14 M368.67 173.4 C380.51 159.78, 392.36 146.15, 405.41 131.14 M379.3 173.37 C386.37 165.24, 393.44 157.1, 405.54 143.18 M379.3 173.37 C388.99 162.22, 398.68 151.07, 405.54 143.18 M389.93 173.33 C394.7 167.84, 399.48 162.35, 405.02 155.98 M389.93 173.33 C393.98 168.68, 398.02 164.02, 405.02 155.98 M400.56 173.3 C402.18 171.44, 403.8 169.57, 405.15 168.02 M400.56 173.3 C401.82 171.84, 403.09 170.39, 405.15 168.02 M0.18 173.56 C0.18 173.56, 0.18 173.56, 0.18 173.56 M0.18 173.56 C0.18 173.56, 0.18 173.56, 0.18 173.56 M12.22 173.43 C7.39 169.24, 2.57 165.04, 0.14 162.93 M12.22 173.43 C9.14 170.75, 6.06 168.08, 0.14 162.93 M24.26 173.3 C16.26 166.35, 8.27 159.4, 0.11 152.3 M24.26 173.3 C18.6 168.38, 12.95 163.47, 0.11 152.3 M36.3 173.16 C25.23 163.54, 14.17 153.92, 0.07 141.67 M36.3 173.16 C24.58 162.97, 12.85 152.78, 0.07 141.67 M49.09 173.69 C32.99 159.69, 16.89 145.69, 0.04 131.04 M49.09 173.69 C37.47 163.58, 25.85 153.48, 0.04 131.04 M61.14 173.55 C37.05 152.62, 12.97 131.69, 0 120.41 M61.14 173.55 C47.7 161.87, 34.26 150.19, 0 120.41 M73.18 173.42 C51.75 154.79, 30.32 136.17, -0.03 109.78 M73.18 173.42 C47.95 151.49, 22.73 129.57, -0.03 109.78 M85.22 173.29 C66.75 157.24, 48.29 141.19, -0.07 99.15 M85.22 173.29 C67.85 158.19, 50.49 143.1, -0.07 99.15 M97.26 173.15 C61.71 142.25, 26.15 111.34, -0.1 88.52 M97.26 173.15 C77.48 155.96, 57.71 138.77, -0.1 88.52 M110.05 173.68 C71.17 139.87, 32.28 106.07, -0.13 77.89 M110.05 173.68 C81.73 149.06, 53.41 124.44, -0.13 77.89 M122.09 173.54 C95.88 150.76, 69.67 127.97, -0.17 67.26 M122.09 173.54 C87.8 143.73, 53.5 113.92, -0.17 67.26 M134.13 173.41 C105.78 148.76, 77.43 124.11, -0.2 56.63 M134.13 173.41 C95.99 140.25, 57.85 107.1, -0.2 56.63 M146.18 173.28 C111.43 143.07, 76.68 112.86, -0.24 46 M146.18 173.28 C107.16 139.36, 68.14 105.44, -0.24 46 M158.22 173.14 C122.25 141.88, 86.28 110.61, -0.27 35.37 M158.22 173.14 C109.08 130.43, 59.94 87.71, -0.27 35.37 M171.01 173.67 C109.5 120.2, 47.99 66.73, -0.31 24.74 M171.01 173.67 C124.28 133.04, 77.55 92.42, -0.31 24.74 M183.05 173.53 C134.52 131.35, 86 89.16, -0.34 14.11 M183.05 173.53 C131.15 128.42, 79.25 83.3, -0.34 14.11 M195.09 173.4 C149.62 133.87, 104.14 94.34, -0.38 3.48 M195.09 173.4 C149.57 133.83, 104.05 94.26, -0.38 3.48 M207.13 173.27 C164.03 135.79, 120.92 98.32, 7.89 0.07 M207.13 173.27 C152.89 126.12, 98.65 78.96, 7.89 0.07 M219.18 173.13 C171.46 131.66, 123.74 90.18, 19.93 -0.07 M219.18 173.13 C158.96 120.79, 98.74 68.44, 19.93 -0.07 M231.97 173.66 C191.47 138.45, 150.96 103.24, 31.97 -0.2 M231.97 173.66 C178.14 126.87, 124.32 80.07, 31.97 -0.2 M244.01 173.52 C186.22 123.29, 128.43 73.05, 44.01 -0.33 M244.01 173.52 C192.39 128.65, 140.77 83.77, 44.01 -0.33 M256.05 173.39 C182.02 109.03, 107.98 44.67, 56.81 0.19 M256.05 173.39 C178.96 106.37, 101.87 39.36, 56.81 0.19 M268.09 173.26 C224.53 135.39, 180.97 97.52, 68.85 0.06 M268.09 173.26 C208.38 121.35, 148.66 69.44, 68.85 0.06 M280.13 173.12 C220.33 121.14, 160.52 69.15, 80.89 -0.08 M280.13 173.12 C228.19 127.97, 176.24 82.81, 80.89 -0.08 M292.93 173.65 C214.09 105.12, 135.26 36.58, 92.93 -0.21 M292.93 173.65 C243.32 130.52, 193.7 87.39, 92.93 -0.21 M304.97 173.51 C226.37 105.19, 147.77 36.86, 104.97 -0.34 M304.97 173.51 C255.47 130.49, 205.97 87.46, 104.97 -0.34 M317.01 173.38 C255.37 119.79, 193.72 66.2, 117.77 0.18 M317.01 173.38 C248.05 113.44, 179.09 53.49, 117.77 0.18 M329.05 173.25 C272.68 124.24, 216.3 75.24, 129.81 0.05 M329.05 173.25 C284 134.09, 238.95 94.92, 129.81 0.05 M341.09 173.11 C264.15 106.22, 187.2 39.33, 141.85 -0.09 M341.09 173.11 C289.57 128.32, 238.04 83.53, 141.85 -0.09 M353.89 173.64 C307.69 133.48, 261.49 93.32, 153.89 -0.22 M353.89 173.64 C274.43 104.57, 194.97 35.49, 153.89 -0.22 M365.93 173.5 C291 108.37, 216.07 43.23, 165.93 -0.35 M365.93 173.5 C311.48 126.17, 257.03 78.84, 165.93 -0.35 M377.97 173.37 C312.97 116.86, 247.96 60.36, 178.73 0.17 M377.97 173.37 C321.45 124.24, 264.94 75.11, 178.73 0.17 M390.01 173.24 C319.7 112.11, 249.38 50.99, 190.77 0.04 M390.01 173.24 C331.12 122.04, 272.23 70.85, 190.77 0.04 M402.05 173.1 C345.08 123.58, 288.1 74.05, 202.81 -0.09 M402.05 173.1 C336.37 116, 270.68 58.9, 202.81 -0.09 M405.04 165.1 C342.79 110.99, 280.55 56.88, 214.85 -0.23 M405.04 165.1 C355.78 122.28, 306.52 79.46, 214.85 -0.23 M405 154.47 C359.5 114.91, 314 75.36, 226.89 -0.36 M405 154.47 C351.26 107.75, 297.52 61.04, 226.89 -0.36 M404.97 143.84 C366.59 110.48, 328.22 77.12, 239.69 0.16 M404.97 143.84 C352.93 98.6, 300.89 53.37, 239.69 0.16 M404.93 133.21 C373.02 105.47, 341.11 77.73, 251.73 0.03 M404.93 133.21 C360.81 94.85, 316.68 56.49, 251.73 0.03 M404.9 122.58 C358.3 82.07, 311.7 41.56, 263.77 -0.1 M404.9 122.58 C371.42 93.47, 337.93 64.37, 263.77 -0.1 M404.86 111.95 C360.21 73.13, 315.56 34.31, 275.81 -0.24 M404.86 111.95 C366.32 78.44, 327.77 44.94, 275.81 -0.24 M405.58 101.97 C380.63 80.28, 355.68 58.59, 287.85 -0.37 M405.58 101.97 C379.42 79.23, 353.25 56.48, 287.85 -0.37 M405.55 91.34 C374.25 64.14, 342.95 36.93, 300.65 0.15 M405.55 91.34 C377.68 67.12, 349.81 42.89, 300.65 0.15 M405.52 80.71 C368.73 48.74, 331.95 16.76, 312.69 0.02 M405.52 80.71 C378.8 57.49, 352.08 34.26, 312.69 0.02 M405.48 70.08 C379.38 47.39, 353.28 24.7, 324.73 -0.11 M405.48 70.08 C385.87 53.04, 366.26 35.99, 324.73 -0.11 M405.45 59.45 C382.78 39.75, 360.11 20.05, 336.77 -0.25 M405.45 59.45 C386.65 43.11, 367.85 26.77, 336.77 -0.25 M405.41 48.82 C388.06 33.74, 370.7 18.65, 348.81 -0.38 M405.41 48.82 C393.75 38.69, 382.09 28.55, 348.81 -0.38 M405.38 38.19 C388.38 23.42, 371.38 8.64, 361.6 0.14 M405.38 38.19 C394.8 29, 384.23 19.81, 361.6 0.14 M405.34 27.56 C393.85 17.57, 382.36 7.58, 373.65 0.01 M405.34 27.56 C397.34 20.6, 389.33 13.64, 373.65 0.01 M405.31 16.93 C399.92 12.25, 394.54 7.57, 385.69 -0.12 M405.31 16.93 C399.91 12.24, 394.52 7.55, 385.69 -0.12 M405.27 6.3 C403.51 4.77, 401.75 3.24, 397.73 -0.26 M405.27 6.3 C403.75 4.98, 402.22 3.65, 397.73 -0.26" stroke="#777" stroke-width="1" fill="none"></path><path d="M0 0 C82.35 0, 164.71 0, 405.03 0 M0 0 C114.69 0, 229.37 0, 405.03 0 M405.03 0 C405.03 40.97, 405.03 81.94, 405.03 173.41 M405.03 0 C405.03 37.42, 405.03 74.85, 405.03 173.41 M405.03 173.41 C265.14 173.41, 125.24 173.41, 0 173.41 M405.03 173.41 C294.88 173.41, 184.73 173.41, 0 173.41 M0 173.41 C0 129.56, 0 85.71, 0 0 M0 173.41 C0 124.97, 0 76.53, 0 0" stroke="#777" stroke-width="2" fill="none"></path></g><g stroke-linecap="round"><g transform="translate(1158.5832792934334 10.000000542627731) rotate(0 5.684341886080802e-14 150.34132881338286)" fill-rule="evenodd"><path d="M0 0 C0 0, 0 0, 0 0 M0 0 C0 0, 0 0, 0 0 M-4.85 11.68 C-3.52 10.14, -2.18 8.6, 1.71 4.13 M-4.85 11.68 C-2.41 8.87, 0.03 6.07, 1.71 4.13 M-10.36 24.12 C-5.47 18.48, -0.57 12.85, 3.41 8.27 M-10.36 24.12 C-5.42 18.43, -0.48 12.74, 3.41 8.27 M-15.22 35.8 C-10.24 30.07, -5.26 24.34, 5.12 12.4 M-15.22 35.8 C-10.7 30.59, -6.17 25.39, 5.12 12.4 M-20.73 48.23 C-10.44 36.4, -0.15 24.56, 6.83 16.53 M-20.73 48.23 C-10.53 36.51, -0.34 24.78, 6.83 16.53 M-25.58 59.91 C-12.82 45.23, -0.05 30.54, 8.53 20.67 M-25.58 59.91 C-18.62 51.9, -11.66 43.9, 8.53 20.67 M-31.09 72.35 C-18.4 57.74, -5.7 43.14, 10.24 24.8 M-31.09 72.35 C-17.48 56.7, -3.88 41.04, 10.24 24.8 M-35.95 84.03 C-19.08 64.63, -2.22 45.23, 11.95 28.94 M-35.95 84.03 C-18.81 64.32, -1.67 44.6, 11.95 28.94 M-40.8 95.71 C-24.11 76.51, -7.42 57.32, 14.31 32.31 M-40.8 95.71 C-23.36 75.65, -5.92 55.59, 14.31 32.31 M-46.31 108.15 C-30.07 89.46, -13.82 70.78, 16.02 36.45 M-46.31 108.15 C-30.58 90.05, -14.85 71.96, 16.02 36.45 M-51.16 119.83 C-28.55 93.82, -5.94 67.81, 17.72 40.58 M-51.16 119.83 C-34.67 100.85, -18.17 81.87, 17.72 40.58 M-56.67 132.26 C-33.58 105.69, -10.48 79.12, 19.43 44.72 M-56.67 132.26 C-27.39 98.58, 1.88 64.9, 19.43 44.72 M-61.53 143.94 C-30.68 108.46, 0.17 72.97, 21.14 48.85 M-61.53 143.94 C-42.16 121.66, -22.79 99.39, 21.14 48.85 M-67.04 156.38 C-48.47 135.02, -29.91 113.66, 22.84 52.98 M-67.04 156.38 C-32.89 117.1, 1.25 77.82, 22.84 52.98 M-71.89 168.06 C-47.84 140.4, -23.8 112.73, 24.55 57.12 M-71.89 168.06 C-46.34 138.66, -20.79 109.27, 24.55 57.12 M-76.74 179.74 C-54.36 153.98, -31.97 128.23, 26.26 61.25 M-76.74 179.74 C-36.47 133.41, 3.8 87.08, 26.26 61.25 M-82.25 192.17 C-39.24 142.69, 3.78 93.21, 27.96 65.38 M-82.25 192.17 C-46.57 151.13, -10.89 110.08, 27.96 65.38 M-87.11 203.86 C-51.44 162.83, -15.78 121.8, 29.67 69.52 M-87.11 203.86 C-52.14 163.63, -17.17 123.41, 29.67 69.52 M-92.62 216.29 C-61.45 180.43, -30.27 144.57, 31.38 73.65 M-92.62 216.29 C-63.97 183.34, -35.32 150.38, 31.38 73.65 M-97.47 227.97 C-50.2 173.6, -2.94 119.22, 33.08 77.78 M-97.47 227.97 C-56.4 180.73, -15.34 133.49, 33.08 77.78 M-102.98 240.41 C-60.27 191.28, -17.56 142.14, 34.79 81.92 M-102.98 240.41 C-70.57 203.12, -38.15 165.83, 34.79 81.92 M-107.84 252.09 C-78.89 218.79, -49.95 185.5, 36.5 86.05 M-107.84 252.09 C-53.86 190, 0.11 127.91, 36.5 86.05 M-112.69 263.77 C-72.66 217.73, -32.64 171.68, 38.2 90.19 M-112.69 263.77 C-80.53 226.78, -48.38 189.79, 38.2 90.19 M-118.2 276.2 C-61.92 211.47, -5.65 146.73, 39.91 94.32 M-118.2 276.2 C-63.93 213.77, -9.65 151.33, 39.91 94.32 M-123.05 287.89 C-83.67 242.58, -44.29 197.28, 42.27 97.7 M-123.05 287.89 C-78.54 236.68, -34.03 185.47, 42.27 97.7 M-128.56 300.32 C-79.34 243.7, -30.12 187.08, 43.98 101.83 M-128.56 300.32 C-91.24 257.38, -53.91 214.45, 43.98 101.83 M-124.23 301.44 C-61.07 228.77, 2.1 156.1, 45.69 105.97 M-124.23 301.44 C-67.04 235.65, -9.86 169.86, 45.69 105.97 M-118.59 301.04 C-57.61 230.9, 3.36 160.75, 47.39 110.1 M-118.59 301.04 C-66.3 240.89, -14.01 180.74, 47.39 110.1 M-113.6 301.4 C-76.07 258.22, -38.53 215.04, 49.1 114.23 M-113.6 301.4 C-52.42 231.02, 8.76 160.64, 49.1 114.23 M-107.96 301.01 C-59.86 245.67, -11.75 190.33, 50.81 118.37 M-107.96 301.01 C-62.01 248.15, -16.06 195.28, 50.81 118.37 M-102.97 301.37 C-71.6 265.28, -40.23 229.19, 52.51 122.5 M-102.97 301.37 C-44.39 233.97, 14.2 166.58, 52.51 122.5 M-97.33 300.97 C-49.64 246.11, -1.94 191.24, 54.22 126.63 M-97.33 300.97 C-49.18 245.58, -1.03 190.19, 54.22 126.63 M-92.34 301.33 C-48.84 251.29, -5.33 201.24, 55.93 130.77 M-92.34 301.33 C-39.55 240.6, 13.24 179.87, 55.93 130.77 M-86.7 300.94 C-36.61 243.32, 13.48 185.7, 57.63 134.9 M-86.7 300.94 C-42.51 250.1, 1.68 199.27, 57.63 134.9 M-81.71 301.3 C-34.3 246.76, 13.11 192.22, 59.34 139.03 M-81.71 301.3 C-31.05 243.02, 19.62 184.73, 59.34 139.03 M-76.07 300.9 C-39.55 258.89, -3.04 216.89, 61.05 143.17 M-76.07 300.9 C-36.41 255.28, 3.25 209.66, 61.05 143.17 M-71.08 301.26 C-19.93 242.42, 31.21 183.59, 62.75 147.3 M-71.08 301.26 C-36.33 261.28, -1.57 221.3, 62.75 147.3 M-65.44 300.87 C-31.56 261.9, 2.31 222.93, 64.46 151.44 M-65.44 300.87 C-35.64 266.58, -5.83 232.3, 64.46 151.44 M-60.45 301.23 C-21.74 256.7, 16.97 212.17, 66.17 155.57 M-60.45 301.23 C-14.98 248.92, 30.5 196.6, 66.17 155.57 M-54.81 300.83 C-25.3 266.88, 4.22 232.93, 67.87 159.7 M-54.81 300.83 C-28.13 270.14, -1.45 239.45, 67.87 159.7 M-49.82 301.19 C-25.47 273.18, -1.12 245.17, 70.24 163.08 M-49.82 301.19 C-3.32 247.7, 43.18 194.21, 70.24 163.08 M-44.83 301.55 C-17.09 269.63, 10.66 237.71, 71.94 167.22 M-44.83 301.55 C-13.06 265, 18.72 228.45, 71.94 167.22 M-39.19 301.16 C4.97 250.35, 49.14 199.54, 73.65 171.35 M-39.19 301.16 C-5.11 261.95, 28.97 222.74, 73.65 171.35 M-34.2 301.52 C-11.66 275.58, 10.89 249.65, 75.36 175.48 M-34.2 301.52 C3.08 258.63, 40.36 215.74, 75.36 175.48 M-28.56 301.12 C-6.25 275.46, 16.06 249.79, 77.06 179.62 M-28.56 301.12 C2 265.97, 32.56 230.81, 77.06 179.62 M-23.57 301.49 C-0.97 275.48, 21.63 249.48, 78.77 183.75 M-23.57 301.49 C6.83 266.51, 37.24 231.53, 78.77 183.75 M-17.93 301.09 C4.11 275.73, 26.16 250.37, 80.48 187.88 M-17.93 301.09 C17.82 259.96, 53.57 218.84, 80.48 187.88 M-12.94 301.45 C13.73 270.77, 40.4 240.09, 82.18 192.02 M-12.94 301.45 C19.94 263.63, 52.82 225.8, 82.18 192.02 M-7.3 301.06 C12.15 278.68, 31.6 256.31, 83.89 196.15 M-7.3 301.06 C26.09 262.65, 59.48 224.24, 83.89 196.15 M-2.31 301.42 C24.4 270.69, 51.11 239.96, 85.6 200.28 M-2.31 301.42 C16.78 279.44, 35.88 257.47, 85.6 200.28 M3.33 301.02 C35.61 263.88, 67.9 226.74, 87.3 204.42 M3.33 301.02 C34.25 265.45, 65.18 229.87, 87.3 204.42 M8.32 301.38 C35.16 270.5, 62 239.62, 89.01 208.55 M8.32 301.38 C38.28 266.91, 68.25 232.43, 89.01 208.55 M13.96 300.99 C41.96 268.77, 69.97 236.56, 90.72 212.69 M13.96 300.99 C34.54 277.31, 55.12 253.64, 90.72 212.69 M18.95 301.35 C43.19 273.45, 67.44 245.56, 92.42 216.82 M18.95 301.35 C48.01 267.92, 77.07 234.48, 92.42 216.82 M24.59 300.95 C38.74 284.67, 52.9 268.38, 94.13 220.95 M24.59 300.95 C51.87 269.57, 79.16 238.18, 94.13 220.95 M29.58 301.31 C54.82 272.27, 80.07 243.23, 95.84 225.09 M29.58 301.31 C43.18 285.66, 56.79 270, 95.84 225.09 M35.22 300.92 C58.63 273.99, 82.04 247.06, 98.2 228.47 M35.22 300.92 C53.84 279.5, 72.46 258.08, 98.2 228.47 M40.21 301.28 C57.68 281.18, 75.15 261.08, 99.91 232.6 M40.21 301.28 C54.82 284.47, 69.43 267.66, 99.91 232.6 M45.85 300.88 C66.05 277.65, 86.24 254.42, 101.61 236.73 M45.85 300.88 C65.98 277.73, 86.1 254.58, 101.61 236.73 M50.84 301.24 C71.5 277.47, 92.17 253.69, 103.32 240.87 M50.84 301.24 C65.82 284, 80.81 266.76, 103.32 240.87 M56.48 300.85 C70.55 284.67, 84.62 268.48, 105.03 245 M56.48 300.85 C75.86 278.56, 95.24 256.26, 105.03 245 M61.47 301.21 C76.64 283.76, 91.81 266.31, 106.73 249.13 M61.47 301.21 C71.78 289.34, 82.09 277.48, 106.73 249.13 M66.45 301.57 C78.68 287.51, 90.9 273.44, 108.44 253.27 M66.45 301.57 C76.93 289.52, 87.4 277.47, 108.44 253.27 M72.1 301.17 C83.11 288.51, 94.12 275.84, 110.15 257.4 M72.1 301.17 C83.5 288.05, 94.91 274.93, 110.15 257.4 M77.08 301.53 C88.38 288.54, 99.68 275.54, 111.85 261.54 M77.08 301.53 C90.26 286.37, 103.44 271.22, 111.85 261.54 M82.73 301.14 C93.54 288.7, 104.36 276.25, 113.56 265.67 M82.73 301.14 C90.67 292, 98.62 282.86, 113.56 265.67 M87.71 301.5 C97.95 289.73, 108.18 277.95, 115.27 269.8 M87.71 301.5 C95.52 292.52, 103.32 283.55, 115.27 269.8 M93.36 301.11 C101.29 291.98, 109.23 282.85, 116.97 273.94 M93.36 301.11 C102.47 290.62, 111.59 280.13, 116.97 273.94 M98.34 301.47 C103.08 296.02, 107.82 290.56, 118.68 278.07 M98.34 301.47 C104.15 294.78, 109.96 288.1, 118.68 278.07 M103.99 301.07 C110.27 293.84, 116.55 286.61, 120.39 282.2 M103.99 301.07 C108.86 295.46, 113.73 289.86, 120.39 282.2 M108.97 301.43 C113.35 296.39, 117.73 291.36, 122.09 286.34 M108.97 301.43 C113.4 296.33, 117.84 291.24, 122.09 286.34 M114.62 301.04 C117.85 297.31, 121.09 293.59, 123.8 290.47 M114.62 301.04 C117.67 297.53, 120.72 294.02, 123.8 290.47 M119.6 301.4 C121.7 298.98, 123.8 296.57, 126.16 293.85 M119.6 301.4 C121.04 299.74, 122.48 298.09, 126.16 293.85 M125.25 301 C125.84 300.32, 126.43 299.64, 127.87 297.98 M125.25 301 C126.19 299.92, 127.13 298.83, 127.87 297.98 M-128.76 300.55 C-128.76 300.55, -128.76 300.55, -128.76 300.55 M-128.76 300.55 C-128.76 300.55, -128.76 300.55, -128.76 300.55 M-122.37 300.81 C-123.75 299.61, -125.14 298.4, -126.89 296.88 M-122.37 300.81 C-124.07 299.33, -125.77 297.85, -126.89 296.88 M-116.72 300.42 C-118.73 298.68, -120.73 296.94, -125.02 293.2 M-116.72 300.42 C-119.47 298.03, -122.21 295.65, -125.02 293.2 M-110.33 300.68 C-113.33 298.07, -116.33 295.46, -123.91 288.87 M-110.33 300.68 C-114.49 297.06, -118.66 293.44, -123.91 288.87 M-103.93 300.94 C-110.78 294.99, -117.63 289.03, -122.04 285.2 M-103.93 300.94 C-108.64 296.84, -113.35 292.75, -122.04 285.2 M-98.28 300.55 C-105.21 294.52, -112.14 288.5, -120.17 281.52 M-98.28 300.55 C-102.77 296.64, -107.26 292.74, -120.17 281.52 M-91.89 300.81 C-97.41 296.01, -102.93 291.21, -119.06 277.19 M-91.89 300.81 C-97.85 295.62, -103.82 290.43, -119.06 277.19 M-86.24 300.41 C-94.38 293.34, -102.52 286.26, -117.19 273.51 M-86.24 300.41 C-94.06 293.62, -101.87 286.83, -117.19 273.51 M-79.85 300.67 C-89.49 292.29, -99.14 283.9, -115.32 269.84 M-79.85 300.67 C-91.52 290.53, -103.19 280.38, -115.32 269.84 M-73.45 300.94 C-83.51 292.19, -93.57 283.45, -113.45 266.16 M-73.45 300.94 C-87.77 288.49, -102.09 276.04, -113.45 266.16 M-67.8 300.54 C-83.91 286.54, -100.01 272.55, -112.33 261.83 M-67.8 300.54 C-82.81 287.49, -97.82 274.45, -112.33 261.83 M-61.41 300.8 C-80.79 283.95, -100.18 267.1, -110.46 258.16 M-61.41 300.8 C-79.04 285.47, -96.67 270.15, -110.46 258.16 M-55.76 300.41 C-70.1 287.95, -84.43 275.49, -108.59 254.48 M-55.76 300.41 C-67.4 290.3, -79.03 280.18, -108.59 254.48 M-49.37 300.67 C-68.5 284.03, -87.64 267.4, -107.48 250.15 M-49.37 300.67 C-62.29 289.44, -75.21 278.2, -107.48 250.15 M-42.97 300.93 C-56.89 288.83, -70.8 276.73, -105.61 246.48 M-42.97 300.93 C-66.97 280.06, -90.98 259.2, -105.61 246.48 M-37.33 300.54 C-51.32 288.37, -65.32 276.2, -103.74 242.8 M-37.33 300.54 C-53.3 286.65, -69.28 272.76, -103.74 242.8 M-30.93 300.8 C-49.17 284.94, -67.4 269.09, -101.87 239.13 M-30.93 300.8 C-49.3 284.83, -67.67 268.86, -101.87 239.13 M-25.28 300.4 C-49.32 279.51, -73.35 258.62, -100.76 234.8 M-25.28 300.4 C-43.09 284.92, -60.9 269.44, -100.76 234.8 M-18.89 300.66 C-38.15 283.92, -57.42 267.17, -98.89 231.12 M-18.89 300.66 C-43.56 279.22, -68.23 257.77, -98.89 231.12 M-12.49 300.93 C-33.88 282.33, -55.26 263.74, -97.02 227.45 M-12.49 300.93 C-42.8 274.57, -73.12 248.22, -97.02 227.45 M-6.85 300.53 C-30.01 280.4, -53.17 260.26, -95.9 223.12 M-6.85 300.53 C-26.5 283.45, -46.16 266.36, -95.9 223.12 M-0.45 300.79 C-32 273.36, -63.56 245.93, -94.03 219.44 M-0.45 300.79 C-27.28 277.47, -54.12 254.14, -94.03 219.44 M5.2 300.4 C-16.55 281.49, -38.31 262.58, -92.16 215.77 M5.2 300.4 C-25.29 273.9, -55.77 247.41, -92.16 215.77 M11.59 300.66 C-10.35 281.58, -32.3 262.51, -90.29 212.09 M11.59 300.66 C-11.49 280.59, -34.58 260.52, -90.29 212.09 M17.99 300.92 C-10 276.59, -38 252.25, -89.18 207.76 M17.99 300.92 C-17.47 270.1, -52.93 239.27, -89.18 207.76 M23.63 300.53 C-4.54 276.03, -32.72 251.54, -87.31 204.09 M23.63 300.53 C-11.05 270.38, -45.73 240.23, -87.31 204.09 M30.03 300.79 C-7.59 268.09, -45.2 235.39, -85.44 200.41 M30.03 300.79 C1.44 275.93, -27.15 251.08, -85.44 200.41 M35.67 300.39 C-5.27 264.8, -46.22 229.21, -84.32 196.08 M35.67 300.39 C10.8 278.77, -14.08 257.14, -84.32 196.08 M42.07 300.66 C-6.65 258.3, -55.38 215.94, -82.45 192.41 M42.07 300.66 C9.09 271.98, -23.89 243.31, -82.45 192.41 M48.47 300.92 C11.41 268.7, -25.65 236.48, -80.59 188.73 M48.47 300.92 C9.57 267.1, -29.33 233.29, -80.59 188.73 M54.11 300.52 C20.4 271.22, -13.31 241.91, -78.72 185.06 M54.11 300.52 C25.9 276, -2.31 251.47, -78.72 185.06 M60.51 300.78 C29.6 273.91, -1.32 247.04, -77.6 180.72 M60.51 300.78 C17.18 263.12, -26.14 225.46, -77.6 180.72 M66.15 300.39 C19.16 259.54, -27.84 218.68, -75.73 177.05 M66.15 300.39 C16.77 257.46, -32.61 214.53, -75.73 177.05 M72.55 300.65 C42.53 274.55, 12.5 248.45, -73.86 173.37 M72.55 300.65 C29.93 263.6, -12.69 226.55, -73.86 173.37 M78.95 300.91 C39 266.18, -0.95 231.46, -72.75 169.04 M78.95 300.91 C24.67 253.73, -29.61 206.54, -72.75 169.04 M84.59 300.52 C52.47 272.59, 20.34 244.67, -70.88 165.37 M84.59 300.52 C52.15 272.32, 19.71 244.12, -70.88 165.37 M90.99 300.78 C41.09 257.4, -8.8 214.03, -69.01 161.69 M90.99 300.78 C34.06 251.29, -22.87 201.8, -69.01 161.69 M96.63 300.38 C43.23 253.96, -10.18 207.54, -67.14 158.02 M96.63 300.38 C36.11 247.77, -24.41 195.16, -67.14 158.02 M103.03 300.65 C42.13 247.7, -18.78 194.76, -66.02 153.69 M103.03 300.65 C54.97 258.87, 6.91 217.09, -66.02 153.69 M109.43 300.91 C42.96 243.12, -23.52 185.34, -64.15 150.01 M109.43 300.91 C73.84 269.97, 38.24 239.02, -64.15 150.01 M115.07 300.51 C59.38 252.1, 3.68 203.68, -62.28 146.34 M115.07 300.51 C59.46 252.17, 3.84 203.82, -62.28 146.34 M121.47 300.77 C63.29 250.2, 5.11 199.62, -61.17 142.01 M121.47 300.77 C71.31 257.17, 21.16 213.57, -61.17 142.01 M127.11 300.38 C71.11 251.7, 15.11 203.01, -59.3 138.33 M127.11 300.38 C81.97 261.14, 36.82 221.89, -59.3 138.33 M125.96 294.08 C53.31 230.92, -19.34 167.77, -57.43 134.66 M125.96 294.08 C77.22 251.71, 28.48 209.34, -57.43 134.66 M122.55 285.81 C74.7 244.22, 26.86 202.63, -55.56 130.98 M122.55 285.81 C69.7 239.87, 16.86 193.94, -55.56 130.98 M119.14 277.55 C84.27 247.24, 49.41 216.93, -54.45 126.65 M119.14 277.55 C50.71 218.06, -17.72 158.58, -54.45 126.65 M114.97 268.62 C49.68 211.87, -15.61 155.11, -52.58 122.98 M114.97 268.62 C59.36 220.29, 3.76 171.95, -52.58 122.98 M111.56 260.35 C72.68 226.56, 33.8 192.76, -50.71 119.3 M111.56 260.35 C78.5 231.62, 45.44 202.88, -50.71 119.3 M108.14 252.09 C67.68 216.92, 27.23 181.75, -49.59 114.97 M108.14 252.09 C71.77 220.47, 35.4 188.85, -49.59 114.97 M104.73 243.82 C52.7 198.59, 0.66 153.36, -47.72 111.3 M104.73 243.82 C48.89 195.28, -6.94 146.75, -47.72 111.3 M100.56 234.9 C59 198.77, 17.43 162.64, -45.85 107.62 M100.56 234.9 C56.08 196.23, 11.6 157.57, -45.85 107.62 M97.15 226.63 C60.92 195.14, 24.7 163.65, -43.98 103.95 M97.15 226.63 C57.38 192.06, 17.61 157.49, -43.98 103.95 M93.73 218.36 C51.59 181.73, 9.45 145.1, -42.87 99.62 M93.73 218.36 C54.04 183.85, 14.34 149.34, -42.87 99.62 M90.32 210.09 C56.4 180.61, 22.48 151.12, -41 95.94 M90.32 210.09 C53.74 178.29, 17.16 146.49, -41 95.94 M86.15 201.17 C37.43 158.82, -11.29 116.47, -39.13 92.27 M86.15 201.17 C41.26 162.15, -3.62 123.13, -39.13 92.27 M82.74 192.9 C41.6 157.14, 0.46 121.38, -38.02 87.93 M82.74 192.9 C57.03 170.56, 31.33 148.21, -38.02 87.93 M79.33 184.64 C55.6 164.01, 31.87 143.38, -36.15 84.26 M79.33 184.64 C44.43 154.3, 9.54 123.97, -36.15 84.26 M75.91 176.37 C51.65 155.28, 27.39 134.19, -34.28 80.58 M75.91 176.37 C46.26 150.59, 16.61 124.82, -34.28 80.58 M71.74 167.45 C44.6 143.85, 17.47 120.26, -32.41 76.91 M71.74 167.45 C35.73 136.14, -0.28 104.84, -32.41 76.91 M68.33 159.18 C34.95 130.16, 1.58 101.15, -31.29 72.58 M68.33 159.18 C32.48 128.02, -3.37 96.86, -31.29 72.58 M64.92 150.91 C38.66 128.09, 12.4 105.26, -29.42 68.9 M64.92 150.91 C32.78 122.97, 0.64 95.03, -29.42 68.9 M60.75 141.99 C39.09 123.16, 17.42 104.33, -27.55 65.23 M60.75 141.99 C31.99 116.99, 3.22 91.98, -27.55 65.23 M57.33 133.72 C40.18 118.81, 23.02 103.89, -26.44 60.9 M57.33 133.72 C26.62 107.02, -4.09 80.32, -26.44 60.9 M53.92 125.45 C35.63 109.55, 17.34 93.65, -24.57 57.22 M53.92 125.45 C27.58 102.56, 1.24 79.66, -24.57 57.22 M50.51 117.19 C35.29 103.96, 20.07 90.73, -22.7 53.55 M50.51 117.19 C26.24 96.09, 1.97 74.99, -22.7 53.55 M46.34 108.26 C26.05 90.62, 5.76 72.99, -20.83 49.87 M46.34 108.26 C27.11 91.54, 7.87 74.82, -20.83 49.87 M42.93 100 C25.55 84.89, 8.17 69.79, -19.71 45.54 M42.93 100 C19.67 79.78, -3.59 59.56, -19.71 45.54 M39.51 91.73 C17.82 72.87, -3.87 54.02, -17.84 41.87 M39.51 91.73 C27.87 81.61, 16.22 71.48, -17.84 41.87 M36.1 83.46 C24.38 73.28, 12.67 63.09, -15.98 38.19 M36.1 83.46 C23.08 72.14, 10.06 60.82, -15.98 38.19 M31.93 74.54 C17.48 61.98, 3.03 49.41, -14.86 33.86 M31.93 74.54 C20.76 64.82, 9.58 55.11, -14.86 33.86 M28.52 66.27 C16.72 56.01, 4.92 45.76, -12.99 30.19 M28.52 66.27 C13.57 53.28, -1.37 40.29, -12.99 30.19 M25.1 58 C15.55 49.7, 6.01 41.4, -11.12 26.51 M25.1 58 C15.14 49.34, 5.18 40.68, -11.12 26.51 M21.69 49.74 C12.08 41.38, 2.47 33.03, -9.25 22.84 M21.69 49.74 C11.74 41.08, 1.78 32.43, -9.25 22.84 M17.52 40.81 C8.96 33.36, 0.39 25.92, -8.14 18.51 M17.52 40.81 C9.28 33.65, 1.05 26.49, -8.14 18.51 M14.11 32.54 C6.34 25.79, -1.43 19.04, -6.27 14.83 M14.11 32.54 C6.3 25.75, -1.52 18.96, -6.27 14.83 M10.7 24.28 C5.67 19.91, 0.65 15.54, -4.4 11.16 M10.7 24.28 C5.95 20.15, 1.2 16.02, -4.4 11.16 M7.28 16.01 C3.1 12.38, -1.07 8.75, -3.28 6.83 M7.28 16.01 C4.94 13.97, 2.6 11.94, -3.28 6.83 M3.11 7.09 C1.32 5.53, -0.47 3.97, -1.41 3.15 M3.11 7.09 C1.66 5.82, 0.21 4.56, -1.41 3.15" stroke="#777" stroke-width="0.5" fill="none"></path><path d="M0 0 C33.91 79.27, 67.81 158.54, 128.61 300.68 M0 0 C30.74 71.88, 61.49 143.76, 128.61 300.68 M128.61 300.68 C36.89 300.68, -54.82 300.68, -128.61 300.68 M128.61 300.68 C40.28 300.68, -48.05 300.68, -128.61 300.68 M-128.61 300.68 C-78.22 182.87, -27.83 65.06, 0 0 M-128.61 300.68 C-102.53 239.71, -76.45 178.74, 0 0 M0 0 C0 0, 0 0, 0 0 M0 0 C0 0, 0 0, 0 0" stroke="#777" stroke-width="1" fill="none"></path></g></g><mask></mask></svg>