<svg version="1.1" xmlns="http://www.w3.org/2000/svg" viewBox="0 0 406.9350806864949 380.06389460203764" width="406.9350806864949" height="380.06389460203764" class="excalidraw-svg"><!-- svg-source:excalidraw --><metadata></metadata><defs><style class="style-fonts">
      </style></defs><rect x="0" y="0" width="406.9350806864949" height="380.06389460203764" fill="#ffffff"></rect><g stroke-linecap="round"><g transform="translate(10 16.558028324255815) rotate(0 179.4861155928063 173.473918976763)"><path d="M0 0 C28.55 58.92, 111.48 354.6, 171.31 353.5 C231.14 352.41, 327.69 53.45, 358.97 -6.56 M0 0 C28.55 58.92, 111.48 354.6, 171.31 353.5 C231.14 352.41, 327.69 53.45, 358.97 -6.56" stroke="#777" stroke-width="2" fill="none"></path></g></g><mask></mask><g stroke-linecap="round"><g transform="translate(37.63958892373245 348.17323943604754) rotate(0 179.64774588138124 -69.44343687678922)"><path d="M0 0 C59.88 -23.15, 299.41 -115.74, 359.3 -138.89 M0 0 C59.88 -23.15, 299.41 -115.74, 359.3 -138.89" stroke="#e03131" stroke-width="2" fill="none"></path></g></g><mask></mask><g stroke-linecap="round" transform="translate(259.6446792095706 255.51324264566188) rotate(0 5.0115318357113665 5.0115318357113665)"><path d="M10.02 5.01 C10.02 5.3, 10 5.6, 9.95 5.88 C9.9 6.17, 9.82 6.45, 9.72 6.73 C9.62 7, 9.5 7.27, 9.35 7.52 C9.21 7.77, 9.04 8.01, 8.85 8.23 C8.66 8.46, 8.46 8.66, 8.23 8.85 C8.01 9.04, 7.77 9.21, 7.52 9.35 C7.27 9.5, 7 9.62, 6.73 9.72 C6.45 9.82, 6.17 9.9, 5.88 9.95 C5.6 10, 5.3 10.02, 5.01 10.02 C4.72 10.02, 4.43 10, 4.14 9.95 C3.86 9.9, 3.57 9.82, 3.3 9.72 C3.02 9.62, 2.76 9.5, 2.51 9.35 C2.25 9.21, 2.01 9.04, 1.79 8.85 C1.57 8.66, 1.36 8.46, 1.17 8.23 C0.99 8.01, 0.82 7.77, 0.67 7.52 C0.53 7.27, 0.4 7, 0.3 6.73 C0.2 6.45, 0.13 6.17, 0.08 5.88 C0.03 5.6, 0 5.3, 0 5.01 C0 4.72, 0.03 4.43, 0.08 4.14 C0.13 3.86, 0.2 3.57, 0.3 3.3 C0.4 3.02, 0.53 2.76, 0.67 2.51 C0.82 2.25, 0.99 2.01, 1.17 1.79 C1.36 1.57, 1.57 1.36, 1.79 1.17 C2.01 0.99, 2.25 0.82, 2.51 0.67 C2.76 0.53, 3.02 0.4, 3.3 0.3 C3.57 0.2, 3.86 0.13, 4.14 0.08 C4.43 0.03, 4.72 0, 5.01 0 C5.3 0, 5.6 0.03, 5.88 0.08 C6.17 0.13, 6.45 0.2, 6.73 0.3 C7 0.4, 7.27 0.53, 7.52 0.67 C7.77 0.82, 8.01 0.99, 8.23 1.17 C8.46 1.36, 8.66 1.57, 8.85 1.79 C9.04 2.01, 9.21 2.25, 9.35 2.51 C9.5 2.76, 9.62 3.02, 9.72 3.3 C9.82 3.57, 9.9 3.86, 9.95 4.14 C10 4.43, 10.01 4.87, 10.02 5.01 C10.04 5.16, 10.04 4.87, 10.02 5.01" stroke="none" stroke-width="0" fill="#c2255c"></path><path d="M10.02 5.01 C10.02 5.3, 10 5.6, 9.95 5.88 C9.9 6.17, 9.82 6.45, 9.72 6.73 C9.62 7, 9.5 7.27, 9.35 7.52 C9.21 7.77, 9.04 8.01, 8.85 8.23 C8.66 8.46, 8.46 8.66, 8.23 8.85 C8.01 9.04, 7.77 9.21, 7.52 9.35 C7.27 9.5, 7 9.62, 6.73 9.72 C6.45 9.82, 6.17 9.9, 5.88 9.95 C5.6 10, 5.3 10.02, 5.01 10.02 C4.72 10.02, 4.43 10, 4.14 9.95 C3.86 9.9, 3.57 9.82, 3.3 9.72 C3.02 9.62, 2.76 9.5, 2.51 9.35 C2.25 9.21, 2.01 9.04, 1.79 8.85 C1.57 8.66, 1.36 8.46, 1.17 8.23 C0.99 8.01, 0.82 7.77, 0.67 7.52 C0.53 7.27, 0.4 7, 0.3 6.73 C0.2 6.45, 0.13 6.17, 0.08 5.88 C0.03 5.6, 0 5.3, 0 5.01 C0 4.72, 0.03 4.43, 0.08 4.14 C0.13 3.86, 0.2 3.57, 0.3 3.3 C0.4 3.02, 0.53 2.76, 0.67 2.51 C0.82 2.25, 0.99 2.01, 1.17 1.79 C1.36 1.57, 1.57 1.36, 1.79 1.17 C2.01 0.99, 2.25 0.82, 2.51 0.67 C2.76 0.53, 3.02 0.4, 3.3 0.3 C3.57 0.2, 3.86 0.13, 4.14 0.08 C4.43 0.03, 4.72 0, 5.01 0 C5.3 0, 5.6 0.03, 5.88 0.08 C6.17 0.13, 6.45 0.2, 6.73 0.3 C7 0.4, 7.27 0.53, 7.52 0.67 C7.77 0.82, 8.01 0.99, 8.23 1.17 C8.46 1.36, 8.66 1.57, 8.85 1.79 C9.04 2.01, 9.21 2.25, 9.35 2.51 C9.5 2.76, 9.62 3.02, 9.72 3.3 C9.82 3.57, 9.9 3.86, 9.95 4.14 C10 4.43, 10.01 4.87, 10.02 5.01 C10.04 5.16, 10.04 4.87, 10.02 5.01" stroke="transparent" stroke-width="2" fill="none"></path></g><g stroke-linecap="round" transform="translate(122.06911283794278 307.32412981187906) rotate(0 5.0115318357113665 5.0115318357113665)"><path d="M10.02 5.01 C10.02 5.3, 10 5.6, 9.95 5.88 C9.9 6.17, 9.82 6.45, 9.72 6.73 C9.62 7, 9.5 7.27, 9.35 7.52 C9.21 7.77, 9.04 8.01, 8.85 8.23 C8.66 8.46, 8.46 8.66, 8.23 8.85 C8.01 9.04, 7.77 9.21, 7.52 9.35 C7.27 9.5, 7 9.62, 6.73 9.72 C6.45 9.82, 6.17 9.9, 5.88 9.95 C5.6 10, 5.3 10.02, 5.01 10.02 C4.72 10.02, 4.43 10, 4.14 9.95 C3.86 9.9, 3.57 9.82, 3.3 9.72 C3.02 9.62, 2.76 9.5, 2.51 9.35 C2.25 9.21, 2.01 9.04, 1.79 8.85 C1.57 8.66, 1.36 8.46, 1.17 8.23 C0.99 8.01, 0.82 7.77, 0.67 7.52 C0.53 7.27, 0.4 7, 0.3 6.73 C0.2 6.45, 0.13 6.17, 0.08 5.88 C0.03 5.6, 0 5.3, 0 5.01 C0 4.72, 0.03 4.43, 0.08 4.14 C0.13 3.86, 0.2 3.57, 0.3 3.3 C0.4 3.02, 0.53 2.76, 0.67 2.51 C0.82 2.25, 0.99 2.01, 1.17 1.79 C1.36 1.57, 1.57 1.36, 1.79 1.17 C2.01 0.99, 2.25 0.82, 2.51 0.67 C2.76 0.53, 3.02 0.4, 3.3 0.3 C3.57 0.2, 3.86 0.13, 4.14 0.08 C4.43 0.03, 4.72 0, 5.01 0 C5.3 0, 5.6 0.03, 5.88 0.08 C6.17 0.13, 6.45 0.2, 6.73 0.3 C7 0.4, 7.27 0.53, 7.52 0.67 C7.77 0.82, 8.01 0.99, 8.23 1.17 C8.46 1.36, 8.66 1.57, 8.85 1.79 C9.04 2.01, 9.21 2.25, 9.35 2.51 C9.5 2.76, 9.62 3.02, 9.72 3.3 C9.82 3.57, 9.9 3.86, 9.95 4.14 C10 4.43, 10.01 4.87, 10.02 5.01 C10.04 5.16, 10.04 4.87, 10.02 5.01" stroke="none" stroke-width="0" fill="#c2255c"></path><path d="M10.02 5.01 C10.02 5.3, 10 5.6, 9.95 5.88 C9.9 6.17, 9.82 6.45, 9.72 6.73 C9.62 7, 9.5 7.27, 9.35 7.52 C9.21 7.77, 9.04 8.01, 8.85 8.23 C8.66 8.46, 8.46 8.66, 8.23 8.85 C8.01 9.04, 7.77 9.21, 7.52 9.35 C7.27 9.5, 7 9.62, 6.73 9.72 C6.45 9.82, 6.17 9.9, 5.88 9.95 C5.6 10, 5.3 10.02, 5.01 10.02 C4.72 10.02, 4.43 10, 4.14 9.95 C3.86 9.9, 3.57 9.82, 3.3 9.72 C3.02 9.62, 2.76 9.5, 2.51 9.35 C2.25 9.21, 2.01 9.04, 1.79 8.85 C1.57 8.66, 1.36 8.46, 1.17 8.23 C0.99 8.01, 0.82 7.77, 0.67 7.52 C0.53 7.27, 0.4 7, 0.3 6.73 C0.2 6.45, 0.13 6.17, 0.08 5.88 C0.03 5.6, 0 5.3, 0 5.01 C0 4.72, 0.03 4.43, 0.08 4.14 C0.13 3.86, 0.2 3.57, 0.3 3.3 C0.4 3.02, 0.53 2.76, 0.67 2.51 C0.82 2.25, 0.99 2.01, 1.17 1.79 C1.36 1.57, 1.57 1.36, 1.79 1.17 C2.01 0.99, 2.25 0.82, 2.51 0.67 C2.76 0.53, 3.02 0.4, 3.3 0.3 C3.57 0.2, 3.86 0.13, 4.14 0.08 C4.43 0.03, 4.72 0, 5.01 0 C5.3 0, 5.6 0.03, 5.88 0.08 C6.17 0.13, 6.45 0.2, 6.73 0.3 C7 0.4, 7.27 0.53, 7.52 0.67 C7.77 0.82, 8.01 0.99, 8.23 1.17 C8.46 1.36, 8.66 1.57, 8.85 1.79 C9.04 2.01, 9.21 2.25, 9.35 2.51 C9.5 2.76, 9.62 3.02, 9.72 3.3 C9.82 3.57, 9.9 3.86, 9.95 4.14 C10 4.43, 10.01 4.87, 10.02 5.01 C10.04 5.16, 10.04 4.87, 10.02 5.01" stroke="transparent" stroke-width="2" fill="none"></path></g></svg>