<svg version="1.1" xmlns="http://www.w3.org/2000/svg" viewBox="0 0 490.48105655738874 255.90772639098873" width="490.48105655738874" height="255.90772639098873" class="excalidraw-svg"><!-- svg-source:excalidraw --><metadata></metadata><defs><style class="style-fonts">
      </style></defs><rect x="0" y="0" width="490.48105655738874" height="255.90772639098873" fill="#ffffff"></rect><g stroke-linecap="round"><g transform="translate(11.26535831520124 15.477218627929688) rotate(0 234.60784912109375 83.52984499046215)"><path d="M0 0 C39.86 28.76, 160.97 173.45, 239.17 172.53 C317.37 171.62, 430.88 24.19, 469.22 -5.48 M0 0 C39.86 28.76, 160.97 173.45, 239.17 172.53 C317.37 171.62, 430.88 24.19, 469.22 -5.48" stroke="#777" stroke-width="2" fill="none"></path></g></g><mask></mask><g stroke-linecap="round"><g transform="translate(10 128.42005552695812) rotate(0 219.23497846374596 58.7438354320153)"><path d="M0 0 C73.08 19.58, 365.39 97.91, 438.47 117.49 M0 0 C73.08 19.58, 365.39 97.91, 438.47 117.49" stroke="#e03131" stroke-width="2" fill="none"></path></g></g><mask></mask></svg>