<svg version="1.1" xmlns="http://www.w3.org/2000/svg" viewBox="0 0 416.35271200327674 705.1259572121043" width="416.35271200327674" height="705.1259572121043" class="excalidraw-svg"><!-- svg-source:excalidraw --><metadata></metadata><defs><style class="style-fonts">
      </style></defs><rect x="0" y="0" width="416.35271200327674" height="705.1259572121043" fill="#121212"></rect><g stroke-linecap="round"><g transform="translate(206.8329699783198 463.8892493822966) rotate(0 1.3433860233185726 115.5585308169543)"><path d="M0 0 C-46.07 27.37, -92.14 54.73, -196.83 116.93 M0 0 C-54.11 32.15, -108.23 64.29, -196.83 116.93 M-196.83 116.93 C-123.75 159.12, -50.67 201.32, 1.16 231.24 M-196.83 116.93 C-154.75 141.22, -112.67 165.52, 1.16 231.24 M1.16 231.24 C47.31 204.54, 93.46 177.85, 199.52 116.51 M1.16 231.24 C46.33 205.11, 91.5 178.99, 199.52 116.51 M199.52 116.51 C133.58 77.25, 67.63 37.99, 3.63 -0.12 M199.52 116.51 C132.06 76.35, 64.6 36.18, 3.63 -0.12" stroke="#d3d3d3" stroke-width="2" fill="none"></path></g></g><mask></mask><g stroke-linecap="round"><g transform="translate(206.59550638422837 600.1510731751898) rotate(0 0.9703816981005389 -20.703292910318083)" fill-rule="evenodd"><path d="M0 0 L-70.4 -40.64 L72.34 -41.41 L0 0" stroke="none" stroke-width="0" fill="#602e40" fill-rule="evenodd"></path><path d="M0 0 C-21.05 -12.15, -42.09 -24.3, -70.4 -40.64 M0 0 C-28.15 -16.25, -56.3 -32.5, -70.4 -40.64 M-70.4 -40.64 C-14.37 -40.94, 41.65 -41.24, 72.34 -41.41 M-70.4 -40.64 C-31.35 -40.85, 7.7 -41.06, 72.34 -41.41 M72.34 -41.41 C44.59 -25.52, 16.84 -9.64, 0 0 M72.34 -41.41 C48.1 -27.53, 23.87 -13.66, 0 0 M0 0 C0 0, 0 0, 0 0 M0 0 C0 0, 0 0, 0 0" stroke="#602e40" stroke-width="2" fill="none"></path></g></g><mask></mask><g stroke-linecap="round"><g transform="translate(208.2468049924335 254.90298590677088) rotate(0 36.131967041877374 21.131372476532107)" fill-rule="evenodd"><path d="M0 0 L1.04 86.19 L71.43 45.55 L72.26 -43.93 L0 0" stroke="none" stroke-width="0" fill="#b44d4d" fill-rule="evenodd"></path><path d="M0 0 C0.21 17.58, 0.42 35.15, 1.04 86.19 M0 0 C0.39 32.63, 0.78 65.26, 1.04 86.19 M1.04 86.19 C17.68 76.58, 34.31 66.98, 71.43 45.55 M1.04 86.19 C18.32 76.21, 35.61 66.23, 71.43 45.55 M71.43 45.55 C71.63 24.14, 71.83 2.73, 72.26 -43.93 M71.43 45.55 C71.66 21.13, 71.89 -3.28, 72.26 -43.93 M72.26 -43.93 C52.05 -31.64, 31.85 -19.36, 0 0 M72.26 -43.93 C48.66 -29.58, 25.05 -15.23, 0 0 M0 0 C0 0, 0 0, 0 0 M0 0 C0 0, 0 0, 0 0" stroke="#ff8383" stroke-width="2" fill="none"></path></g></g><mask></mask><g stroke-linecap="round"><g transform="translate(208.83673870942863 252.29253134161837) rotate(0 -36.55367873443032 24.367522354948875)" fill-rule="evenodd"><path d="M0 0 L-2.13 88.9 L-72.52 48.26 L-73.38 -41.32 L0.27 1.26 L-0.66 90.05 L0 0" stroke="none" stroke-width="0" fill="#b44d4d" fill-rule="evenodd"></path><path d="M0 0 C-0.51 21.5, -1.03 43, -2.13 88.9 M0 0 C-0.43 18.08, -0.86 36.16, -2.13 88.9 M-2.13 88.9 C-27.3 74.37, -52.48 59.83, -72.52 48.26 M-2.13 88.9 C-19.44 78.91, -36.76 68.91, -72.52 48.26 M-72.52 48.26 C-72.74 25.31, -72.96 2.36, -73.38 -41.32 M-72.52 48.26 C-72.72 28.01, -72.91 7.77, -73.38 -41.32 M-73.38 -41.32 C-50.61 -28.15, -27.84 -14.99, 0.27 1.26 M-73.38 -41.32 C-56.14 -31.35, -38.91 -21.39, 0.27 1.26 M0.27 1.26 C0.07 20.5, -0.13 39.75, -0.66 90.05 M0.27 1.26 C0.01 25.75, -0.24 50.24, -0.66 90.05 M-0.66 90.05 C-0.52 70.23, -0.37 50.41, 0 0 M-0.66 90.05 C-0.49 66.64, -0.32 43.22, 0 0 M0 0 C0 0, 0 0, 0 0 M0 0 C0 0, 0 0, 0 0" stroke="#ff8383" stroke-width="2" fill="none"></path></g></g><mask></mask><g stroke-linecap="round"><g transform="translate(280.89092905303204 210.90909738572748) rotate(0 -72.13382144748181 20.805711755019615)" fill-rule="evenodd"><path d="M0 0 L-144.27 0 L-73.25 41.61 L0 0" stroke="none" stroke-width="0" fill="#602e40" fill-rule="evenodd"></path><path d="M0 0 C-48.03 0, -96.05 0, -144.27 0 M0 0 C-48.65 0, -97.29 0, -144.27 0 M-144.27 0 C-119.79 14.34, -95.32 28.68, -73.25 41.61 M-144.27 0 C-121.28 13.47, -98.29 26.94, -73.25 41.61 M-73.25 41.61 C-49.7 28.23, -26.15 14.85, 0 0 M-73.25 41.61 C-52.95 30.08, -32.66 18.56, 0 0 M0 0 C0 0, 0 0, 0 0 M0 0 C0 0, 0 0, 0 0" stroke="#ff8383" stroke-width="2" fill="none"></path></g></g><mask></mask><g stroke-linecap="round"><g transform="translate(207.86728280185997 342.83104563023375) rotate(0 0 128.93181381261215)"><path d="M0 0 C0 100.91, 0 201.81, 0 257.86" stroke="#878787" stroke-width="1" fill="none" stroke-dasharray="8 8.5"></path></g></g><mask></mask><g stroke-linecap="round"><g transform="translate(137.5712151206082 300.9090975699415) rotate(0 70.57279787111457 0)"><path d="M0 0 C49.51 0, 99.02 0, 141.15 0" stroke="#ededed00" stroke-width="1.5" fill="none" stroke-dasharray="8 9"></path></g></g><mask></mask><g stroke-linecap="round"><g transform="translate(135.45867609572116 299.74047332338) rotate(0 -5.684341886080802e-14 129.85402195173504)"><path d="M0 0 C0 62.09, 0 124.18, 0 259.71" stroke="#878787" stroke-width="1" fill="none" stroke-dasharray="8 8.5"></path></g></g><mask></mask><g stroke-linecap="round"><g transform="translate(280.89092814830184 303.23430351042214) rotate(0 0 128.07174475069056)"><path d="M0 0 C0 92.07, 0 184.14, 0 256.14" stroke="#878787" stroke-width="1" fill="none" stroke-dasharray="8 8.5"></path></g></g><mask></mask><g stroke-linecap="round"><g transform="translate(210.26803079784867 100.37248734611046) rotate(0 0 39.867504439076754)"><path d="M0 0 C0 22.44, 0 44.89, 0 79.74 M0 0 C0 28.07, 0 56.13, 0 79.74" stroke="#878787" stroke-width="2" fill="none"></path></g><g transform="translate(210.26803079784867 100.37248734611046) rotate(0 0 39.867504439076754)"><path d="M-8.55 56.24 C-6.14 62.86, -3.74 69.47, 0 79.74 M-8.55 56.24 C-5.54 64.51, -2.53 72.78, 0 79.74" stroke="#878787" stroke-width="2" fill="none"></path></g><g transform="translate(210.26803079784867 100.37248734611046) rotate(0 0 39.867504439076754)"><path d="M8.55 56.24 C6.14 62.86, 3.74 69.47, 0 79.74 M8.55 56.24 C5.54 64.51, 2.53 72.78, 0 79.74" stroke="#878787" stroke-width="2" fill="none"></path></g></g><mask></mask><g stroke-linecap="round" transform="translate(127.343792684378 25.634114768424183) rotate(0 83.36203095203462 25.00860928561042)"><path d="M166.72 25.01 C166.72 26.01, 166.52 27.03, 166.12 28.02 C165.71 29.02, 165.1 30.02, 164.3 30.99 C163.5 31.97, 162.49 32.94, 161.31 33.88 C160.12 34.82, 158.73 35.74, 157.18 36.63 C155.62 37.52, 153.87 38.39, 151.97 39.22 C150.06 40.04, 147.98 40.84, 145.76 41.59 C143.54 42.34, 141.15 43.06, 138.64 43.73 C136.13 44.39, 133.47 45.02, 130.72 45.59 C127.96 46.16, 125.07 46.69, 122.1 47.15 C119.14 47.62, 116.05 48.04, 112.92 48.39 C109.79 48.75, 106.56 49.05, 103.31 49.29 C100.06 49.53, 96.74 49.71, 93.41 49.83 C90.09 49.96, 86.71 50.02, 83.36 50.02 C80.01 50.02, 76.64 49.96, 73.31 49.83 C69.99 49.71, 66.66 49.53, 63.41 49.29 C60.16 49.05, 56.93 48.75, 53.8 48.39 C50.67 48.04, 47.59 47.62, 44.62 47.15 C41.66 46.69, 38.76 46.16, 36.01 45.59 C33.25 45.02, 30.59 44.39, 28.08 43.73 C25.58 43.06, 23.19 42.34, 20.96 41.59 C18.74 40.84, 16.66 40.04, 14.76 39.22 C12.85 38.39, 11.11 37.52, 9.55 36.63 C7.99 35.74, 6.6 34.82, 5.42 33.88 C4.23 32.94, 3.22 31.97, 2.42 30.99 C1.62 30.02, 1.01 29.02, 0.61 28.02 C0.2 27.03, 0 26.01, 0 25.01 C0 24, 0.2 22.99, 0.61 21.99 C1.01 21, 1.62 20, 2.42 19.02 C3.22 18.05, 4.23 17.08, 5.42 16.14 C6.6 15.2, 7.99 14.28, 9.55 13.39 C11.11 12.5, 12.85 11.63, 14.76 10.8 C16.66 9.98, 18.74 9.18, 20.96 8.42 C23.19 7.67, 25.58 6.96, 28.08 6.29 C30.59 5.62, 33.25 5, 36.01 4.43 C38.76 3.86, 41.66 3.33, 44.62 2.86 C47.59 2.4, 50.67 1.98, 53.8 1.63 C56.93 1.27, 60.16 0.97, 63.41 0.73 C66.66 0.49, 69.99 0.3, 73.31 0.18 C76.64 0.06, 80.01 0, 83.36 0 C86.71 0, 90.09 0.06, 93.41 0.18 C96.74 0.3, 100.06 0.49, 103.31 0.73 C106.56 0.97, 109.79 1.27, 112.92 1.63 C116.05 1.98, 119.14 2.4, 122.1 2.86 C125.07 3.33, 127.96 3.86, 130.72 4.43 C133.47 5, 136.13 5.62, 138.64 6.29 C141.15 6.96, 143.54 7.67, 145.76 8.42 C147.98 9.18, 150.06 9.98, 151.97 10.8 C153.87 11.63, 155.62 12.5, 157.18 13.39 C158.73 14.28, 160.12 15.2, 161.31 16.14 C162.49 17.08, 163.5 18.05, 164.3 19.02 C165.1 20, 165.71 21, 166.12 21.99 C166.52 22.99, 166.72 24, 166.72 25.01" stroke="none" stroke-width="0" fill="#d3d3d3"></path><path d="M166.72 25.01 C166.72 26.01, 166.52 27.03, 166.12 28.02 C165.71 29.02, 165.1 30.02, 164.3 30.99 C163.5 31.97, 162.49 32.94, 161.31 33.88 C160.12 34.82, 158.73 35.74, 157.18 36.63 C155.62 37.52, 153.87 38.39, 151.97 39.22 C150.06 40.04, 147.98 40.84, 145.76 41.59 C143.54 42.34, 141.15 43.06, 138.64 43.73 C136.13 44.39, 133.47 45.02, 130.72 45.59 C127.96 46.16, 125.07 46.69, 122.1 47.15 C119.14 47.62, 116.05 48.04, 112.92 48.39 C109.79 48.75, 106.56 49.05, 103.31 49.29 C100.06 49.53, 96.74 49.71, 93.41 49.83 C90.09 49.96, 86.71 50.02, 83.36 50.02 C80.01 50.02, 76.64 49.96, 73.31 49.83 C69.99 49.71, 66.66 49.53, 63.41 49.29 C60.16 49.05, 56.93 48.75, 53.8 48.39 C50.67 48.04, 47.59 47.62, 44.62 47.15 C41.66 46.69, 38.76 46.16, 36.01 45.59 C33.25 45.02, 30.59 44.39, 28.08 43.73 C25.58 43.06, 23.19 42.34, 20.96 41.59 C18.74 40.84, 16.66 40.04, 14.76 39.22 C12.85 38.39, 11.11 37.52, 9.55 36.63 C7.99 35.74, 6.6 34.82, 5.42 33.88 C4.23 32.94, 3.22 31.97, 2.42 30.99 C1.62 30.02, 1.01 29.02, 0.61 28.02 C0.2 27.03, 0 26.01, 0 25.01 C0 24, 0.2 22.99, 0.61 21.99 C1.01 21, 1.62 20, 2.42 19.02 C3.22 18.05, 4.23 17.08, 5.42 16.14 C6.6 15.2, 7.99 14.28, 9.55 13.39 C11.11 12.5, 12.85 11.63, 14.76 10.8 C16.66 9.98, 18.74 9.18, 20.96 8.42 C23.19 7.67, 25.58 6.96, 28.08 6.29 C30.59 5.62, 33.25 5, 36.01 4.43 C38.76 3.86, 41.66 3.33, 44.62 2.86 C47.59 2.4, 50.67 1.98, 53.8 1.63 C56.93 1.27, 60.16 0.97, 63.41 0.73 C66.66 0.49, 69.99 0.3, 73.31 0.18 C76.64 0.06, 80.01 0, 83.36 0 C86.71 0, 90.09 0.06, 93.41 0.18 C96.74 0.3, 100.06 0.49, 103.31 0.73 C106.56 0.97, 109.79 1.27, 112.92 1.63 C116.05 1.98, 119.14 2.4, 122.1 2.86 C125.07 3.33, 127.96 3.86, 130.72 4.43 C133.47 5, 136.13 5.62, 138.64 6.29 C141.15 6.96, 143.54 7.67, 145.76 8.42 C147.98 9.18, 150.06 9.98, 151.97 10.8 C153.87 11.63, 155.62 12.5, 157.18 13.39 C158.73 14.28, 160.12 15.2, 161.31 16.14 C162.49 17.08, 163.5 18.05, 164.3 19.02 C165.1 20, 165.71 21, 166.12 21.99 C166.52 22.99, 166.72 24, 166.72 25.01" stroke="#878787" stroke-width="2" fill="none"></path></g><g stroke-linecap="round" transform="translate(192.4458033163482 32.77661093422205) rotate(0 17.822227306986747 18.397137865276648)"><path d="M35.64 18.4 C35.64 19.46, 35.55 20.54, 35.37 21.59 C35.19 22.64, 34.92 23.69, 34.57 24.69 C34.22 25.69, 33.77 26.67, 33.26 27.6 C32.74 28.52, 32.14 29.41, 31.47 30.22 C30.81 31.04, 30.07 31.81, 29.28 32.49 C28.49 33.17, 27.63 33.8, 26.73 34.33 C25.84 34.86, 24.89 35.32, 23.92 35.68 C22.95 36.05, 21.93 36.33, 20.92 36.51 C19.9 36.7, 18.85 36.79, 17.82 36.79 C16.79 36.79, 15.74 36.7, 14.73 36.51 C13.71 36.33, 12.7 36.05, 11.73 35.68 C10.76 35.32, 9.8 34.86, 8.91 34.33 C8.02 33.8, 7.16 33.17, 6.37 32.49 C5.58 31.81, 4.83 31.04, 4.17 30.22 C3.51 29.41, 2.9 28.52, 2.39 27.6 C1.87 26.67, 1.43 25.69, 1.07 24.69 C0.72 23.69, 0.45 22.64, 0.27 21.59 C0.09 20.54, 0 19.46, 0 18.4 C0 17.33, 0.09 16.25, 0.27 15.2 C0.45 14.15, 0.72 13.11, 1.07 12.1 C1.43 11.1, 1.87 10.12, 2.39 9.2 C2.9 8.28, 3.51 7.39, 4.17 6.57 C4.83 5.76, 5.58 4.99, 6.37 4.3 C7.16 3.62, 8.02 3, 8.91 2.46 C9.8 1.93, 10.76 1.47, 11.73 1.11 C12.7 0.75, 13.71 0.46, 14.73 0.28 C15.74 0.09, 16.79 0, 17.82 0 C18.85 0, 19.9 0.09, 20.92 0.28 C21.93 0.46, 22.95 0.75, 23.92 1.11 C24.89 1.47, 25.84 1.93, 26.73 2.46 C27.63 3, 28.49 3.62, 29.28 4.3 C30.07 4.99, 30.81 5.76, 31.47 6.57 C32.14 7.39, 32.74 8.28, 33.26 9.2 C33.77 10.12, 34.22 11.1, 34.57 12.1 C34.92 13.11, 35.19 14.15, 35.37 15.2 C35.55 16.25, 35.6 17.86, 35.64 18.4 C35.69 18.93, 35.69 17.86, 35.64 18.4" stroke="none" stroke-width="0" fill="#362b26"></path><path d="M35.64 18.4 C35.64 19.46, 35.55 20.54, 35.37 21.59 C35.19 22.64, 34.92 23.69, 34.57 24.69 C34.22 25.69, 33.77 26.67, 33.26 27.6 C32.74 28.52, 32.14 29.41, 31.47 30.22 C30.81 31.04, 30.07 31.81, 29.28 32.49 C28.49 33.17, 27.63 33.8, 26.73 34.33 C25.84 34.86, 24.89 35.32, 23.92 35.68 C22.95 36.05, 21.93 36.33, 20.92 36.51 C19.9 36.7, 18.85 36.79, 17.82 36.79 C16.79 36.79, 15.74 36.7, 14.73 36.51 C13.71 36.33, 12.7 36.05, 11.73 35.68 C10.76 35.32, 9.8 34.86, 8.91 34.33 C8.02 33.8, 7.16 33.17, 6.37 32.49 C5.58 31.81, 4.83 31.04, 4.17 30.22 C3.51 29.41, 2.9 28.52, 2.39 27.6 C1.87 26.67, 1.43 25.69, 1.07 24.69 C0.72 23.69, 0.45 22.64, 0.27 21.59 C0.09 20.54, 0 19.46, 0 18.4 C0 17.33, 0.09 16.25, 0.27 15.2 C0.45 14.15, 0.72 13.11, 1.07 12.1 C1.43 11.1, 1.87 10.12, 2.39 9.2 C2.9 8.28, 3.51 7.39, 4.17 6.57 C4.83 5.76, 5.58 4.99, 6.37 4.3 C7.16 3.62, 8.02 3, 8.91 2.46 C9.8 1.93, 10.76 1.47, 11.73 1.11 C12.7 0.75, 13.71 0.46, 14.73 0.28 C15.74 0.09, 16.79 0, 17.82 0 C18.85 0, 19.9 0.09, 20.92 0.28 C21.93 0.46, 22.95 0.75, 23.92 1.11 C24.89 1.47, 25.84 1.93, 26.73 2.46 C27.63 3, 28.49 3.62, 29.28 4.3 C30.07 4.99, 30.81 5.76, 31.47 6.57 C32.14 7.39, 32.74 8.28, 33.26 9.2 C33.77 10.12, 34.22 11.1, 34.57 12.1 C34.92 13.11, 35.19 14.15, 35.37 15.2 C35.55 16.25, 35.6 17.86, 35.64 18.4 C35.69 18.93, 35.69 17.86, 35.64 18.4" stroke="#ededed00" stroke-width="2" fill="none"></path></g><g stroke-linecap="round" transform="translate(203.93252918862714 44.838247988484) rotate(0 6.335500979740004 6.335500979740004)"><path d="M12.67 6.34 C12.67 6.7, 12.64 7.07, 12.57 7.44 C12.51 7.8, 12.41 8.16, 12.29 8.5 C12.16 8.85, 12.01 9.19, 11.82 9.5 C11.64 9.82, 11.42 10.13, 11.19 10.41 C10.95 10.69, 10.69 10.95, 10.41 11.19 C10.13 11.42, 9.82 11.64, 9.5 11.82 C9.19 12.01, 8.85 12.16, 8.5 12.29 C8.16 12.41, 7.8 12.51, 7.44 12.57 C7.07 12.64, 6.7 12.67, 6.34 12.67 C5.97 12.67, 5.6 12.64, 5.24 12.57 C4.87 12.51, 4.51 12.41, 4.17 12.29 C3.82 12.16, 3.49 12.01, 3.17 11.82 C2.85 11.64, 2.54 11.42, 2.26 11.19 C1.98 10.95, 1.72 10.69, 1.48 10.41 C1.25 10.13, 1.03 9.82, 0.85 9.5 C0.67 9.19, 0.51 8.85, 0.38 8.5 C0.26 8.16, 0.16 7.8, 0.1 7.44 C0.03 7.07, 0 6.7, 0 6.34 C0 5.97, 0.03 5.6, 0.1 5.24 C0.16 4.87, 0.26 4.51, 0.38 4.17 C0.51 3.82, 0.67 3.49, 0.85 3.17 C1.03 2.85, 1.25 2.54, 1.48 2.26 C1.72 1.98, 1.98 1.72, 2.26 1.48 C2.54 1.25, 2.85 1.03, 3.17 0.85 C3.49 0.67, 3.82 0.51, 4.17 0.38 C4.51 0.26, 4.87 0.16, 5.24 0.1 C5.6 0.03, 5.97 0, 6.34 0 C6.7 0, 7.07 0.03, 7.44 0.1 C7.8 0.16, 8.16 0.26, 8.5 0.38 C8.85 0.51, 9.19 0.67, 9.5 0.85 C9.82 1.03, 10.13 1.25, 10.41 1.48 C10.69 1.72, 10.95 1.98, 11.19 2.26 C11.42 2.54, 11.64 2.85, 11.82 3.17 C12.01 3.49, 12.16 3.82, 12.29 4.17 C12.41 4.51, 12.51 4.87, 12.57 5.24 C12.64 5.6, 12.65 6.15, 12.67 6.34 C12.69 6.52, 12.69 6.15, 12.67 6.34" stroke="none" stroke-width="0" fill="#121212"></path><path d="M12.67 6.34 C12.67 6.7, 12.64 7.07, 12.57 7.44 C12.51 7.8, 12.41 8.16, 12.29 8.5 C12.16 8.85, 12.01 9.19, 11.82 9.5 C11.64 9.82, 11.42 10.13, 11.19 10.41 C10.95 10.69, 10.69 10.95, 10.41 11.19 C10.13 11.42, 9.82 11.64, 9.5 11.82 C9.19 12.01, 8.85 12.16, 8.5 12.29 C8.16 12.41, 7.8 12.51, 7.44 12.57 C7.07 12.64, 6.7 12.67, 6.34 12.67 C5.97 12.67, 5.6 12.64, 5.24 12.57 C4.87 12.51, 4.51 12.41, 4.17 12.29 C3.82 12.16, 3.49 12.01, 3.17 11.82 C2.85 11.64, 2.54 11.42, 2.26 11.19 C1.98 10.95, 1.72 10.69, 1.48 10.41 C1.25 10.13, 1.03 9.82, 0.85 9.5 C0.67 9.19, 0.51 8.85, 0.38 8.5 C0.26 8.16, 0.16 7.8, 0.1 7.44 C0.03 7.07, 0 6.7, 0 6.34 C0 5.97, 0.03 5.6, 0.1 5.24 C0.16 4.87, 0.26 4.51, 0.38 4.17 C0.51 3.82, 0.67 3.49, 0.85 3.17 C1.03 2.85, 1.25 2.54, 1.48 2.26 C1.72 1.98, 1.98 1.72, 2.26 1.48 C2.54 1.25, 2.85 1.03, 3.17 0.85 C3.49 0.67, 3.82 0.51, 4.17 0.38 C4.51 0.26, 4.87 0.16, 5.24 0.1 C5.6 0.03, 5.97 0, 6.34 0 C6.7 0, 7.07 0.03, 7.44 0.1 C7.8 0.16, 8.16 0.26, 8.5 0.38 C8.85 0.51, 9.19 0.67, 9.5 0.85 C9.82 1.03, 10.13 1.25, 10.41 1.48 C10.69 1.72, 10.95 1.98, 11.19 2.26 C11.42 2.54, 11.64 2.85, 11.82 3.17 C12.01 3.49, 12.16 3.82, 12.29 4.17 C12.41 4.51, 12.51 4.87, 12.57 5.24 C12.64 5.6, 12.65 6.15, 12.67 6.34 C12.69 6.52, 12.69 6.15, 12.67 6.34" stroke="#ededed00" stroke-width="2" fill="none"></path></g><g stroke-linecap="round"><g transform="translate(156.24567910727416 69.84536524823102) rotate(0 -4.132826050772792 7.158264698782773)"><path d="M0 0 C-3.28 5.68, -6.56 11.37, -8.27 14.32 M0 0 C-3.27 5.66, -6.53 11.32, -8.27 14.32" stroke="#878787" stroke-width="2" fill="none"></path></g></g><mask></mask><g stroke-linecap="round"><g transform="translate(166.86047458778268 72.08595622256507) rotate(0 -4.132826050772792 7.158264698782773)"><path d="M0 0 C-2.06 3.57, -4.13 7.15, -8.27 14.32 M0 0 C-2.63 4.55, -5.25 9.1, -8.27 14.32" stroke="#878787" stroke-width="2" fill="none"></path></g></g><mask></mask><g stroke-linecap="round"><g transform="translate(165.23998223034874 75.00284246594606) rotate(0 -4.132826050772792 7.158264698782773)"><path d="M0 0 C-2.23 3.86, -4.46 7.73, -8.27 14.32 M0 0 C-2.24 3.88, -4.48 7.77, -8.27 14.32" stroke="#878787" stroke-width="2" fill="none"></path></g></g><mask></mask><g stroke-linecap="round"><g transform="translate(178.52801956130708 75.00284246594606) rotate(0 -4.132826050772792 7.158264698782773)"><path d="M0 0 C-2.49 4.31, -4.98 8.62, -8.27 14.32 M0 0 C-3.2 5.54, -6.4 11.09, -8.27 14.32" stroke="#878787" stroke-width="2" fill="none"></path></g></g><mask></mask><g stroke-linecap="round"><g transform="translate(193.43654924969945 76.29923635189357) rotate(0 -4.132826050772792 7.158264698782773)"><path d="M0 0 C-2.5 4.32, -4.99 8.65, -8.27 14.32 M0 0 C-2.69 4.65, -5.37 9.31, -8.27 14.32" stroke="#878787" stroke-width="2" fill="none"></path></g></g><mask></mask><g stroke-linecap="round"><g transform="translate(210.3182222586184 76.63571182008559) rotate(0 0 7.124158184808323)"><path d="M0 0 C0 4.4, 0 8.81, 0 14.25 M0 0 C0 3.08, 0 6.16, 0 14.25" stroke="#878787" stroke-width="2" fill="none"></path></g></g><mask></mask><g stroke-linecap="round"><g transform="translate(234.1794863596296 90.0961164515835) rotate(0 -4.132826050772792 -7.158264698782773)"><path d="M0 0 C-2.94 -5.09, -5.88 -10.19, -8.27 -14.32 M0 0 C-2.88 -4.99, -5.76 -9.97, -8.27 -14.32" stroke="#878787" stroke-width="2" fill="none"></path></g></g><mask></mask><g stroke-linecap="round"><g transform="translate(247.87979056118394 88.72608603142794) rotate(0 -4.132826050772792 -7.158264698782773)"><path d="M0 0 C-2.66 -4.61, -5.32 -9.22, -8.27 -14.32 M0 0 C-3.16 -5.47, -6.32 -10.95, -8.27 -14.32" stroke="#878787" stroke-width="2" fill="none"></path></g></g><mask></mask><g stroke-linecap="round"><g transform="translate(261.5800947627385 86.53403735917937) rotate(0 -4.132826050772792 -7.158264698782773)"><path d="M0 0 C-2.38 -4.13, -4.77 -8.26, -8.27 -14.32 M0 0 C-2.89 -5, -5.77 -10, -8.27 -14.32" stroke="#878787" stroke-width="2" fill="none"></path></g></g><mask></mask><g stroke-linecap="round"><g transform="translate(276.1024172163864 83.79397651886848) rotate(0 -4.132826050772792 -7.158264698782773)"><path d="M0 0 C-2.27 -3.92, -4.53 -7.85, -8.27 -14.32 M0 0 C-2.3 -3.99, -4.6 -7.98, -8.27 -14.32" stroke="#878787" stroke-width="2" fill="none"></path></g></g><mask></mask><g stroke-linecap="round"><g transform="translate(156.7936916417985 31.038662941471216) rotate(0 -4.132826050772792 -7.158264698782773)"><path d="M0 0 C-1.76 -3.04, -3.51 -6.08, -8.27 -14.32 M0 0 C-1.79 -3.11, -3.59 -6.21, -8.27 -14.32" stroke="#878787" stroke-width="2" fill="none"></path></g></g><mask></mask><g stroke-linecap="round"><g transform="translate(167.408487122307 28.79807196713716) rotate(0 -4.132826050772792 -7.158264698782773)"><path d="M0 0 C-3.24 -5.61, -6.48 -11.23, -8.27 -14.32 M0 0 C-1.91 -3.31, -3.83 -6.63, -8.27 -14.32" stroke="#878787" stroke-width="2" fill="none"></path></g></g><mask></mask><g stroke-linecap="round"><g transform="translate(165.78799476487308 25.881185723756175) rotate(0 -4.132826050772792 -7.158264698782773)"><path d="M0 0 C-1.69 -2.93, -3.38 -5.86, -8.27 -14.32 M0 0 C-3.05 -5.28, -6.1 -10.56, -8.27 -14.32" stroke="#878787" stroke-width="2" fill="none"></path></g></g><mask></mask><g stroke-linecap="round"><g transform="translate(179.0760320958314 25.881185723756175) rotate(0 -4.132826050772792 -7.158264698782773)"><path d="M0 0 C-1.82 -3.16, -3.65 -6.32, -8.27 -14.32 M0 0 C-2.12 -3.67, -4.24 -7.35, -8.27 -14.32" stroke="#878787" stroke-width="2" fill="none"></path></g></g><mask></mask><g stroke-linecap="round"><g transform="translate(193.98456178422367 24.584791837808666) rotate(0 -4.132826050772792 -7.158264698782773)"><path d="M0 0 C-2.78 -4.81, -5.56 -9.63, -8.27 -14.32 M0 0 C-2.29 -3.96, -4.57 -7.92, -8.27 -14.32" stroke="#878787" stroke-width="2" fill="none"></path></g></g><mask></mask><g stroke-linecap="round"><g transform="translate(210.86623479314272 24.248316369616646) rotate(0 0 -7.124158184808323)"><path d="M0 0 C0 -4.8, 0 -9.59, 0 -14.25 M0 0 C0 -2.9, 0 -5.81, 0 -14.25" stroke="#878787" stroke-width="2" fill="none"></path></g></g><mask></mask><g stroke-linecap="round"><g transform="translate(234.72749889415383 10.787911738118623) rotate(0 -4.132826050772792 7.158264698782773)"><path d="M0 0 C-2.13 3.7, -4.27 7.39, -8.27 14.32 M0 0 C-2.01 3.48, -4.02 6.96, -8.27 14.32" stroke="#878787" stroke-width="2" fill="none"></path></g></g><mask></mask><g stroke-linecap="round"><g transform="translate(248.42780309570827 12.157942158274295) rotate(0 -4.132826050772792 7.158264698782773)"><path d="M0 0 C-2.9 5.02, -5.8 10.05, -8.27 14.32 M0 0 C-2.21 3.83, -4.42 7.65, -8.27 14.32" stroke="#878787" stroke-width="2" fill="none"></path></g></g><mask></mask><g stroke-linecap="round"><g transform="translate(262.1281072972627 14.34999083052287) rotate(0 -4.132826050772792 7.158264698782773)"><path d="M0 0 C-1.99 3.45, -3.98 6.89, -8.27 14.32 M0 0 C-2.1 3.63, -4.19 7.26, -8.27 14.32" stroke="#878787" stroke-width="2" fill="none"></path></g></g><mask></mask><g stroke-linecap="round"><g transform="translate(276.65042975091075 17.09005167083376) rotate(0 -4.132826050772792 7.158264698782773)"><path d="M0 0 C-2.42 4.19, -4.84 8.38, -8.27 14.32 M0 0 C-2.66 4.61, -5.33 9.23, -8.27 14.32" stroke="#878787" stroke-width="2" fill="none"></path></g></g><mask></mask><g stroke-linecap="round"><g transform="translate(147.4501126100152 33.55136092516807) rotate(0 -4.132826050772792 -7.158264698782773)"><path d="M0 0 C-3.26 -5.64, -6.51 -11.28, -8.27 -14.32 M0 0 C-2.06 -3.57, -4.12 -7.14, -8.27 -14.32" stroke="#878787" stroke-width="2" fill="none"></path></g></g><mask></mask><g stroke-linecap="round"><g transform="translate(288.18362379934507 21.26708439676281) rotate(0 -4.132826050772792 7.158264698782773)"><path d="M0 0 C-3.25 5.62, -6.49 11.24, -8.27 14.32 M0 0 C-2.28 3.95, -4.56 7.9, -8.27 14.32" stroke="#878787" stroke-width="2" fill="none"></path></g></g><mask></mask><g stroke-linecap="round"><g transform="translate(145.41785974085525 67.2468055615077) rotate(0 -4.132826050772792 7.158264698782773)"><path d="M0 0 C-1.98 3.44, -3.97 6.88, -8.27 14.32 M0 0 C-2.26 3.91, -4.51 7.82, -8.27 14.32" stroke="#878787" stroke-width="2" fill="none"></path></g></g><mask></mask><g stroke-linecap="round"><g transform="translate(289.1997502339256 79.53108208991318) rotate(0 -4.132826050772792 -7.158264698782773)"><path d="M0 0 C-1.86 -3.21, -3.71 -6.43, -8.27 -14.32 M0 0 C-2.36 -4.08, -4.71 -8.16, -8.27 -14.32" stroke="#878787" stroke-width="2" fill="none"></path></g></g><mask></mask></svg>