<svg version="1.1" xmlns="http://www.w3.org/2000/svg" viewBox="0 0 292.40958333400135 255.63892659875285" width="292.40958333400135" height="255.63892659875285" class="excalidraw-svg"><!-- svg-source:excalidraw --><metadata></metadata><defs><style class="style-fonts">
      </style></defs><rect x="0" y="0" width="292.40958333400135" height="255.63892659875285" fill="#ffffff"></rect><g stroke-linecap="round"><g transform="translate(238.29314003748965 -7.063539466689136) rotate(44.99999999999995 0 62.390072433590504)" fill-rule="evenodd"><path d="M-0.94 -0.48 L70.44 122.47 L-72.29 122.27 L-1.31 -1.48" stroke="none" stroke-width="0" fill="#777" fill-rule="evenodd"></path><path d="M0 0 C15.5 25.68, 31.28 51.81, 71.29 123.48 M0 0 C24.24 44.06, 50.24 86.68, 71.29 123.48 M71.29 123.48 C37.05 124.27, 3.88 123.12, -71.29 123.48 M71.29 123.48 C15.71 125.54, -39.56 124.85, -71.29 123.48 M-71.29 123.48 C-53.09 93, -35.42 60.25, 0 0 M-71.29 123.48 C-53.19 90.33, -34.94 57.99, 0 0 M0 0 C0 0, 0 0, 0 0 M0 0 C0 0, 0 0, 0 0" stroke="transparent" stroke-width="1" fill="none"></path></g></g><mask></mask><g stroke-linecap="round" transform="translate(74.33109320503397 74.89237547575708) rotate(44.99999999999995 70.72553720357585 70.72553720357585)"><path d="M-0.41 -0.05 L143.31 -0.72 L141.46 142.16 L-1.53 141" stroke="none" stroke-width="0" fill="#777"></path><path d="M0 0 C40.15 -0.62, 76.8 0.25, 141.45 0 M0 0 C54.77 -2.2, 106.94 -1.44, 141.45 0 M141.45 0 C140.78 49.25, 142.97 98.42, 141.45 141.45 M141.45 0 C143.5 37.89, 143.57 75.77, 141.45 141.45 M141.45 141.45 C98.87 141.73, 56.9 140.76, 0 141.45 M141.45 141.45 C101.15 142.22, 60.16 141.64, 0 141.45 M0 141.45 C1.6 98.68, -0.25 57.27, 0 0 M0 141.45 C1.55 88.83, 1.05 35.95, 0 0" stroke="transparent" stroke-width="2" fill="none"></path></g><g stroke-linecap="round"><g transform="translate(52.254076878484 -7.502211708623491) rotate(315 1.4210854715202004e-14 59.75628858710747)" fill-rule="evenodd"><path d="M0.53 0.93 L69.55 120.45 L-70.08 120.05 L-0.16 0.07" stroke="none" stroke-width="0" fill="#777" fill-rule="evenodd"></path><path d="M0 0 C19.96 35.57, 41.1 67.07, 68.48 118.61 M0 0 C24.28 42.31, 47.79 81.61, 68.48 118.61 M68.48 118.61 C30.64 119.05, -5.62 120.4, -68.48 118.61 M68.48 118.61 C25.55 118.29, -18.72 118.5, -68.48 118.61 M-68.48 118.61 C-42.77 71.54, -13.81 26.31, 0 0 M-68.48 118.61 C-42.71 74.85, -16.73 29.42, 0 0 M0 0 C0 0, 0 0, 0 0 M0 0 C0 0, 0 0, 0 0" stroke="transparent" stroke-width="1" fill="none"></path></g></g><mask></mask></svg>