<svg version="1.1" xmlns="http://www.w3.org/2000/svg" viewBox="0 0 295.7285307953982 258.65725812045855" width="295.7285307953982" height="258.65725812045855" class="excalidraw-svg"><!-- svg-source:excalidraw --><metadata></metadata><defs><style class="style-fonts">
      </style></defs><rect x="0" y="0" width="295.7285307953982" height="258.65725812045855" fill="#ffffff"></rect><g stroke-linecap="round"><g transform="translate(241.61208749888652 -8.273629137078728) rotate(44.99999999999995 2.842170943040401e-14 62.3900724335905)" fill-rule="evenodd"><path d="M0 0 C0 0, 0 0, 0 0 M0 0 C0 0, 0 0, 0 0 M-10.76 18.47 C-7.64 14.88, -6.08 12.84, 2.36 3.38 M-10.76 18.47 C-5.52 13.63, -0.98 7.55, 2.36 3.38 M-20.86 36.19 C-11.98 29.17, -4.89 17.72, 4.07 7.51 M-20.86 36.19 C-13.71 26.45, -4.12 17.9, 4.07 7.51 M-31.62 54.66 C-18.72 39.91, -3.86 23.52, 6.43 10.89 M-31.62 54.66 C-18.65 38.61, -3.22 23, 6.43 10.89 M-41.72 72.38 C-26.54 52.31, -10.35 33.11, 8.14 15.03 M-41.72 72.38 C-26.25 56.46, -13.95 39.41, 8.14 15.03 M-52.48 90.86 C-39.83 74.96, -24.55 62.22, 10.5 18.4 M-52.48 90.86 C-36.25 73.14, -21.23 54.61, 10.5 18.4 M-62.58 108.57 C-42.91 88.12, -25.23 63.56, 12.86 21.78 M-62.58 108.57 C-39.89 83.53, -18.91 56.63, 12.86 21.78 M-70.72 124.03 C-39.88 89.53, -11.6 57.57, 14.57 25.92 M-70.72 124.03 C-49.6 101.05, -29.78 77.81, 14.57 25.92 M-65.07 123.63 C-43.84 95.81, -16.75 68.23, 16.93 29.3 M-65.07 123.63 C-41.18 94.26, -14.74 66.43, 16.93 29.3 M-60.09 123.99 C-35.35 96.04, -14.34 69.12, 19.3 32.67 M-60.09 123.99 C-36.33 97.41, -11.4 70.93, 19.3 32.67 M-55.1 124.35 C-29.85 92.55, -0.78 64.41, 21 36.81 M-55.1 124.35 C-37.37 101.87, -18.38 79.77, 21 36.81 M-49.46 123.96 C-35.14 105, -16.37 87.32, 23.37 40.19 M-49.46 123.96 C-26.27 97.31, -2.63 69.93, 23.37 40.19 M-44.47 124.32 C-23.29 98.73, -2.37 76.77, 25.07 44.32 M-44.47 124.32 C-24.74 101.02, -3.77 76.2, 25.07 44.32 M-38.83 123.93 C-15.33 97.41, 9.6 72.18, 27.44 47.7 M-38.83 123.93 C-19.33 99.75, 1.17 76.78, 27.44 47.7 M-33.84 124.29 C-12.76 99.18, 10.89 75.47, 29.8 51.08 M-33.84 124.29 C-16.61 105.72, -0.45 85.91, 29.8 51.08 M-28.2 123.89 C-10.81 102.71, 6.42 83.81, 31.51 55.21 M-28.2 123.89 C-14.39 108.94, -2.37 95.44, 31.51 55.21 M-23.21 124.25 C-0.32 99.58, 22.76 73.88, 33.87 58.59 M-23.21 124.25 C-2.16 100.83, 17.66 76.17, 33.87 58.59 M-17.57 123.86 C-1.02 105.43, 13.66 85.6, 36.23 61.97 M-17.57 123.86 C-3.86 108.26, 10.88 92.18, 36.23 61.97 M-12.58 124.22 C1.48 107.68, 15.57 90.5, 37.94 66.1 M-12.58 124.22 C-2.13 111.14, 9.81 98.62, 37.94 66.1 M-6.94 123.82 C5.33 110.26, 18.93 91.48, 40.3 69.48 M-6.94 123.82 C4.56 110.2, 17.3 97.21, 40.3 69.48 M-1.95 124.18 C6.95 112.29, 18.74 101.93, 42.01 73.62 M-1.95 124.18 C11.58 107.67, 24.45 91.93, 42.01 73.62 M3.69 123.79 C18.25 107.24, 31.35 92.06, 44.37 77 M3.69 123.79 C13.55 111.09, 24.02 99.38, 44.37 77 M8.68 124.15 C19.37 110.98, 29.61 99.68, 46.73 80.37 M8.68 124.15 C20.84 111.14, 31.81 96.65, 46.73 80.37 M14.32 123.75 C19.44 114.64, 29.89 106.4, 48.44 84.51 M14.32 123.75 C25.85 110.87, 37.8 98.33, 48.44 84.51 M19.31 124.11 C28.71 112.51, 38.54 101.85, 50.8 87.89 M19.31 124.11 C30.8 111.65, 41.1 99.88, 50.8 87.89 M24.95 123.72 C33.9 115.27, 39.02 104.21, 53.16 91.27 M24.95 123.72 C35.81 111.84, 47.65 97.83, 53.16 91.27 M29.94 124.08 C38.31 115.16, 43.27 108.81, 54.87 95.4 M29.94 124.08 C37.73 116.34, 45.1 106.28, 54.87 95.4 M35.58 123.68 C43.84 116.93, 48.24 107.76, 57.23 98.78 M35.58 123.68 C41.77 115.41, 48.62 108.79, 57.23 98.78 M40.57 124.04 C45.33 119.27, 48.65 117.25, 58.94 102.91 M40.57 124.04 C47.86 117.43, 53.37 109.94, 58.94 102.91 M46.21 123.65 C51.69 118.04, 58.29 109.52, 61.3 106.29 M46.21 123.65 C50.73 118.86, 54.56 114.52, 61.3 106.29 M51.2 124.01 C56.29 118.28, 62.29 111.61, 63.67 109.67 M51.2 124.01 C54.69 119.85, 57.54 116.07, 63.67 109.67 M56.19 124.37 C58.98 121.04, 61.22 118.22, 65.37 113.8 M56.19 124.37 C58.94 121.22, 62.1 117.42, 65.37 113.8 M61.83 123.98 C63.62 121.52, 65.77 120.26, 67.74 117.18 M61.83 123.98 C63.04 122.06, 64.82 120, 67.74 117.18 M66.82 124.34 C68.46 122.53, 69.19 121.41, 70.1 120.56 M66.82 124.34 C67.46 123.37, 68.44 122.8, 70.1 120.56 M-71.45 123.35 C-71.45 123.35, -71.45 123.35, -71.45 123.35 M-71.45 123.35 C-71.45 123.35, -71.45 123.35, -71.45 123.35 M-65.05 123.61 C-67.21 122.44, -68.44 120.32, -69.58 119.67 M-65.05 123.61 C-66.27 122.41, -67.87 121.18, -69.58 119.67 M-59.41 123.21 C-60.9 121.02, -62.66 120.06, -66.95 116.65 M-59.41 123.21 C-62.54 121.04, -65.03 118.34, -66.95 116.65 M-53.01 123.47 C-55.69 121.61, -59.36 116.61, -65.08 112.98 M-53.01 123.47 C-57.4 120.16, -61.91 116.19, -65.08 112.98 M-46.61 123.74 C-54.94 117.58, -61.36 110.59, -63.22 109.3 M-46.61 123.74 C-53.39 118.85, -59.98 113.18, -63.22 109.3 M-40.97 123.34 C-48.82 117.81, -56.15 107.59, -61.35 105.63 M-40.97 123.34 C-44.96 118.77, -49.43 116.33, -61.35 105.63 M-34.57 123.6 C-40.95 118.09, -47.95 110.94, -58.72 102.61 M-34.57 123.6 C-44.72 115.66, -52.63 106.99, -58.72 102.61 M-28.93 123.21 C-36.12 117.11, -42.37 112.31, -56.85 98.93 M-28.93 123.21 C-39.05 114.97, -48.67 104.45, -56.85 98.93 M-22.53 123.47 C-35.31 113.57, -43.14 105.24, -54.98 95.26 M-22.53 123.47 C-29.03 117.42, -35.85 111.92, -54.98 95.26 M-16.13 123.73 C-24.32 116.64, -35.81 107.48, -53.11 91.58 M-16.13 123.73 C-27.61 112.75, -40.15 103.44, -53.11 91.58 M-10.49 123.34 C-21.39 115.29, -32.97 104.44, -51.24 87.91 M-10.49 123.34 C-22.74 113.1, -34.01 102.32, -51.24 87.91 M-4.09 123.6 C-16.03 111.98, -28.51 103.86, -48.62 84.89 M-4.09 123.6 C-14.84 115, -26.15 104.91, -48.62 84.89 M1.55 123.2 C-10.04 113.36, -22.91 104.21, -46.75 81.22 M1.55 123.2 C-14.42 109.9, -31.18 94.68, -46.75 81.22 M7.95 123.47 C-9.48 109.44, -28.98 91.96, -44.88 77.54 M7.95 123.47 C-8.05 109.57, -23.06 97.52, -44.88 77.54 M14.35 123.73 C-6.87 104.63, -24.91 91.42, -43.01 73.87 M14.35 123.73 C2.08 111.24, -11.25 101.07, -43.01 73.87 M19.99 123.33 C1.31 109.36, -16.4 90.98, -40.39 70.85 M19.99 123.33 C4.49 110.2, -11.03 96.63, -40.39 70.85 M26.39 123.59 C4.36 102.18, -18.41 85.68, -38.52 67.17 M26.39 123.59 C4.74 103.18, -17.64 84.58, -38.52 67.17 M32.03 123.2 C9.83 103.47, -11.13 85.8, -36.65 63.5 M32.03 123.2 C4.45 97.87, -23.19 75.03, -36.65 63.5 M38.43 123.46 C23.18 110.43, 6.1 96.2, -34.78 59.82 M38.43 123.46 C23.51 109.54, 6.87 96.23, -34.78 59.82 M44.83 123.72 C28.45 111.42, 10.66 95.43, -32.91 56.15 M44.83 123.72 C17.44 99.37, -10.9 74.36, -32.91 56.15 M50.47 123.33 C33.01 109.95, 13.26 94.5, -30.28 53.13 M50.47 123.33 C29.18 104.33, 6.49 85.07, -30.28 53.13 M56.87 123.59 C37.91 106.47, 17.6 88.82, -28.41 49.45 M56.87 123.59 C37.62 108.47, 17.76 91.11, -28.41 49.45 M62.51 123.19 C37.14 101.85, 9.41 76.4, -26.55 45.78 M62.51 123.19 C34.82 99.27, 7.51 75.79, -26.55 45.78 M68.91 123.46 C45.73 104.93, 21.57 82.99, -24.68 42.1 M68.91 123.46 C39.52 98.26, 12.21 73.65, -24.68 42.1 M68.51 117.81 C34.04 90.6, 1.37 60.97, -22.05 39.09 M68.51 117.81 C49.51 99.9, 30.05 83.17, -22.05 39.09 M62.08 106.92 C34.4 85.31, 8.35 61.5, -20.18 35.41 M62.08 106.92 C34.79 82.07, 5.74 58, -20.18 35.41 M56.4 96.69 C37.29 80.14, 21.97 64.4, -18.31 31.74 M56.4 96.69 C37.57 81.54, 20.21 66.43, -18.31 31.74 M49.97 85.79 C25.42 63.87, 0.57 42.53, -16.44 28.06 M49.97 85.79 C28.85 67.45, 8.46 47.41, -16.44 28.06 M44.29 75.56 C30.88 61.96, 14.66 49.74, -14.57 24.39 M44.29 75.56 C26.08 59.44, 6.39 43.59, -14.57 24.39 M37.86 64.67 C22.81 51.96, 4.81 37.32, -11.95 21.37 M37.86 64.67 C27.25 55.48, 15.34 45.67, -11.95 21.37 M31.43 53.78 C21.07 41.73, 6.99 33.77, -10.08 17.69 M31.43 53.78 C16.37 41.54, 2.67 27.97, -10.08 17.69 M25.75 43.54 C15.04 33.77, 2.16 25.59, -8.21 14.02 M25.75 43.54 C16.53 34.2, 6.25 26.32, -8.21 14.02 M19.32 32.65 C13.03 26.43, 2.21 17.09, -6.34 10.34 M19.32 32.65 C10.28 24.66, 0.43 16.11, -6.34 10.34 M12.89 21.76 C6.79 16.94, 2 12.76, -3.72 7.32 M12.89 21.76 C6.37 16.07, 1.49 11.81, -3.72 7.32 M7.21 11.52 C4.89 9.16, 3.31 8.58, -1.85 3.65 M7.21 11.52 C4.93 9.51, 2.68 6.85, -1.85 3.65" stroke="#fcc2d7" stroke-width="0.5" fill="none"></path><path d="M0 0 C15.5 25.68, 31.28 51.81, 71.29 123.48 M0 0 C24.24 44.06, 50.24 86.68, 71.29 123.48 M71.29 123.48 C37.05 124.27, 3.88 123.12, -71.29 123.48 M71.29 123.48 C15.71 125.54, -39.56 124.85, -71.29 123.48 M-71.29 123.48 C-53.09 93, -35.42 60.25, 0 0 M-71.29 123.48 C-53.19 90.33, -34.94 57.99, 0 0 M0 0 C0 0, 0 0, 0 0 M0 0 C0 0, 0 0, 0 0" stroke="#fcc2d7" stroke-width="1" fill="none"></path></g></g><mask></mask><g stroke-linecap="round" transform="translate(74.83109320503397 77.91070699746277) rotate(44.99999999999995 70.72553720357585 70.72553720357585)"><path d="M0 0 C0 0, 0 0, 0 0 M0 0 C0 0, 0 0, 0 0 M0.13 12.04 C1.53 9.99, 4.69 5.27, 10.63 -0.03 M0.13 12.04 C4.19 8.18, 7.06 3.86, 10.63 -0.03 M0.27 24.08 C5.93 16.66, 9.87 14.42, 21.26 -0.07 M0.27 24.08 C9.24 15.54, 17.05 4.27, 21.26 -0.07 M-0.26 36.88 C11.21 24.46, 19.9 13.5, 31.89 -0.1 M-0.26 36.88 C9.77 24.07, 21.17 11.92, 31.89 -0.1 M-0.12 48.92 C10.9 37.13, 19.76 24.62, 42.52 -0.14 M-0.12 48.92 C14.2 32.88, 29.27 16.16, 42.52 -0.14 M0.01 60.96 C20.34 39.85, 39.68 17.87, 53.15 -0.17 M0.01 60.96 C19.96 38.02, 37.14 15.92, 53.15 -0.17 M0.14 73 C20.75 51.15, 36.85 31.3, 63.78 -0.21 M0.14 73 C25.65 44.11, 48.9 16.67, 63.78 -0.21 M0.28 85.04 C26.13 53.57, 57.23 22.82, 74.41 -0.24 M0.28 85.04 C15.57 65.96, 32.4 47.03, 74.41 -0.24 M-0.25 97.84 C26.78 69.16, 49.81 39.74, 85.04 -0.28 M-0.25 97.84 C25.53 67.85, 52.44 35.73, 85.04 -0.28 M-0.11 109.88 C28.57 79, 55.22 48.13, 95.67 -0.31 M-0.11 109.88 C33.4 71.95, 67.14 31.36, 95.67 -0.31 M0.02 121.92 C27.12 87.44, 60.24 54.33, 106.3 -0.34 M0.02 121.92 C27.63 88.43, 55.92 56.76, 106.3 -0.34 M0.15 133.96 C45.85 81.1, 91.53 30.26, 116.27 0.38 M0.15 133.96 C26.96 102.19, 54.15 70.95, 116.27 0.38 M4.22 141.47 C52.12 83.47, 100.37 27.77, 126.91 0.34 M4.22 141.47 C40.53 100.49, 75.99 59.59, 126.91 0.34 M14.85 141.44 C43.6 109.88, 74.67 75.95, 137.54 0.31 M14.85 141.44 C57.06 92.91, 100.88 44.6, 137.54 0.31 M25.48 141.4 C62.13 100.62, 97.15 59.16, 141.6 7.82 M25.48 141.4 C68.96 93.03, 111.53 44.21, 141.6 7.82 M36.11 141.37 C75.32 97.52, 114.87 50.86, 141.74 19.86 M36.11 141.37 C59.44 115.77, 80.39 89.53, 141.74 19.86 M46.74 141.33 C65.33 116.28, 85.04 94.84, 141.87 31.9 M46.74 141.33 C66.64 118.49, 85.89 96.12, 141.87 31.9 M57.37 141.3 C88.41 106.42, 119.74 71.44, 141.35 44.7 M57.37 141.3 C88.76 103.99, 120.15 68.61, 141.35 44.7 M68 141.26 C84.05 121.86, 96.98 104.93, 141.48 56.74 M68 141.26 C85.75 121.19, 103.06 100.37, 141.48 56.74 M78.63 141.23 C95.89 124.57, 107 106.98, 141.61 68.78 M78.63 141.23 C91.81 125.31, 106.99 110.34, 141.61 68.78 M88.61 141.95 C105.18 121.46, 125.68 99.8, 141.75 80.82 M88.61 141.95 C100.76 128.16, 114.27 113.16, 141.75 80.82 M99.24 141.92 C117.53 120.6, 131.48 102.66, 141.88 92.86 M99.24 141.92 C113.57 125.84, 129.4 108.67, 141.88 92.86 M109.87 141.88 C121.84 126.33, 135.1 113.97, 141.36 105.66 M109.87 141.88 C118.69 130.96, 129.37 120.77, 141.36 105.66 M120.5 141.85 C124.76 136.99, 132.97 128.68, 141.49 117.7 M120.5 141.85 C128.84 131.87, 136.74 123.53, 141.49 117.7 M131.13 141.81 C135.48 135.99, 140.62 131.08, 141.62 129.74 M131.13 141.81 C133.21 139.64, 136.11 136.22, 141.62 129.74" stroke="#b2f2bb" stroke-width="1" fill="none"></path><path d="M0 0 C40.15 -0.62, 76.8 0.25, 141.45 0 M0 0 C54.77 -2.2, 106.94 -1.44, 141.45 0 M141.45 0 C140.78 49.25, 142.97 98.42, 141.45 141.45 M141.45 0 C143.5 37.89, 143.57 75.77, 141.45 141.45 M141.45 141.45 C98.87 141.73, 56.9 140.76, 0 141.45 M141.45 141.45 C101.15 142.22, 60.16 141.64, 0 141.45 M0 141.45 C1.6 98.68, -0.25 57.27, 0 0 M0 141.45 C1.55 88.83, 1.05 35.95, 0 0" stroke="#b2f2bb" stroke-width="2" fill="none"></path></g><g stroke-linecap="round"><g transform="translate(52.254076878484 -4.483880186917801) rotate(315 1.4210854715202004e-14 59.75628858710747)" fill-rule="evenodd"><path d="M0 0 C0 0, 0 0, 0 0 M0 0 C0 0, 0 0, 0 0 M-10.76 18.47 C-6.47 14.77, -0.19 7.96, 2.36 3.38 M-10.76 18.47 C-6.6 14.64, -3.14 8.95, 2.36 3.38 M-20.86 36.19 C-11.5 26.59, -4.83 15.35, 4.07 7.51 M-20.86 36.19 C-14.99 30.22, -8.46 23.47, 4.07 7.51 M-31.62 54.66 C-22.2 39.94, -10.95 30.96, 6.43 10.89 M-31.62 54.66 C-20.32 40.82, -7.98 28.23, 6.43 10.89 M-41.72 72.38 C-27.4 53.2, -11.09 37.14, 8.14 15.03 M-41.72 72.38 C-28.56 57, -15.8 42.42, 8.14 15.03 M-52.48 90.86 C-27.31 62.23, -1.18 35.59, 10.5 18.4 M-52.48 90.86 C-39.88 76.1, -27.04 60.05, 10.5 18.4 M-62.58 108.57 C-38.64 82.62, -18.41 57.52, 12.86 21.78 M-62.58 108.57 C-39.02 80.07, -12.65 52.63, 12.86 21.78 M-66.78 119.5 C-41.46 87.84, -16.09 61.31, 14.57 25.92 M-66.78 119.5 C-37.71 88.26, -8.86 55.07, 14.57 25.92 M-61.14 119.11 C-33.23 86.99, -5.03 51.19, 16.93 29.3 M-61.14 119.11 C-40.97 96.08, -20.55 72.5, 16.93 29.3 M-56.15 119.47 C-31.45 95.31, -12.16 67.48, 19.3 32.67 M-56.15 119.47 C-25.86 87.01, 1.81 51.62, 19.3 32.67 M-50.51 119.07 C-22.62 90.18, 3.38 58.03, 21 36.81 M-50.51 119.07 C-28.99 92.71, -5.12 67.12, 21 36.81 M-45.52 119.43 C-32.63 104.5, -17.47 87.26, 23.37 40.19 M-45.52 119.43 C-22.52 94.44, -1.45 68.87, 23.37 40.19 M-39.88 119.04 C-21.04 97.62, -5.21 81.55, 25.07 44.32 M-39.88 119.04 C-16.55 92.95, 6.14 66.4, 25.07 44.32 M-34.89 119.4 C-12.13 94.71, 10.71 67.53, 27.44 47.7 M-34.89 119.4 C-19.75 100.11, -2.47 82.55, 27.44 47.7 M-29.25 119 C-9.64 97.4, 9.89 73.57, 29.8 51.08 M-29.25 119 C-13.87 100.14, 3.76 79.54, 29.8 51.08 M-24.26 119.36 C-8.68 101.07, 6.35 87.82, 31.51 55.21 M-24.26 119.36 C-12.09 104.52, -0.05 90.87, 31.51 55.21 M-18.62 118.97 C-7.32 108.2, 2.46 92.19, 33.87 58.59 M-18.62 118.97 C-7.85 106.56, 4.19 92.01, 33.87 58.59 M-13.63 119.33 C1.76 105.04, 13.52 86.73, 36.23 61.97 M-13.63 119.33 C3.63 97.83, 23.13 76.52, 36.23 61.97 M-7.99 118.93 C3.52 107.31, 12.64 93.64, 37.94 66.1 M-7.99 118.93 C7.25 102, 20.19 85.41, 37.94 66.1 M-3 119.29 C6.97 110.29, 15.57 98.61, 40.3 69.48 M-3 119.29 C13.16 99.96, 30.83 79.86, 40.3 69.48 M2.64 118.9 C14.79 106.36, 25.06 94.53, 42.01 73.62 M2.64 118.9 C13.84 104.97, 27.35 90.6, 42.01 73.62 M7.63 119.26 C17.85 108.56, 26.81 94.84, 44.37 77 M7.63 119.26 C17.22 108.71, 27.52 96.3, 44.37 77 M13.27 118.86 C25 107.19, 36.63 90.78, 46.73 80.37 M13.27 118.86 C26.59 104.05, 38.91 88.15, 46.73 80.37 M18.26 119.22 C28.54 109.36, 37.77 98.08, 48.44 84.51 M18.26 119.22 C28.38 109.03, 38.15 98.27, 48.44 84.51 M23.9 118.83 C35.9 107.03, 42.88 94.79, 50.8 87.89 M23.9 118.83 C35.02 106.15, 44.45 95.81, 50.8 87.89 M28.89 119.19 C35.59 108.23, 45.15 99.87, 53.16 91.27 M28.89 119.19 C37.97 107.88, 47.99 97.6, 53.16 91.27 M33.88 119.55 C38.06 111.88, 43.21 108.46, 54.87 95.4 M33.88 119.55 C40.46 113.18, 46.73 105.32, 54.87 95.4 M39.52 119.16 C45.91 110.45, 52.53 105.73, 57.23 98.78 M39.52 119.16 C44.36 114.75, 48.37 109.36, 57.23 98.78 M44.51 119.52 C49.84 114.93, 53.2 110.98, 58.94 102.91 M44.51 119.52 C49.02 113.99, 55.93 106.54, 58.94 102.91 M50.15 119.12 C53.97 113.98, 58.74 109.18, 61.3 106.29 M50.15 119.12 C54.16 113.66, 58.67 108.94, 61.3 106.29 M55.14 119.48 C57.83 117.69, 60.08 113.46, 63.67 109.67 M55.14 119.48 C58.21 116.93, 60.59 113.64, 63.67 109.67 M60.78 119.09 C62.36 118.21, 63.62 117.07, 65.37 113.8 M60.78 119.09 C62.37 117.3, 64.42 115.2, 65.37 113.8 M65.77 119.45 C66.54 118.47, 67.21 117.57, 67.74 117.18 M65.77 119.45 C66.47 118.48, 67.23 117.89, 67.74 117.18 M-68.58 118.52 C-68.58 118.52, -68.58 118.52, -68.58 118.52 M-68.58 118.52 C-68.58 118.52, -68.58 118.52, -68.58 118.52 M-62.18 118.78 C-64.07 117.7, -64.94 115.97, -66.71 114.85 M-62.18 118.78 C-63.89 117.51, -65.33 116.19, -66.71 114.85 M-56.54 118.39 C-59.42 115.43, -61.09 113.84, -64.09 111.83 M-56.54 118.39 C-58.77 115.64, -62.05 114.21, -64.09 111.83 M-50.14 118.65 C-53.95 116.09, -56.31 114.8, -62.22 108.15 M-50.14 118.65 C-53.66 116.03, -56.3 113.32, -62.22 108.15 M-43.74 118.91 C-49.08 114.23, -50.74 113.53, -60.35 104.48 M-43.74 118.91 C-48.52 116.09, -52.17 112.37, -60.35 104.48 M-38.1 118.52 C-42.58 112.7, -51.09 107.64, -58.48 100.8 M-38.1 118.52 C-43.01 114.75, -47.41 110.18, -58.48 100.8 M-31.7 118.78 C-40.16 111.68, -47.68 105.39, -56.61 97.13 M-31.7 118.78 C-39.71 111.98, -46.58 106.99, -56.61 97.13 M-26.06 118.38 C-34.09 112.14, -43.99 101.01, -53.98 94.11 M-26.06 118.38 C-37.5 109.82, -47.23 100.16, -53.98 94.11 M-19.66 118.65 C-27.45 111.47, -34.3 105.73, -52.11 90.44 M-19.66 118.65 C-28.71 110.77, -36.36 102.58, -52.11 90.44 M-13.26 118.91 C-20.55 110, -31.77 104.92, -50.24 86.76 M-13.26 118.91 C-23.68 109.39, -32.08 101.86, -50.24 86.76 M-7.62 118.51 C-20.68 107.09, -35.23 96.23, -48.38 83.09 M-7.62 118.51 C-16.67 111.28, -24.56 102.77, -48.38 83.09 M-1.22 118.77 C-15.57 104.53, -30.88 91.72, -45.75 80.07 M-1.22 118.77 C-17.8 103.34, -35.05 90, -45.75 80.07 M4.42 118.38 C-9.52 106.8, -19.37 97.67, -43.88 76.39 M4.42 118.38 C-13.3 104.14, -30.62 88.56, -43.88 76.39 M10.82 118.64 C-4.19 106.64, -20.09 92.56, -42.01 72.72 M10.82 118.64 C-7.22 101.69, -27.44 84.72, -42.01 72.72 M17.22 118.9 C4.43 108.41, -9.99 93.16, -40.14 69.04 M17.22 118.9 C-4.8 99.57, -26.05 81.84, -40.14 69.04 M22.86 118.51 C4.85 103.81, -11.98 87.65, -38.27 65.37 M22.86 118.51 C-1.62 99.16, -25.23 76.99, -38.27 65.37 M29.26 118.77 C5 98.18, -18.18 76.36, -35.65 62.35 M29.26 118.77 C5.66 97.05, -19.75 75.45, -35.65 62.35 M34.9 118.37 C18.89 104.29, 4 91.35, -33.78 58.67 M34.9 118.37 C11.25 98.48, -11.95 78.59, -33.78 58.67 M41.3 118.64 C12.44 95.15, -12.74 72.49, -31.91 55 M41.3 118.64 C21.37 101.22, 0.2 82.72, -31.91 55 M47.7 118.9 C18.21 91.47, -13.39 67.34, -30.04 51.32 M47.7 118.9 C29.8 103.38, 12.7 88.92, -30.04 51.32 M53.34 118.5 C27.14 96.08, 0.36 74.17, -27.42 48.3 M53.34 118.5 C33.25 101.82, 13.41 84.12, -27.42 48.3 M59.74 118.76 C35.86 99.89, 13.27 77.64, -25.55 44.63 M59.74 118.76 C40.29 103.12, 21.93 87.21, -25.55 44.63 M65.38 118.37 C35.14 88.85, 0.03 61.34, -23.68 40.96 M65.38 118.37 C41.31 98.46, 16.94 77.13, -23.68 40.96 M65.74 113.38 C33.98 86.08, 1.38 54.38, -21.81 37.28 M65.74 113.38 C33.71 85.43, 1.35 56.57, -21.81 37.28 M59.31 102.49 C38.86 82.1, 13.66 65.76, -19.94 33.61 M59.31 102.49 C32.09 77.19, 4.01 54.68, -19.94 33.61 M52.87 91.6 C31.15 72.36, 10.08 54.94, -17.31 30.59 M52.87 91.6 C31.98 73.64, 13.2 55.26, -17.31 30.59 M47.2 81.36 C32.46 68.91, 15.63 52.99, -15.44 26.91 M47.2 81.36 C25.05 62.83, 4.57 45.39, -15.44 26.91 M40.76 70.47 C19.69 52.32, 3.31 36.37, -13.57 23.24 M40.76 70.47 C24.27 56.42, 6.7 42.17, -13.57 23.24 M35.09 60.24 C24.93 48.73, 9.4 38.59, -11.7 19.56 M35.09 60.24 C19.82 46.72, 5.08 35.47, -11.7 19.56 M28.65 49.35 C15.1 36.27, -0.01 22.15, -9.08 16.54 M28.65 49.35 C16.38 39.48, 5.93 29.59, -9.08 16.54 M22.22 38.45 C12.11 30.61, 2.24 20.27, -7.21 12.87 M22.22 38.45 C11.61 29.57, 1.22 19.24, -7.21 12.87 M16.55 28.22 C6.78 21.51, 0.63 12.4, -5.34 9.19 M16.55 28.22 C11.27 24.28, 6.01 19.13, -5.34 9.19 M10.11 17.33 C4.34 13.55, 0.39 9.89, -3.47 5.52 M10.11 17.33 C7.39 14.87, 5.1 13.16, -3.47 5.52 M4.44 7.09 C1.98 4.7, -0.44 2.67, -1.6 1.84 M4.44 7.09 C3.25 6.03, 1.75 4.66, -1.6 1.84" stroke="#ffd8a8" stroke-width="0.5" fill="none"></path><path d="M0 0 C19.96 35.57, 41.1 67.07, 68.48 118.61 M0 0 C24.28 42.31, 47.79 81.61, 68.48 118.61 M68.48 118.61 C30.64 119.05, -5.62 120.4, -68.48 118.61 M68.48 118.61 C25.55 118.29, -18.72 118.5, -68.48 118.61 M-68.48 118.61 C-42.77 71.54, -13.81 26.31, 0 0 M-68.48 118.61 C-42.71 74.85, -16.73 29.42, 0 0 M0 0 C0 0, 0 0, 0 0 M0 0 C0 0, 0 0, 0 0" stroke="#ffd43b" stroke-width="1" fill="none"></path></g></g><mask></mask></svg>